<svg width="68" height="15" viewBox="0 0 68 15" xmlns="http://www.w3.org/2000/svg"><path d="M7.42 14.996L0 0h1.96a860.297 860.297 0 0 0 4.12 8.498 78 78 0 0 1 1.42 3.03s.598-1.366 1.455-3.1A851.563 851.563 0 0 0 13.04 0H15L7.58 15l-.16-.004zM23.5 15a7.5 7.5 0 1 1 0-15 7.5 7.5 0 0 1 0 15zm0-13.437c-3.193 0-5.781 2.658-5.781 5.937 0 3.28 2.588 5.937 5.781 5.937 3.193 0 5.781-2.657 5.781-5.937 0-3.279-2.588-5.937-5.781-5.937zM42 15h-8V0h1.872v13.244H42zm6.127-13.245H42V0h8v15h-1.873zM53.5 1a.5.5 0 1 1 0-1 .5.5 0 0 1 0 1zm12.539 14a844.53 844.53 0 0 0-4.119-8.498c-.839-1.696-1.42-3.029-1.42-3.029s-.597 1.365-1.455 3.099A835.441 835.441 0 0 0 54.961 15H53l7.421-15 .16.004L68 15h-1.961z" fill="#FFF" fill-rule="evenodd"/></svg>