<svg width="48" height="26" viewBox="0 0 48 26" xmlns="http://www.w3.org/2000/svg"><title>Fill 1</title><g fill="#003874" fill-rule="evenodd"><path d="M43.607 25.475H19.07c-2.124 0-3.852-1.777-3.852-3.961h1.117c0 1.57 1.227 2.846 2.735 2.846h24.537c1.509 0 2.736-1.277 2.736-2.846V3.978c0-1.57-1.227-2.847-2.736-2.847H19.07c-1.508 0-2.735 1.277-2.735 2.847v.894h-1.117v-.894c0-2.185 1.728-3.962 3.852-3.962h24.537c2.124 0 3.852 1.777 3.852 3.962v17.536c0 2.184-1.728 3.961-3.852 3.961"/><path d="M13.31 6.37C7.035 6.37 0 9.67 0 13.743c0 4.072 7.034 7.374 13.31 7.374 6.278 0 9.419-3.302 9.419-7.374 0-4.073-3.14-7.375-9.418-7.375m1.88 11.493a4.121 4.121 0 0 1-4.125-4.118 4.122 4.122 0 0 1 4.125-4.12 4.122 4.122 0 0 1 4.124 4.12 4.121 4.121 0 0 1-4.124 4.118m8.929-6.203c.554.54 1.157.816 2.012.816.73 0 1.258-.276 1.258-.816 0-.452-.34-.59-.78-.628l-1.132-.1c-1.056-.088-1.835-.715-1.835-1.808 0-1.293 1.03-1.959 2.376-1.959 1.12 0 1.874.34 2.502.867l-.792.929c-.503-.351-1.018-.59-1.71-.59-.817 0-1.094.326-1.094.766 0 .276.202.552.843.602l1.056.076c1.32.088 1.848.891 1.848 1.908 0 1.243-1.156 1.959-2.64 1.959-1.031 0-1.987-.377-2.804-1.143l.893-.879zm9.363 1.382h-.025c-.264.439-.704.64-1.572.64-1.42 0-2.25-.841-2.25-1.946 0-1.017.704-1.884 2.074-1.884h1.773v-.665c0-.603-.39-.816-1.308-.816-.666 0-.98.125-1.207.49l-1.006-.767c.49-.678 1.195-.929 2.15-.929 1.572 0 2.653.527 2.653 2.097v4.344h-1.282v-.565zm0-2.135h-1.534c-.754 0-1.106.301-1.106.766 0 .427.339.803 1.207.803 1.068 0 1.433-.113 1.433-1.105v-.464zm3.202-2.571h-.642v-.979h.642v-.841c0-1.193.741-1.733 1.735-1.733h.83v1.205h-.73c-.415 0-.553.139-.553.528v.841h1.282v.98h-1.282v5.386h-1.282V8.334zm3.845 2.571c0 1.042.641 1.57 1.521 1.57.49 0 1.018-.227 1.396-.616l.93.791c-.629.728-1.446 1.03-2.301 1.03-1.307 0-2.829-.628-2.829-3.24 0-2.473 1.396-3.277 2.628-3.277 1.408 0 2.628 1.043 2.628 2.687v1.055H40.53zm2.69-1.055c-.038-.967-.59-1.481-1.345-1.481-.754 0-1.32.514-1.345 1.481h2.69zM24.029 19.2l2.929-3.87H24.19v-1.036h4.197v.933l-2.928 3.8h2.928v1.105H24.03zm5.579-4.217c.323-.357.865-.749 1.776-.749.91 0 1.453.392 1.776.749.45.495.634.978.634 2.234 0 1.266-.185 1.75-.634 2.245-.323.357-.865.748-1.776.748s-1.453-.391-1.776-.748c-.45-.495-.634-.979-.634-2.245 0-1.256.185-1.74.634-2.234m2.722.852c-.174-.242-.542-.426-.946-.426-.404 0-.772.184-.946.426-.219.31-.288.541-.288 1.382 0 .852.07 1.082.288 1.393.174.242.542.426.946.426.404 0 .772-.184.946-.426.219-.31.288-.541.288-1.382 0-.852-.07-1.082-.288-1.393m2.251-1.531h1.176v.622h.023c.37-.461.9-.692 1.522-.692.911 0 1.949.703 1.949 2.027v3.88h-1.176v-3.477c0-.794-.496-1.255-1.153-1.255-.67 0-1.165.46-1.165 1.255v3.478h-1.176v-5.838zm5.982 3.362c0 .956.588 1.439 1.395 1.439.45 0 .934-.207 1.28-.564l.853.725c-.576.668-1.326.944-2.11.944-1.2 0-2.594-.575-2.594-2.97 0-2.269 1.28-3.006 2.41-3.006 1.291 0 2.41.956 2.41 2.464v.968h-3.644zm2.467-.968c-.034-.886-.541-1.358-1.234-1.358-.691 0-1.21.472-1.233 1.358h2.467z"/></g></svg>