<svg width="45" height="26" viewBox="0 0 45 26" xmlns="http://www.w3.org/2000/svg"><title>Fill 1</title><path d="M14.135 16.088c-.123.28-.147.463-.16.841h2.803c-.012-.378-.049-.56-.172-.84-.197-.463-.639-.78-1.23-.78-.59 0-1.044.317-1.241.78zM6.153 8.411c0-.974-.136-1.936-1.266-1.936-1.132 0-1.279.962-1.279 1.936s.147 1.937 1.279 1.937c1.13 0 1.266-.963 1.266-1.937zm8.232-.39h2.803c-.012-.377-.049-.56-.171-.84-.197-.463-.64-.78-1.23-.78s-1.045.317-1.242.78c-.123.28-.147.463-.16.84zm6.159 0h2.803c-.012-.377-.05-.56-.172-.84-.197-.463-.64-.78-1.23-.78s-1.044.317-1.241.78c-.123.28-.148.463-.16.84zm20.245 2.775s-.138 4.826-1.516 6.69c-1.247 1.687-3.171 2.465-4.34 2.029.002-.004.004-.005.006-.007 2.032-2.32 3.73-6.357 3.73-6.357s-1.39 1.894-2.82 4.1c-.425.655-1.205 1.792-1.405 1.96-.955-.871-.984-3.05.498-4.693 1.683-1.864 5.847-3.722 5.847-3.722zm-5.227 1.94c-.09-.153-.299-.592-.38-.763-.402-.839-1.078-3.566-1.078-3.566s.176 2.498 1.068 4.412c0 .001.002.002.002.005-.855.016-1.918-.92-2.334-2.29-.46-1.517.563-4.662.563-4.662s2.26 2.14 2.916 3.724c.58 1.396.06 2.792-.757 3.14zm-4.721 7.786h-1.255v-3.788c0-.938-.553-1.352-1.253-1.352-.701 0-1.266.427-1.266 1.352v3.788h-1.254V11.85h1.254v3.118a2.15 2.15 0 0 1 1.61-.694c1.39 0 2.164.925 2.164 2.265v3.983zm-.008-8.908H29.58V7.851c0-.962-.553-1.376-1.254-1.376-.7 0-1.29.426-1.29 1.376v3.763H25.78V5.44h1.23v.62c.43-.462 1.032-.693 1.66-.693.639 0 1.167.206 1.536.56.48.462.627 1.047.627 1.741v3.946zM24.59 8.886h-4.045c0 1.06.566 1.73 1.586 1.73.7 0 1.07-.195 1.512-.634l.799.743c-.639.634-1.241.963-2.336.963-1.561 0-2.803-.817-2.803-3.167 0-1.998 1.046-3.154 2.643-3.154 1.672 0 2.644 1.217 2.644 2.971v.548zm-6.159 0h-4.045c0 1.06.566 1.73 1.587 1.73.7 0 1.069-.195 1.512-.634l.799.743c-.64.634-1.242.963-2.336.963-1.562 0-2.803-.817-2.803-3.167 0-1.998 1.045-3.154 2.643-3.154 1.672 0 2.643 1.217 2.643 2.971v.548zm-5.123-2.935l-.947.938c-.282-.28-.504-.414-.934-.414-.676 0-1.242.536-1.242 1.388v3.751H8.93V5.44h1.23v.67c.32-.44.958-.743 1.66-.743.602 0 1.057.158 1.487.584zM8.26 14.456h.713v-1.875h1.253v1.875h1.206v.95h-1.206v3.338c0 .45.222.718.689.718h.517v1.06h-.75c-1.169 0-1.71-.828-1.71-1.717v-3.398H8.26v-.95zm-.854-2.878c0 1.51-1.008 2.606-2.668 2.606-.947 0-1.549-.219-2.2-.816l.798-.792c.394.366.738.549 1.353.549 1.057 0 1.463-.743 1.463-1.572v-.791c-.455.536-.972.706-1.61.706-.628 0-1.144-.207-1.488-.548-.603-.597-.701-1.461-.701-2.509 0-1.047.098-1.912.7-2.509.345-.34.874-.535 1.5-.535.664 0 1.169.17 1.636.73V5.44h1.217v6.138zm5.327 5.85c0-1.997 1.045-3.154 2.643-3.154 1.671 0 2.643 1.218 2.643 2.972v.547h-4.045c0 1.06.566 1.73 1.586 1.73.7 0 1.07-.194 1.512-.633l.8.743c-.64.633-1.243.962-2.337.962-1.561 0-2.802-.816-2.802-3.167zm6.711 0c0-2.314 1.377-3.154 2.778-3.154.861 0 1.463.244 2.053.865l-.86.828c-.394-.427-.701-.585-1.193-.585-.479 0-.885.195-1.155.548-.27.341-.37.78-.37 1.498 0 .72.1 1.17.37 1.51.27.354.676.549 1.155.549.492 0 .8-.158 1.193-.585l.86.816c-.59.621-1.192.877-2.053.877-1.401 0-2.778-.853-2.778-3.167zm24.615-4.464c0-4.318-3.344-7.818-10.023-7.847V3.63C34.037 1.626 32.453 0 30.498 0H4.132C2.177 0 .592 1.626.592 3.631v18.7c0 2.005 1.585 3.63 3.54 3.63h26.366c1.955 0 3.539-1.625 3.539-3.63V20.81c6.679-.03 10.023-3.53 10.023-7.846z" fill="#81A638" fill-rule="evenodd"/></svg>