<svg width="39" height="26" viewBox="0 0 39 26" xmlns="http://www.w3.org/2000/svg"><title>Fill 1</title><g fill="none" fill-rule="evenodd"><path d="M32.106 5.055v-.903c0-.8-.313-1.523-.819-2.044a2.718 2.718 0 0 0-1.955-.834H4.453a2.72 2.72 0 0 0-1.955.834 2.925 2.925 0 0 0-.819 2.044V21.86c0 .8.313 1.523.82 2.044.5.515 1.191.834 1.954.834h24.879a2.72 2.72 0 0 0 1.955-.834 2.924 2.924 0 0 0 .819-2.044v-1.086h1.132v1.086a4.032 4.032 0 0 1-1.138 2.817 3.847 3.847 0 0 1-2.768 1.18H4.453c-1.082 0-2.06-.45-2.768-1.18A4.034 4.034 0 0 1 .548 21.86V4.152c0-1.098.434-2.094 1.137-2.818A3.847 3.847 0 0 1 4.453.154h24.879c1.081 0 2.06.451 2.768 1.18a4.033 4.033 0 0 1 1.138 2.818v.903h-1.132z" fill="#E6D03A"/><path d="M7.643 5.036H5.63v2.762h2.014a1.4 1.4 0 0 0 .986-.406 1.365 1.365 0 0 0 0-1.95 1.4 1.4 0 0 0-.986-.406zm-.45-1.065h.45c.68 0 1.3.275 1.747.718.448.443.727 1.055.727 1.728s-.279 1.285-.727 1.728a2.48 2.48 0 0 1-1.747.718H5.63v3.163H4.552V3.971h2.64zm6.88 1.065h-2.036v2.506h2.036a1.5 1.5 0 0 0 1.014-.38c.246-.226.399-.535.399-.873 0-.338-.153-.647-.399-.872a1.5 1.5 0 0 0-1.014-.381zm-.455-1.065h.455a2.58 2.58 0 0 1 1.742.668c.461.422.748 1.006.748 1.65 0 .644-.287 1.228-.748 1.65a2.56 2.56 0 0 1-.883.524l1.91 3.563h-1.38L13.74 8.607h-1.702v3.42H10.96V3.97h2.658zm7.832 1.577a1.767 1.767 0 0 0-2.488 0c-.32.316-.517.751-.517 1.23V9.21c0 .48.198.914.517 1.23a1.765 1.765 0 0 0 2.488 0c.32-.316.518-.75.518-1.23V6.778c0-.479-.199-.914-.518-1.23M20.206 3.97c.781 0 1.491.315 2.005.824.514.508.833 1.21.833 1.983V9.21c0 .773-.319 1.475-.833 1.984a2.846 2.846 0 0 1-2.005.824c-.78 0-1.49-.316-2.005-.824a2.785 2.785 0 0 1-.833-1.984V6.778c0-.773.32-1.475.833-1.983a2.846 2.846 0 0 1 2.005-.824M5.553 14.294l.005 6.09a.373.373 0 0 0 .361.281h.609v.994h-.609a1.379 1.379 0 0 1-1.356-1.144l-.006-.035v-.044l-.005-6.142h1.001zm5.368 2.951a1.268 1.268 0 0 0-2.16.884v.148h2.533v-.148a1.24 1.24 0 0 0-.373-.884m-.893-1.363c.625 0 1.193.253 1.604.66.411.407.667.968.667 1.587v1.142H8.76v.28c.012.314.187.61.444.833.266.23.613.375.956.375.042 0 .036.002.047.002a1.99 1.99 0 0 0 .773-.177c.198-.093.37-.229.503-.41l.813.582a2.317 2.317 0 0 1-.884.722 2.976 2.976 0 0 1-1.166.273l-.086.003a2.517 2.517 0 0 1-1.616-.624c-.452-.392-.762-.938-.786-1.54l-.003-.076V18.13c0-.619.255-1.18.667-1.587.411-.407.98-.66 1.605-.66m7.877 4.867a2.32 2.32 0 0 1-.883.722 2.984 2.984 0 0 1-1.167.273l-.086.002c-.588 0-1.174-.24-1.616-.623-.452-.393-.762-.94-.786-1.54l-.003-.076v-1.385l.003-.076c.024-.602.334-1.148.786-1.54a2.515 2.515 0 0 1 1.616-.625l.086.004a2.98 2.98 0 0 1 1.167.273c.347.165.649.403.883.721l-.813.583a1.32 1.32 0 0 0-.503-.411 1.993 1.993 0 0 0-.773-.176h-.047c-.343 0-.69.145-.956.376-.543.471-.444.939-.444 1.563 0 .625-.1 1.092.444 1.563.266.23.613.375.956.375.042 0 .035.002.047.001.283-.01.547-.068.773-.176.198-.093.37-.23.503-.41l.813.581z" fill="#070808"/><path fill="#E6D03A" d="M30.183 14.898h3.846v-3.78h-3.846z"/><path fill="#070808" d="M30.183 10.134h3.846V6.353h-3.846zm0 9.529h3.846v-3.78h-3.846zm4.806-4.765h3.846v-3.78H34.99zm0-4.764h3.846V6.353H34.99zm0 9.529h3.846v-3.78H34.99zm-9.612-4.765h3.847v-3.78h-3.847zm0-4.764h3.847V6.353h-3.847zm0 9.529h3.847v-3.78h-3.847zM20.046 13.5v2.945l.005-.004c.388-.325.853-.672 1.372-.68h.019l.004-.002c1.049 0 1.962.536 1.981 1.974v.019l.003.004v3.751h-1.005V18.08l.001-.167c-.097-1.073-1.477-1.47-2.38-.356v3.951H18.97V13.5h1.076z"/></g></svg>