<?xml version="1.0" encoding="UTF-8"?>
<svg width="521px" height="157px" viewBox="0 0 521 157" version="1.1" xmlns="http://www.w3.org/2000/svg" xmlns:xlink="http://www.w3.org/1999/xlink">
    <!-- Generator: Sketch 46 (44423) - http://www.bohemiancoding.com/sketch -->
    <title>Group</title>
    <desc>Created with Sketch.</desc>
    <defs></defs>
    <g id="Page-1" stroke="none" stroke-width="1" fill="none" fill-rule="evenodd">
        <g id="404" transform="translate(-80.000000, -272.000000)">
            <g id="Group" transform="translate(80.000000, 272.000000)">
                <rect id="Rectangle-24" fill="#FFFFFF" x="0" y="20" width="521" height="110"></rect>
                <path d="M65,117.696888 L65,95.1772666 L123.672451,2.54939107 L169.164859,2.54939107 L169.164859,86.8917456 L187.234273,86.8917456 L187.234273,117.696888 L169.164859,117.696888 L169.164859,154.450609 L132.388286,154.450609 L132.388286,117.696888 L65,117.696888 Z M102.839479,86.8917456 L132.388286,86.8917456 L132.388286,52.8998647 C132.388286,44.6143437 133.663774,35.9039242 133.663774,35.9039242 L133.238612,35.9039242 C133.238612,35.9039242 130.049892,45.2516915 125.798265,51.6251691 L102.839479,86.4668471 L102.839479,86.8917456 Z M262.062907,157 C218.908894,157 204.878525,121.733424 204.878525,78.1813261 C204.878525,34.6292287 218.908894,0 262.062907,0 C305.21692,0 319.247289,34.6292287 319.247289,78.1813261 C319.247289,121.733424 305.21692,157 262.062907,157 Z M262.062907,123.008119 C276.73102,123.008119 280.982646,103.037889 280.982646,78.1813261 C280.982646,53.5372124 276.73102,33.9918809 262.062907,33.9918809 C247.394794,33.9918809 243.143167,53.5372124 243.143167,78.1813261 C243.143167,103.037889 247.394794,123.008119 262.062907,123.008119 Z M334.765727,117.696888 L334.765727,95.1772666 L393.438178,2.54939107 L438.930586,2.54939107 L438.930586,86.8917456 L457,86.8917456 L457,117.696888 L438.930586,117.696888 L438.930586,154.450609 L402.154013,154.450609 L402.154013,117.696888 L334.765727,117.696888 Z M372.605206,86.8917456 L402.154013,86.8917456 L402.154013,52.8998647 C402.154013,44.6143437 403.429501,35.9039242 403.429501,35.9039242 L403.004338,35.9039242 C403.004338,35.9039242 399.815618,45.2516915 395.563991,51.6251691 L372.605206,86.4668471 L372.605206,86.8917456 Z" id="404" fill="#F52341"></path>
            </g>
        </g>
    </g>
</svg>