<?xml version="1.0" encoding="UTF-8"?>
<svg width="68px" height="60px" viewBox="0 0 68 60" version="1.1" xmlns="http://www.w3.org/2000/svg" xmlns:xlink="http://www.w3.org/1999/xlink">
    <!-- Generator: Sketch 46 (44423) - http://www.bohemiancoding.com/sketch -->
    <title>Group 14</title>
    <desc>Created with Sketch.</desc>
    <defs></defs>
    <g id="Page-1" stroke="none" stroke-width="1" fill="none" fill-rule="evenodd">
        <g id="4-Catalog-in-" transform="translate(-80.000000, -1019.000000)">
            <g id="Group-14" transform="translate(80.000000, 1019.000000)">
                <rect id="Rectangle-16-Copy-22" fill="#FFFFFF" x="0" y="0" width="68" height="60"></rect>
                <g id="noun_974855_cc" transform="translate(16.000000, 9.000000)" fill-rule="nonzero" fill="#D8D8D8">
                    <path d="M35.9637534,8.74565229 C35.9353616,8.42622097 35.7249507,8.15196016 35.4237707,8.04180993 C35.1225907,7.9316597 34.7848845,8.00545823 34.5571067,8.23120094 L29.9054593,12.8792509 L24.7537507,11.2495553 L23.11686,6.09424919 L27.7685075,1.43900414 C27.9917286,1.21147313 28.0644098,0.875954428 27.9553577,0.576445341 C27.8463057,0.276936253 27.5749123,0.0666959652 27.2576537,0.0359550156 C23.9806823,-0.248644132 20.7873328,1.17035905 18.8023118,3.7931877 C16.8172907,6.41601635 16.3190526,9.87474585 17.4830781,12.9512021 C17.3427732,13.0699216 17.2024683,13.1958363 17.065761,13.3289461 L1.53148884,27.978218 L1.53148884,27.978218 C0.256679111,29.1367976 -0.278030114,30.9023714 0.139774715,32.5735643 C0.557579544,34.2447572 1.86024981,35.5509789 3.53029899,35.9733321 C5.20034817,36.3956853 6.96737125,35.865785 8.1294173,34.5941343 L8.15100267,34.5725489 L22.6707623,18.9303499 C22.7975056,18.7985293 22.9175744,18.6604501 23.0305185,18.5166303 C26.1083943,19.6883896 29.5725944,19.1944728 32.2003512,17.2092189 C34.8281081,15.223965 36.2498547,12.0265798 35.9637534,8.74565229 Z M5.79100209,32.6442557 C5.29832465,33.1375273 4.55696892,33.2853404 3.91278626,33.0187386 C3.2686036,32.7521367 2.84852684,32.1236524 2.84852684,31.426481 C2.84852684,30.7293097 3.2686036,30.1008254 3.91278626,29.8342235 C4.55696892,29.5676217 5.29832465,29.7154348 5.79100209,30.2087064 C6.46298744,30.881502 6.46298744,31.9714601 5.79100209,32.6442557 Z" id="Shape"></path>
                </g>
            </g>
        </g>
    </g>
</svg>