<?xml version="1.0" encoding="UTF-8"?>
<svg width="68px" height="60px" viewBox="0 0 68 60" version="1.1" xmlns="http://www.w3.org/2000/svg" xmlns:xlink="http://www.w3.org/1999/xlink">
    <!-- Generator: Sketch 46 (44423) - http://www.bohemiancoding.com/sketch -->
    <title>Group 11</title>
    <desc>Created with Sketch.</desc>
    <defs></defs>
    <g id="Page-1" stroke="none" stroke-width="1" fill="none" fill-rule="evenodd">
        <g id="4-Catalog-in-" transform="translate(-80.000000, -909.000000)">
            <g id="Group-11" transform="translate(80.000000, 909.000000)">
                <rect id="Rectangle-16-Copy-19" fill="#FFFFFF" x="0" y="0" width="68" height="60"></rect>
                <g id="noun_739567_cc" transform="translate(16.000000, 12.000000)" fill-rule="nonzero" fill="#D8D8D8">
                    <path d="M0,36 L36,36 L36,0 L0,0 L0,36 Z M3,3 L33,3 L33,33 L3,33 L3,3 Z" id="Shape"></path>
                    <path d="M5,31 L17,31 L17,5 L5,5 L5,31 Z M7,7 L15,7 L15,29 L7,29 L7,7 Z" id="Shape"></path>
                    <path d="M19,31 L31,31 L31,5 L19,5 L19,31 Z M21,7 L29,7 L29,29 L21,29 L21,7 Z" id="Shape"></path>
                </g>
            </g>
        </g>
    </g>
</svg>