<?xml version="1.0" encoding="UTF-8"?>
<svg width="50px" height="50px" viewBox="0 0 50 50" version="1.1" xmlns="http://www.w3.org/2000/svg" xmlns:xlink="http://www.w3.org/1999/xlink">
    <!-- Generator: Sketch 45.2 (43514) - http://www.bohemiancoding.com/sketch -->
    <title>Combined Shape</title>
    <desc>Created with Sketch.</desc>
    <defs></defs>
    <g id="Page-1" stroke="none" stroke-width="1" fill="none" fill-rule="evenodd">
        <g id="8-Services-Copy-2" transform="translate(-812.000000, -685.000000)" fill="#F42341">
            <path d="M846.25,703.5 C845.559644,703.5 845,702.940356 845,702.25 C845,701.559644 845.559644,701 846.25,701 C846.940356,701 847.5,701.559644 847.5,702.25 C847.5,702.940356 846.940356,703.5 846.25,703.5 Z M821.755031,720.373451 L821.755031,715.211244 L825.946039,715.211244 L825.946039,720.373451 L821.755031,720.373451 Z M821.755031,712.711808 L825.946039,712.711808 L825.946039,707.549601 L821.755031,707.549601 L821.755031,712.711808 Z M821.755031,705.050518 L825.946039,705.050518 L825.946039,699.88831 L821.755031,699.88831 L821.755031,705.050518 Z M828.275083,720.373451 L832.466091,720.373451 L832.466091,715.211244 L828.275083,715.211244 L828.275083,720.373451 Z M828.275083,712.711808 L832.466091,712.711808 L832.466091,707.549601 L828.275083,707.549601 L828.275083,712.711808 Z M828.275083,705.050518 L832.466091,705.050518 L832.466091,699.88831 L828.275083,699.88831 L828.275083,705.050518 Z M834.556303,720.373451 L838.747312,720.373451 L838.747312,715.211244 L834.556303,715.211244 L834.556303,720.373451 Z M834.556303,712.711808 L838.747312,712.711808 L838.747312,707.549601 L834.556303,707.549601 L834.556303,712.711808 Z M834.556303,705.050518 L838.747312,705.050518 L838.747312,699.88831 L834.556303,699.88831 L834.556303,705.050518 Z M846.255849,697.942384 C849.573378,697.942384 852.262961,700.631615 852.262961,703.949496 C852.262961,706.445404 850.740369,708.585711 848.573604,709.493057 L848.573604,718.698459 C848.573604,720.69836 847.620749,722.319377 846.445997,722.319377 C845.270892,722.319377 844.318037,720.69836 844.318037,718.698459 L844.318037,717.984788 L842.807439,717.984788 L842.807439,713.292129 L844.318037,713.292129 L844.318037,709.636991 C841.951246,708.830892 840.248384,706.589338 840.248384,703.949496 C840.248384,700.631615 842.937967,697.942384 846.255849,697.942384 L846.255849,697.942384 Z M812,735 L862,735 L862,685 L812,685 L812,735 Z" id="Combined-Shape"></path>
        </g>
    </g>
</svg>