<?xml version="1.0" encoding="UTF-8"?>
<svg width="50px" height="51px" viewBox="0 0 50 51" version="1.1" xmlns="http://www.w3.org/2000/svg" xmlns:xlink="http://www.w3.org/1999/xlink">
    <!-- Generator: Sketch 45.2 (43514) - http://www.bohemiancoding.com/sketch -->
    <title>Fill 1</title>
    <desc>Created with Sketch.</desc>
    <defs></defs>
    <g id="Page-1" stroke="none" stroke-width="1" fill="none" fill-rule="evenodd">
        <g id="8-Services-Copy-2" transform="translate(-812.000000, -524.000000)" fill="#F42341">
            <g id="Page-1" transform="translate(812.000000, 524.000000)">
                <path d="M16.7243728,25.5016897 C16.7243728,25.0715709 16.7667936,24.6522311 16.8380744,24.2429749 C16.7716615,24.2516677 16.7052487,24.262099 16.6388358,24.262099 C16.4145621,24.262099 16.190636,24.2137672 15.9795753,24.1171034 L11.6533517,22.1344538 C10.8536158,21.7686615 10.4784353,20.7947223 10.8171061,19.9636923 C10.9867892,19.547482 11.3202443,19.2154177 11.7315867,19.0523411 C12.1377135,18.8913508 12.5796545,18.903173 12.976393,19.0846783 L17.3026166,21.0666325 C17.5428851,21.176857 17.7389943,21.3461923 17.8947689,21.5454309 C18.3735673,20.813151 18.9803235,20.1803165 19.6827003,19.6851756 C19.4573834,19.5161879 19.2706624,19.295739 19.1545268,19.0321739 L17.1621413,14.5046254 C16.8015647,13.6847223 17.1496237,12.7010471 17.9378851,12.3116105 C18.3297557,12.118283 18.7720445,12.0932478 19.1830392,12.2427636 C19.5985541,12.3936703 19.940702,12.7159987 20.1218596,13.1276888 L22.1138974,17.6555849 C22.2498526,17.9653957 22.284276,18.2981554 22.2328147,18.6138772 C22.6052135,18.5453781 22.9856096,18.5029573 23.3760893,18.5029573 C23.5541175,18.5029573 23.7304071,18.5102592 23.9049582,18.5248631 L24.6956536,18.591276 L24.6956536,32.4121034 L23.9049582,32.478864 C23.7304071,32.4931202 23.5541175,32.5011175 23.3760893,32.5011175 C22.9856096,32.5011175 22.6048658,32.458349 22.232467,32.3898499 C22.284276,32.7055717 22.2498526,33.0383314 22.1138974,33.3481422 L20.1218596,37.876386 C19.9403543,38.2884239 19.5978587,38.6100568 19.181996,38.7616589 C19.0046633,38.8256378 18.8210717,38.8572795 18.638871,38.8572795 C18.3986026,38.8572795 18.1600726,38.8019934 17.9378851,38.6924643 C17.149276,38.3019846 16.801217,37.3183094 17.162489,36.498754 L19.1545268,31.9708578 C19.2703147,31.7076404 19.4570357,31.4871915 19.6823526,31.3185515 C18.9803235,30.8230629 18.3739151,30.1905761 17.8947689,29.4582962 C17.7389943,29.6578825 17.5428851,29.8268702 17.3026166,29.9370946 L12.9756976,31.9190489 C12.7649846,32.0157126 12.5414063,32.0643922 12.3171325,32.0643922 C12.1196325,32.0643922 11.9214371,32.0261439 11.731239,31.9510383 C11.3198966,31.7883094 10.9867892,31.4562452 10.8171061,31.0400348 C10.4784353,30.2086571 10.8536158,29.2347179 11.6536994,28.8685779 L15.9802707,26.886276 C16.2528763,26.7607522 16.5477355,26.722504 16.8377267,26.7600568 C16.7667936,26.3511483 16.7243728,25.9318085 16.7243728,25.5016897 L16.7243728,25.5016897 Z M26.3615383,13.1718482 C26.3615383,11.6704309 27.3646853,11.5567293 27.5660101,11.5490797 C28.0329864,11.5379529 28.3490559,11.7271078 28.5232592,11.8947047 C28.8254203,12.1853913 28.9220841,12.5692645 28.949901,12.8985471 C29.2503235,12.432614 29.7750198,11.8227284 30.5413754,12.1078517 C30.8758737,12.23268 31.122401,12.4799027 31.2340163,12.8043173 C31.4290823,13.3672619 31.1516087,13.934379 30.8883913,14.3655409 L28.9610277,17.5248455 L28.9610277,22.1806994 L31.611283,19.2922619 L31.9440427,15.4691765 C32.0598305,14.1235339 32.9176342,13.9938376 33.2417011,13.9938376 C33.5160453,13.9816677 33.8272469,14.0998895 34.0341351,14.3179045 C34.4430436,14.7466325 34.3773261,15.3582566 34.3289943,15.8043702 L34.2657108,16.4191237 L34.3536818,16.3179397 C35.0797029,15.4792601 35.7288798,15.4639608 36.0491219,15.530026 C36.4427311,15.6099996 36.751151,15.8850392 36.873893,16.2654353 C36.9684705,16.5557742 37.0261906,17.1507082 36.3638006,17.8690797 L36.0171325,18.2442601 L36.5696457,18.15768 C36.9611686,18.0961351 37.5922645,17.9959943 38.0453323,18.4038596 C38.2929027,18.6256994 38.4194696,18.9389872 38.4027795,19.2870462 C38.41182,19.5019318 38.3370621,20.4317117 37.0390559,20.6027857 L33.5761994,21.0603737 L30.6769828,24.15257 L35.0779643,24.1494406 L37.8582636,22.0266633 C38.0936642,21.8468966 38.7167628,21.3736615 39.3721985,21.5868085 C39.7226915,21.7008578 39.9890383,21.9863288 40.1030876,22.3691589 C40.3621325,23.2422619 39.5196281,23.8511043 39.2025154,24.0805938 L39.1100242,24.1480497 C39.3388182,24.1522223 39.6528015,24.1849071 39.9452267,24.3535471 C40.3266659,24.5447883 40.5763226,24.9373543 40.5905788,25.4081554 L40.5919696,25.4533578 L40.5905788,25.4898675 C40.5919696,25.5246386 40.5912742,25.5604529 40.5905788,25.597658 C40.5763226,26.0660251 40.3266659,26.4582434 39.9041967,26.6713904 C39.7129555,26.7833534 39.4483473,26.8483754 39.1100242,26.8553297 L39.1597469,26.8918393 C39.5196281,27.1519274 40.3621325,27.7604221 40.103783,28.632482 C39.9890383,29.0167029 39.7226915,29.3021739 39.3721985,29.4162232 C38.7167628,29.6279793 38.0929688,29.1554397 37.8593068,28.9770638 L35.0779643,26.8528957 L30.6769828,26.8497663 L33.5761994,29.9423103 L37.0397513,30.4005938 C38.3370621,30.5702768 38.41182,31.5007522 38.4038226,31.7820506 C38.4205128,32.0643922 38.2929027,32.3780277 38.0446369,32.5998675 C37.5887874,33.0091237 36.9549098,32.907592 36.5783385,32.8463948 L36.0171325,32.7577284 L36.3638006,33.1332566 C37.026886,33.8530189 36.9684705,34.4476052 36.873893,34.7375964 C36.751151,35.1179925 36.4427311,35.3930321 36.0491219,35.4730057 C35.7295753,35.5387232 35.0810938,35.5237716 34.3536818,34.6854397 L34.2657108,34.583908 L34.3209969,35.1211219 C34.3773261,35.6451228 34.4430436,36.2560515 34.0341351,36.6858226 C33.8185541,36.9125304 33.5285629,37.0196254 33.2013666,37.0084987 C33.0007372,37.0018922 32.0646985,36.9434767 31.9440427,35.5324643 L31.611283,31.7107698 L28.9610277,28.82268 L28.9610277,33.4781862 L30.8883913,36.6374908 C31.1516087,37.0686527 31.4290823,37.6354221 31.2340163,38.1987143 C31.122401,38.5227813 30.8765691,38.7703517 30.5413754,38.8955277 C29.7645885,39.1872575 29.2318948,38.5481642 28.949901,38.1069186 C28.9213886,38.4358534 28.8254203,38.8176404 28.5232592,39.1086747 C28.3563578,39.2689696 28.0677575,39.4549952 27.6268596,39.4549952 C27.6063446,39.4549952 27.5858297,39.4549952 27.5653147,39.4542997 C27.3639899,39.4463024 26.3615383,39.3305145 26.3615383,37.8311835 L26.3615383,13.1718482 Z M0.000173855634,50.6246871 L50.0001739,50.6246871 L50.0001739,0.62468706 L0.000173855634,0.62468706 L0.000173855634,50.6246871 Z" id="Fill-1"></path>
            </g>
        </g>
    </g>
</svg>