<?xml version="1.0" encoding="UTF-8"?>
<svg width="50px" height="50px" viewBox="0 0 50 50" version="1.1" xmlns="http://www.w3.org/2000/svg" xmlns:xlink="http://www.w3.org/1999/xlink">
    <!-- Generator: Sketch 45.2 (43514) - http://www.bohemiancoding.com/sketch -->
    <title>Page 1 Copy</title>
    <desc>Created with Sketch.</desc>
    <defs></defs>
    <g id="Page-1" stroke="none" stroke-width="1" fill="none" fill-rule="evenodd">
        <g id="8-Services-Copy-2" transform="translate(-422.000000, -685.000000)" fill="#F42341">
            <path d="M422,685 L472,685 L472,735 L422,735 L422,685 Z M450.414156,719.525472 C447.270206,719.525472 444.406115,717.86255 442.756787,715.21257 L454.397296,715.21257 L455.200156,711.376936 L441.404066,711.376936 C441.355814,710.988881 441.331284,710.601195 441.331284,710.214021 C441.331284,709.920609 441.345359,709.626389 441.373131,709.331172 L455.628606,709.331172 L456.300375,706.120109 L456.31134,706.013023 L456.31134,705.495539 L442.587094,705.495539 C444.201023,702.688828 447.155053,700.902569 450.414156,700.902569 C452.540303,700.902569 454.55631,701.657818 456.170676,703.01725 L456.833125,703.575088 L457.723242,699.321532 L457.431293,699.127576 C455.353367,697.747106 452.935173,697 450.414156,697 C445.015637,697 440.245658,700.436271 438.349763,705.495539 L434.03843,705.495539 L433.218336,709.331172 L437.525317,709.331172 C437.505483,709.627923 437.495403,709.921929 437.495403,710.214021 C437.495403,710.598746 437.513064,710.985843 437.547711,711.376936 L434.095126,711.376936 L433.292266,715.21257 L438.457566,715.21257 C440.426354,720.12625 445.122141,723.428322 450.414156,723.428322 C452.713093,723.428322 454.927562,722.807969 456.878874,721.648417 L457.132001,721.497999 L457.132001,716.569226 L456.274959,717.31446 C454.642856,718.733645 452.586476,719.525472 450.414156,719.525472 Z" id="Page-1-Copy"></path>
        </g>
    </g>
</svg>