<?xml version="1.0" encoding="UTF-8"?>
<svg width="50px" height="51px" viewBox="0 0 50 51" version="1.1" xmlns="http://www.w3.org/2000/svg" xmlns:xlink="http://www.w3.org/1999/xlink">
    <!-- Generator: Sketch 45.2 (43514) - http://www.bohemiancoding.com/sketch -->
    <title>Page 1</title>
    <desc>Created with Sketch.</desc>
    <defs></defs>
    <g id="Page-1" stroke="none" stroke-width="1" fill="none" fill-rule="evenodd">
        <g id="8-Services-Copy-2" transform="translate(-812.000000, -845.000000)" fill="#F42341">
            <g id="Page-1" transform="translate(812.000000, 845.000000)">
                <g>
                    <g id="Group-3" transform="translate(0.000000, 0.252784)">
                        <path d="M12.6378021,13.7619615 C15.3302034,13.7619615 18.9326639,12.3530001 21.1305425,10.9543987 C21.3228569,10.8300786 21.4567901,10.7299318 21.6491045,10.598705 C22.0268649,10.3397047 22.3634151,10.0876112 22.7549122,9.87350427 L23.2563033,10.2464646 C23.4486176,10.3776914 23.5825509,10.4674782 23.7748652,10.598705 C26.1822292,12.23904 29.8774126,13.7619615 32.7861676,13.7619615 L32.7861676,25.9556937 C32.7861676,27.8515756 32.7174839,29.3744971 32.0134759,30.5589916 C31.4056251,31.5846327 30.2826465,32.5964603 29.310772,33.2733143 L22.7549122,37.5347319 L21.4293166,36.7266511 L21.1305425,36.5436243 C18.9086246,35.0759561 14.8974961,32.941794 13.506651,30.7247518 C12.7408277,29.5022706 12.6378021,28.1071225 12.6378021,26.1352672 L12.6378021,13.7619615 Z M34.274887,31.934801 C34.9782081,30.7489251 35.046205,29.2277303 35.046205,27.3325391 L35.046205,15.1391522 L35.1629673,15.2102909 L35.1629673,15.1146335 L36.5194705,15.9392903 L36.5194705,15.9310023 L38.2976917,17.0122421 L38.2976917,29.2066649 C38.2976917,31.1015108 38.2293514,32.6227057 37.5263737,33.8085815 C36.9185229,34.8328412 35.7955443,35.8463956 34.8219527,36.5235949 L28.2681534,40.7825952 L27.9261085,40.574359 L27.6194358,40.3878788 L27.4806947,40.3036174 L27.2777343,40.1796426 L27.1389932,40.0953812 L26.9185185,39.9613917 L26.9116501,39.965881 L26.8707833,39.9413623 L26.7948878,39.9907451 L26.452843,39.7825088 L26.1465136,39.5956833 L26.0074291,39.5114219 L25.8044688,39.3874471 L25.6657277,39.3031857 L25.3590549,39.1170509 L25.0170101,38.9088146 L31.570466,34.649469 C32.544401,33.972615 33.6670362,32.9590607 34.274887,31.934801 L34.274887,31.934801 Z M0.00105831305,50.0922732 L49.9982361,50.0922732 L50,0.0922731589 L0,0.0922731589 L0.00105831305,50.0922732 Z" id="Fill-1"></path>
                    </g>
                    <path d="M22.5351243,29.7412415 C21.8998,29.7412415 21.3606329,29.5236813 20.9107547,29.0851075 C20.4643106,28.6465337 20.1895757,28.0145731 20.0865502,27.1857723 L16.8652843,27.5794526 C17.0301252,29.0540275 17.6311076,30.2419753 18.6613632,31.1502029 C19.6916188,32.0653371 20.9931751,32.5177243 22.5591636,32.5177243 C24.214441,32.5177243 25.5949835,31.9790037 26.7042254,30.8981093 C27.8134672,29.8206682 28.3732394,28.5118536 28.3732394,26.9820254 C28.3732394,25.9253043 28.0744653,25.0274368 27.4803512,24.2780627 C26.882803,23.5321419 26.0895062,23.0521281 25.0970266,22.8380212 C26.7660407,21.922887 27.5971135,20.6934991 27.5971135,19.1602176 C27.5971135,18.0758698 27.1884455,17.1020288 26.3779777,16.242148 C25.3923665,15.1888803 24.0839419,14.6674264 22.4527039,14.6674264 C21.5014345,14.6674264 20.6360198,14.8469999 19.8701965,15.2096003 C19.1043732,15.575654 18.4999565,16.0729345 18.0741175,16.7083484 C17.6414102,17.3437624 17.322031,18.1932833 17.1091115,19.256911 L20.1621022,19.7818182 C20.2479569,19.0186308 20.491784,18.4384702 20.8935837,18.0378831 C21.2953834,17.6407494 21.7796035,17.4439092 22.3496783,17.4439092 C22.9266215,17.4439092 23.3868023,17.616576 23.733655,17.965363 C24.0805077,18.3210567 24.252217,18.7872572 24.252217,19.3743244 C24.252217,20.0684451 24.0186924,20.6244324 23.548209,21.0388328 C23.0742914,21.4566865 22.3943227,21.6569801 21.4980003,21.6328067 L21.1305425,24.3436761 C21.7177882,24.1779159 22.2226135,24.0915825 22.6484524,24.0915825 C23.2940793,24.0915825 23.8366806,24.3402227 24.2865589,24.8305966 C24.733003,25.3209704 24.956225,25.9909177 24.956225,26.8335319 C24.956225,27.7244928 24.7227004,28.4324268 24.2590854,28.9538807 C23.788602,29.4787879 23.215093,29.7412415 22.5351243,29.7412415" id="Fill-4"></path>
                </g>
            </g>
        </g>
    </g>
</svg>