<?xml version="1.0" encoding="UTF-8"?>
<svg width="50px" height="51px" viewBox="0 0 50 51" version="1.1" xmlns="http://www.w3.org/2000/svg" xmlns:xlink="http://www.w3.org/1999/xlink">
    <!-- Generator: Sketch 45.2 (43514) - http://www.bohemiancoding.com/sketch -->
    <title>Group</title>
    <desc>Created with Sketch.</desc>
    <defs></defs>
    <g id="Page-1" stroke="none" stroke-width="1" fill="none" fill-rule="evenodd">
        <g id="8-Services-Copy-2" transform="translate(-422.000000, -844.000000)">
            <g id="noun_716642_cc" transform="translate(422.000000, 844.000000)">
                <g id="Group" transform="translate(0.000000, 0.362398)">
                    <polygon id="Fill-2-Copy" fill="#F42341" points="0 0.205784091 0 50.2057841 18.188553 50.2057841 25 50.2057841 32.0206446 50.2057841 50 50.2057841 50 0.205784091"></polygon>
                    <path d="M22.3009247,9.09090909 L21.609041,12.8801238 C20.0099263,13.3802893 18.5643095,14.2099 17.3328421,15.2822153 L13.7145534,13.895092 L10.6860465,18.8233266 L13.5897661,21.383302 C13.3619693,22.3010029 13.2381256,23.2600712 13.2381256,24.2477679 C13.2381256,25.2354538 13.3619693,26.1945582 13.5897661,27.1122338 L10.6860465,29.6721912 L13.7145534,34.6004438 L17.3328421,33.2133026 C18.5643095,34.2855781 20.0099626,35.1152357 21.609041,35.6154121 L22.3009247,39.4046268 L28.1083638,39.4046268 L28.8002476,35.6154121 C30.3993623,35.1152357 31.8449428,34.2855781 33.0764465,33.2133026 L36.6947352,34.6004438 L39.7232421,29.6721912 L36.830847,27.1009383 C37.0565023,26.1873045 37.171163,25.2307263 37.171163,24.2477679 C37.171163,23.2647626 37.0565023,22.3082927 36.830847,21.3945795 L39.7232421,18.8233266 L36.6947352,13.895092 L33.0764465,15.2822153 C31.8449428,14.2099 30.3993623,13.3802893 28.8002476,12.8801238 L28.1083638,9.09090909 L22.3009247,9.09090909 Z M25.2046443,16.0149112 C29.772678,16.0149112 33.4851207,19.7059825 33.4851207,24.2477679 C33.4851207,28.7894883 29.772678,32.4806246 25.2046443,32.4806246 C20.6366541,32.4806246 16.9241679,28.7894883 16.9241679,24.2477679 C16.9241679,19.7059739 20.6366541,16.0149112 25.2046443,16.0149112 Z" id="Shape" fill="#FFFFFF" fill-rule="nonzero"></path>
                    <path d="M25.296505,30.6818182 C21.7227052,30.6818182 18.825568,27.7927436 18.825568,24.2288894 C18.825568,20.6650353 21.7227052,17.7759607 25.296505,17.7759607 C28.8703047,17.7759607 31.7674419,20.6650353 31.7674419,24.2288894 C31.7674419,27.7927436 28.8703047,30.6818182 25.296505,30.6818182 Z M25.296505,28.6553765 C27.7480086,28.6553765 29.7353449,26.6735707 29.7353449,24.2288894 C29.7353449,21.7842082 27.7480086,19.8024024 25.296505,19.8024024 C22.8450013,19.8024024 20.857665,21.7842082 20.857665,24.2288894 C20.857665,26.6735707 22.8450013,28.6553765 25.296505,28.6553765 Z" id="Oval-3" fill="#FFFFFF" fill-rule="nonzero"></path>
                </g>
            </g>
        </g>
    </g>
</svg>