<svg width="50" height="51" viewBox="0 0 50 51" xmlns="http://www.w3.org/2000/svg"><title>noun_716642_cc copy</title><g fill="none" fill-rule="evenodd"><path fill="#F42341" d="M0 .568v50h50v-50z"/><path d="M22.3 9.453l-.691 3.79c-1.6.5-3.045 1.33-4.276 2.402l-3.618-1.388-3.029 4.929 2.904 2.56a11.875 11.875 0 0 0 0 5.729l-2.904 2.56 3.029 4.928 3.618-1.387a11.94 11.94 0 0 0 4.276 2.402l.692 3.789h5.807l.692-3.79c1.6-.5 3.045-1.329 4.276-2.401l3.619 1.387 3.028-4.928-2.892-2.572c.226-.913.34-1.87.34-2.853 0-.983-.114-1.94-.34-2.853l2.892-2.571-3.028-4.929-3.619 1.388a11.939 11.939 0 0 0-4.276-2.402l-.692-3.79h-5.807zm2.905 6.924c4.568 0 8.28 3.691 8.28 8.233 0 4.542-3.712 8.233-8.28 8.233s-8.28-3.691-8.28-8.233c0-4.542 3.712-8.233 8.28-8.233z" fill="#FFF" fill-rule="nonzero"/><path d="M25.297 31.044c-3.574 0-6.471-2.889-6.471-6.453 0-3.564 2.897-6.453 6.47-6.453 3.574 0 6.471 2.89 6.471 6.453 0 3.564-2.897 6.453-6.47 6.453zm0-2.026a4.433 4.433 0 0 0 4.438-4.427 4.433 4.433 0 0 0-4.438-4.426 4.433 4.433 0 0 0-4.44 4.426 4.433 4.433 0 0 0 4.44 4.427z" fill="#FFF" fill-rule="nonzero"/></g></svg>