<svg width="50" height="51" viewBox="0 0 50 51" xmlns="http://www.w3.org/2000/svg"><title>Fill 1</title><path d="M16.724 25.502c0-.43.043-.85.114-1.259-.066.009-.133.02-.2.02a1.58 1.58 0 0 1-.658-.146l-4.327-1.983c-.8-.365-1.175-1.34-.836-2.17.17-.417.503-.749.915-.912.406-.16.848-.149 1.244.033l4.327 1.982c.24.11.436.28.592.478a6.878 6.878 0 0 1 1.788-1.86 1.656 1.656 0 0 1-.528-.653l-1.993-4.527c-.36-.82-.012-1.804.776-2.193a1.574 1.574 0 0 1 1.245-.07c.416.152.758.474.939.886l1.992 4.528c.136.31.17.642.119.958a6.256 6.256 0 0 1 1.672-.089l.79.066v13.821l-.79.067c-.175.014-.35.022-.529.022-.39 0-.771-.043-1.144-.111.052.316.018.648-.118.958l-1.992 4.528a1.652 1.652 0 0 1-.94.886 1.581 1.581 0 0 1-1.244-.07c-.789-.39-1.137-1.374-.776-2.193l1.993-4.528a1.65 1.65 0 0 1 .527-.652 6.892 6.892 0 0 1-1.787-1.86 1.6 1.6 0 0 1-.592.478l-4.327 1.982a1.576 1.576 0 0 1-1.245.032 1.651 1.651 0 0 1-.914-.911c-.339-.831.037-1.805.837-2.171l4.326-1.983a1.57 1.57 0 0 1 .858-.126 7.347 7.347 0 0 1-.114-1.258zm9.638-12.33c0-1.502 1.003-1.615 1.204-1.623.467-.011.783.178.957.346.302.29.4.674.427 1.004.3-.466.825-1.076 1.591-.791.335.125.581.372.693.696.195.563-.082 1.13-.346 1.562l-1.927 3.159v4.656l2.65-2.889.333-3.823c.116-1.345.974-1.475 1.298-1.475.274-.012.585.106.792.324.409.429.343 1.04.295 1.486l-.063.615.088-.101c.726-.839 1.375-.854 1.695-.788.394.08.702.355.825.735.094.29.152.886-.51 1.604l-.347.375.553-.086c.391-.062 1.022-.162 1.475.246.248.222.374.535.358.883.009.215-.066 1.145-1.364 1.316l-3.463.457-2.899 3.093 4.401-.004 2.78-2.122c.236-.18.859-.653 1.514-.44.35.114.617.4.731.782.26.873-.583 1.482-.9 1.712l-.093.067c.229.004.543.037.835.206.382.19.631.583.646 1.054l.001.045-.001.037v.108c-.015.468-.264.86-.687 1.073-.191.112-.456.177-.794.184l.05.037c.36.26 1.202.868.944 1.74-.115.385-.381.67-.732.784-.655.212-1.279-.26-1.513-.439l-2.781-2.124-4.401-.003 2.9 3.092 3.463.459c1.297.17 1.372 1.1 1.364 1.381.017.282-.111.596-.36.818-.455.41-1.09.308-1.466.246l-.56-.088.346.375c.663.72.604 1.315.51 1.605-.123.38-.431.655-.825.735-.32.066-.968.05-1.695-.788l-.088-.101.055.537c.056.524.122 1.135-.287 1.565a1.063 1.063 0 0 1-.833.322c-.2-.006-1.136-.065-1.257-1.476l-.333-3.821-2.65-2.888v4.655l1.927 3.16c.264.43.541.997.346 1.56a1.133 1.133 0 0 1-.693.698c-.776.291-1.31-.348-1.591-.79-.029.33-.125.712-.427 1.003a1.26 1.26 0 0 1-.896.346h-.062c-.201-.009-1.203-.124-1.203-1.624v-24.66zM0 50.625h50v-50H0v50z" fill="#F42341" fill-rule="evenodd"/></svg>