<svg width="50" height="50" viewBox="0 0 50 50" xmlns="http://www.w3.org/2000/svg"><title>Combined Shape</title><path d="M34.25 18.5a1.25 1.25 0 1 1 0-2.5 1.25 1.25 0 0 1 0 2.5zM9.755 35.373v-5.162h4.191v5.162H9.755zm0-7.661h4.191V22.55H9.755v5.162zm0-7.661h4.191v-5.163H9.755v5.163zm6.52 15.322h4.191v-5.162h-4.19v5.162zm0-7.661h4.191V22.55h-4.19v5.162zm0-7.661h4.191v-5.163h-4.19v5.163zm6.281 15.322h4.191v-5.162h-4.19v5.162zm0-7.661h4.191V22.55h-4.19v5.162zm0-7.661h4.191v-5.163h-4.19v5.163zm11.7-7.109a6.007 6.007 0 0 1 2.318 11.551v9.205c0 2-.953 3.621-2.128 3.621-1.175 0-2.128-1.62-2.128-3.62v-.714h-1.51v-4.693h1.51v-3.655a6.007 6.007 0 0 1 1.938-11.695zM0 50h50V0H0v50z" fill="#F42341" fill-rule="evenodd"/></svg>