<svg width="50" height="51" viewBox="0 0 50 51" xmlns="http://www.w3.org/2000/svg"><title>Page 1</title><g fill="#F42341" fill-rule="evenodd"><path d="M12.638 14.015c2.692 0 6.295-1.41 8.493-2.808.192-.124.326-.224.518-.356.378-.259.714-.51 1.106-.725l.501.373.519.352c2.407 1.64 6.102 3.164 9.011 3.164v12.193c0 1.896-.069 3.42-.773 4.604-.607 1.025-1.73 2.037-2.702 2.714l-6.556 4.262-1.326-.809-.298-.183c-2.222-1.467-6.234-3.601-7.624-5.818-.766-1.223-.87-2.618-.87-4.59V14.015zm21.637 18.173c.703-1.186.771-2.707.771-4.603V15.392l.117.071v-.096l1.356.825v-.008l1.779 1.081v12.194c0 1.895-.069 3.416-.772 4.602-.607 1.025-1.73 2.038-2.704 2.715l-6.554 4.26-.342-.209-.307-.186-.138-.085-.203-.124-.139-.084-.22-.134-.007.005-.041-.025-.076.05-.342-.209-.306-.187-.14-.084-.203-.124-.138-.084-.307-.186-.342-.208 6.553-4.26c.974-.677 2.097-1.69 2.705-2.714zM0 50.345h49.997l.002-50H0l.001 50z"/><path d="M22.535 29.741a2.238 2.238 0 0 1-1.624-.656c-.447-.438-.721-1.07-.824-1.9l-3.222.394c.165 1.475.766 2.663 1.796 3.571 1.03.915 2.332 1.368 3.898 1.368 1.655 0 3.036-.539 4.145-1.62 1.11-1.077 1.67-2.386 1.67-3.916 0-1.057-.3-1.955-.894-2.704-.597-.746-1.39-1.226-2.383-1.44 1.669-.915 2.5-2.145 2.5-3.678 0-1.084-.409-2.058-1.219-2.918-.986-1.053-2.294-1.575-3.925-1.575-.952 0-1.817.18-2.583.543-.766.366-1.37.863-1.796 1.498-.433.636-.752 1.485-.965 2.549l3.053.525c.086-.763.33-1.344.732-1.744a1.992 1.992 0 0 1 1.456-.594c.577 0 1.037.173 1.384.521.347.356.518.822.518 1.41 0 .693-.233 1.25-.704 1.664-.474.418-1.154.618-2.05.594l-.367 2.71c.587-.165 1.092-.251 1.517-.251.646 0 1.189.248 1.639.739.446.49.67 1.16.67 2.003 0 .89-.234 1.598-.698 2.12-.47.525-1.044.787-1.724.787"/></g></svg>