<svg width="50" height="50" viewBox="0 0 50 50" xmlns="http://www.w3.org/2000/svg"><title>Page 1 Copy</title><path d="M0 0h50v50H0V0zm28.414 34.525c-3.144 0-6.008-1.662-7.657-4.312h11.64l.803-3.836H19.404a9.417 9.417 0 0 1-.03-2.046h14.255l.671-3.21.011-.108v-.517H20.587c1.614-2.807 4.568-4.593 7.827-4.593 2.126 0 4.142.755 5.757 2.114l.662.558.89-4.253-.292-.194A12.635 12.635 0 0 0 28.414 12c-5.398 0-10.168 3.436-12.064 8.496h-4.312l-.82 3.835h4.307a13.23 13.23 0 0 0 .023 2.046h-3.453l-.803 3.836h5.166c1.968 4.913 6.664 8.215 11.956 8.215 2.3 0 4.514-.62 6.465-1.78l.253-.15v-4.929l-.857.745a8.898 8.898 0 0 1-5.86 2.211z" fill="#F42341" fill-rule="evenodd"/></svg>