<?xml version="1.0" encoding="UTF-8"?>
<svg width="58px" height="58px" viewBox="0 0 58 58" version="1.1" xmlns="http://www.w3.org/2000/svg" xmlns:xlink="http://www.w3.org/1999/xlink">
    <!-- Generator: Sketch 45.2 (43514) - http://www.bohemiancoding.com/sketch -->
    <title>Group</title>
    <desc>Created with Sketch.</desc>
    <defs></defs>
    <g id="Page-1" stroke="none" stroke-width="1" fill="none" fill-rule="evenodd">
        <g id="13-Contacts-Copy" transform="translate(-719.000000, -1121.000000)" fill="#D8D8D8">
            <g id="noun_1043035_cc" transform="translate(719.000000, 1121.000000)">
                <g id="Group">
                    <g id="Shape">
                        <path d="M29,0.302083333 C13.1708333,0.302083333 0.302083333,13.1708333 0.302083333,29 C0.302083333,44.8291667 13.1708333,57.6979167 29,57.6979167 C44.8291667,57.6979167 57.6979167,44.8291667 57.6979167,29 C57.6979167,13.1708333 44.8291667,0.302083333 29,0.302083333 Z M29,55.2598958 C14.5161246,55.2598958 2.74010417,43.4838754 2.74010417,29 C2.74010417,14.5161246 14.5161246,2.74010417 29,2.74010417 C43.4838754,2.74010417 55.2598958,14.5161246 55.2598958,29 C55.2598958,43.4838754 43.4838754,55.2598958 29,55.2598958 Z" fill-rule="nonzero"></path>
                        <polygon fill-rule="nonzero" points="25.375 34.3166667 16.7354167 25.6770833 13.6541667 28.7583333 25.375 40.4791667 45.4333333 20.4208333 42.2916667 17.3395833"></polygon>
                    </g>
                </g>
            </g>
        </g>
    </g>
</svg>