<?xml version="1.0" encoding="UTF-8"?>
<svg width="19px" height="10px" viewBox="0 0 19 10" version="1.1" xmlns="http://www.w3.org/2000/svg" xmlns:xlink="http://www.w3.org/1999/xlink">
    <!-- Generator: Sketch 45.2 (43514) - http://www.bohemiancoding.com/sketch -->
    <title>Group</title>
    <desc>Created with Sketch.</desc>
    <defs></defs>
    <g id="Page-1" stroke="none" stroke-width="1" fill="none" fill-rule="evenodd">
        <g id="1-Home-" transform="translate(-860.000000, -1567.000000)" fill-rule="nonzero" fill="#F52341">
            <g id="News_1" transform="translate(372.000000, 1362.000000)">
                <g id="Group" transform="translate(488.000000, 205.000000)">
                    <path d="M8.93354142,3 C7.8621379,3 7,3.86136424 7,4.91429265 C7,5.97688921 7.8621379,6.82228977 8.93354142,6.82228977 C10.0069966,6.82228977 10.8752893,5.97688921 10.8752893,4.91429265 C10.8752893,3.86136424 10.0069966,3 8.93354142,3 Z" id="Shape"></path>
                    <path d="M9.11832786,0 C4.08250334,0 0,3.71616502 0,4.94649264 C0,6.17704511 4.08250334,9.89298529 9.11832786,9.89298529 C14.1541524,9.89298529 18.2366557,6.17704511 18.2366557,4.94649264 C18.2366557,3.71616502 14.1541524,0 9.11832786,0 Z M9.11832786,8.76878241 C6.98007998,8.76765821 5.24463423,7.05886984 5.24303852,4.94649264 C5.24463423,2.83411544 6.98007998,1.12510224 9.11832786,1.12420287 C11.2568037,1.12510224 12.9917935,2.83411544 12.9936172,4.94649264 C12.9917935,7.05886984 11.2568037,8.76765821 9.11832786,8.76878241 Z" id="Shape"></path>
                </g>
            </g>
        </g>
    </g>
</svg>