<?xml version="1.0" encoding="UTF-8"?>
<svg width="18px" height="18px" viewBox="0 0 18 18" version="1.1" xmlns="http://www.w3.org/2000/svg" xmlns:xlink="http://www.w3.org/1999/xlink">
    <g id="Symbols" stroke="none" stroke-width="1" fill="none" fill-rule="evenodd">
        <g id="Header_White" transform="translate(-11.000000, -62.000000)" fill="#2F2F2F">
            <g id="Header">
                <g id="Menu">
                    <g id="Menu_2" transform="translate(1.000000, 46.000000)">
                        <g id="Home">
                            <path d="M27.8534348,25.3571368 L24.1025214,21.360442 L24.1025214,18.2150705 C24.1026144,18.0635561 24.0425284,17.9182155 23.9354913,17.8110457 C23.8284543,17.703876 23.6832414,17.6436631 23.5318217,17.6436631 L22.2123415,17.6436631 C22.0608896,17.6436631 21.9156407,17.7038648 21.808548,17.8110245 C21.7014553,17.9181841 21.6412913,18.0635238 21.6412913,18.2150705 L21.6412913,18.7391237 L19.1523674,16.086236 C19.1017278,16.0312685 19.0304203,16 18.9557074,16 C18.8809945,16 18.809687,16.0312685 18.7590474,16.086236 L10.0555261,25.3571368 C9.94755592,25.47219 10.0018916,25.5676 10.1764668,25.5676 L12.6096528,25.5676 L12.6096528,33.5083739 C12.6104156,33.7565053 12.8107392,33.9577365 13.0587107,33.9594665 L17.1980364,33.9594665 L17.1980364,27.9261901 L20.7112751,27.9261901 L20.7112751,33.9594665 L24.8506008,33.9594665 C25.0992571,33.9586962 25.3006416,33.7571857 25.3014115,33.5083739 L25.3014115,25.5665477 L27.7328447,25.5665477 C27.9074199,25.5665477 27.9617556,25.4707869 27.8534348,25.3571368 L27.8534348,25.3571368 Z" id="Shape"></path>
                        </g>
                    </g>
                </g>
            </g>
        </g>
    </g>
</svg>