<?xml version="1.0" encoding="UTF-8"?>
<svg width="86px" height="86px" viewBox="0 0 86 86" version="1.1" xmlns="http://www.w3.org/2000/svg" xmlns:xlink="http://www.w3.org/1999/xlink">
    <!-- Generator: Sketch 46 (44423) - http://www.bohemiancoding.com/sketch -->
    <title>Page 1</title>
    <desc>Created with Sketch.</desc>
    <defs></defs>
    <g id="Page-1" stroke="none" stroke-width="1" fill="none" fill-rule="evenodd">
        <g id="2-My-Business-Copy" transform="translate(-406.000000, -844.000000)">
            <g id="Page-1" transform="translate(406.000000, 844.000000)">
                <g id="Group-3" transform="translate(16.000000, 15.441019)"></g>
                <path d="M51.7376444,40.5339184 C50.3758486,41.7533479 48.0676796,42.3588452 44.820919,42.3588452 L44.4671514,42.3588452 L34.9944401,42.3588452 L34.9944401,28.6938853 L44.4671514,28.6938853 L44.7149683,28.6938853 C46.9967993,28.6938853 48.5537359,28.8095624 49.4025387,29.0318793 C50.7206373,29.3969852 51.7729613,30.1446689 52.5780669,31.2845703 C53.3831725,32.4238693 53.7812359,33.7945224 53.7812359,35.3971322 C53.7812359,37.6052394 53.1000387,39.314489 51.7376444,40.5339184 M54.7719049,26.3345545 C53.507081,25.4531191 51.9411655,24.856659 50.0753556,24.5451743 C48.7782077,24.3102052 46.906412,24.1854908 44.4671514,24.180671 L44.2995458,24.180671 L29.9710599,24.180671 L29.9710599,62.4155673 L34.9944401,62.4155673 L34.9944401,46.872662 L44.4671514,46.872662 L44.7413063,46.872662 C50.1106725,46.872662 53.8249331,45.7417979 55.8858838,43.4981441 C57.9378556,41.2460556 58.9638415,38.4866748 58.9638415,35.2368712 C58.9638415,33.3408513 58.5837359,31.6050923 57.8145458,30.0199546 C57.044757,28.4444566 56.02775,27.2069526 54.7719049,26.3345545" id="Fill-4" fill="#F42341"></path>
                <path d="M0,0 L85.8376901,0 L85.8376901,85.8376901 L60.6869296,85.8376901 L42.9194507,85.8376901 L25.1513662,85.8376901 L0,85.8376901 L0,0 Z M69.5765068,64.3654477 L69.5765068,21.6345523 C69.5765068,18.7687553 67.2319062,16.4241779 64.366081,16.4241779 L45.0759164,16.4241779 L21.6347652,16.4241779 C18.76894,16.4241779 16.4243395,18.7687553 16.4243395,21.6345523 L16.4243395,64.3654477 C16.4243395,67.2312447 18.76894,69.5758221 21.6347652,69.5758221 L45.0759164,69.5758221 L64.366081,69.5758221 C67.2319062,69.5758221 69.5765068,67.2312447 69.5765068,64.3654477 Z" id="Combined-Shape" fill="#F42341"></path>
            </g>
        </g>
    </g>
</svg>