<?xml version="1.0" encoding="UTF-8"?>
<svg width="80px" height="81px" viewBox="0 0 80 81" version="1.1" xmlns="http://www.w3.org/2000/svg" xmlns:xlink="http://www.w3.org/1999/xlink">
    <!-- Generator: Sketch 46 (44423) - http://www.bohemiancoding.com/sketch -->
    <title>Page 1</title>
    <desc>Created with Sketch.</desc>
    <defs></defs>
    <g id="Page-1" stroke="none" stroke-width="1" fill="none" fill-rule="evenodd">
        <g id="1-Home-" transform="translate(-571.000000, -947.000000)" fill="#F42341">
            <g id="Page-1" transform="translate(571.000000, 947.000000)">
                <g id="Group-3" transform="translate(0.000000, 0.409510)">
                    <path d="M20.4732394,22.2943776 C24.8349296,22.2943776 30.6709155,20.0118601 34.2314789,17.7461259 C34.5430282,17.5447273 34.76,17.3824895 35.0715493,17.1699021 C35.6835211,16.7503217 36.2287324,16.3419301 36.8629577,15.9950769 L37.6752113,16.5992727 C37.9867606,16.8118601 38.2037324,16.9573147 38.5152817,17.1699021 C42.4152113,19.8272448 48.4014085,22.2943776 53.1135915,22.2943776 L53.1135915,42.0482238 C53.1135915,45.1195524 53.0023239,47.5866853 51.861831,49.5055664 C50.8771127,51.1671049 49.0578873,52.8062657 47.4834507,53.9027692 L36.8629577,60.8062657 L34.715493,59.4971748 L34.2314789,59.2006713 C30.6319718,56.823049 24.1339437,53.3657063 21.8807746,49.7740979 C20.6401408,47.7936783 20.4732394,45.5335385 20.4732394,42.3391329 L20.4732394,22.2943776 Z M55.5253169,51.7343776 C56.6646972,49.8132587 56.7748521,47.3489231 56.7748521,44.2787133 L56.7748521,24.5254266 L56.964007,24.6406713 L56.964007,24.4857063 L59.1615423,25.8216503 L59.1615423,25.8082238 L62.0422606,27.5598322 L62.0422606,47.3147972 C62.0422606,50.3844476 61.9315493,52.8487832 60.7927254,54.7699021 C59.808007,56.4292028 57.9887817,58.0711608 56.4115634,59.1682238 L45.7944085,66.0678042 L45.2402958,65.7304615 L44.7434859,65.4283636 L44.5187254,65.2918601 L44.1899296,65.091021 L43.965169,64.9545175 L43.608,64.7374545 L43.5968732,64.7447273 L43.530669,64.705007 L43.4077183,64.785007 L42.8536056,64.4476643 L42.3573521,64.145007 L42.1320352,64.0085035 L41.8032394,63.8076643 L41.5784789,63.6711608 L41.081669,63.3696224 L40.5275563,63.0322797 L51.1441549,56.1321399 C52.7219296,55.0356364 54.5405986,53.3936783 55.5253169,51.7343776 L55.5253169,51.7343776 Z M0.00169330088,80.1494825 L79.9971778,80.1494825 L80,0.149482517 L0,0.149482517 L0.00169330088,80.1494825 Z" id="Fill-1"></path>
                </g>
                <path d="M36.5069014,48.1808112 C35.4776761,48.1808112 34.6042254,47.8283636 33.8754225,47.1178741 C33.1521831,46.4073846 32.7071127,45.3836084 32.5402113,44.040951 L27.3217606,44.6787133 C27.5888028,47.0675245 28.5623944,48.992 30.2314085,50.4633287 C31.9004225,51.9458462 34.0089437,52.6787133 36.5458451,52.6787133 C39.2273944,52.6787133 41.4638732,51.805986 43.2608451,50.0549371 C45.0578169,48.3094825 45.9646479,46.1892028 45.9646479,43.7108811 C45.9646479,41.998993 45.4806338,40.5444476 44.518169,39.3304615 C43.5501408,38.1220699 42.265,37.3444476 40.6571831,36.9975944 C43.3609859,35.5150769 44.7073239,33.5234685 44.7073239,31.0395524 C44.7073239,29.2829091 44.0452817,27.7052867 42.7323239,26.3122797 C41.1356338,24.605986 39.0159859,23.7612308 36.3733803,23.7612308 C34.8323239,23.7612308 33.4303521,24.0521399 32.1897183,24.6395524 C30.9490845,25.2325594 29.9699296,26.0381538 29.2800704,27.0675245 C28.5790845,28.0968951 28.0616901,29.4731189 27.7167606,31.1961958 L32.6626056,32.0465455 C32.8016901,30.8101818 33.1966901,29.8703217 33.8476056,29.2213706 C34.4985211,28.578014 35.2829577,28.2591329 36.2064789,28.2591329 C37.1411268,28.2591329 37.8866197,28.5388531 38.4485211,29.1038881 C39.0104225,29.6801119 39.2885915,30.4353566 39.2885915,31.3864056 C39.2885915,32.5108811 38.9102817,33.4115804 38.1480986,34.0829091 C37.3803521,34.7598322 36.2788028,35.0843077 34.8267606,35.0451469 L34.2314789,39.4367552 C35.1828169,39.1682238 36.0006338,39.0283636 36.690493,39.0283636 C37.7364085,39.0283636 38.6154225,39.4311608 39.3442254,40.2255664 C40.0674648,41.019972 40.4290845,42.1052867 40.4290845,43.4703217 C40.4290845,44.9136783 40.0507746,46.0605315 39.2997183,46.9052867 C38.5375352,47.7556364 37.6084507,48.1808112 36.5069014,48.1808112" id="Fill-4"></path>
            </g>
        </g>
    </g>
</svg>