<?xml version="1.0" encoding="UTF-8"?>
<svg width="80px" height="80px" viewBox="0 0 80 80" version="1.1" xmlns="http://www.w3.org/2000/svg" xmlns:xlink="http://www.w3.org/1999/xlink">
    <!-- Generator: Sketch 45.2 (43514) - http://www.bohemiancoding.com/sketch -->
    <title>Fill 3</title>
    <desc>Created with Sketch.</desc>
    <defs></defs>
    <g id="Page-1" stroke="none" stroke-width="1" fill="none" fill-rule="evenodd">
        <g id="1-Home-" transform="translate(-1040.000000, -948.000000)" fill="#F42341">
            <g id="Page-1" transform="translate(1040.000000, 948.000000)">
                <path d="M17.3838592,55.7845704 L23.9931549,55.7845704 L23.9931549,47.6436761 L17.3838592,47.6436761 L17.3838592,55.7845704 Z M17.3838592,43.7020211 L23.9931549,43.7020211 L23.9931549,35.5611268 L17.3838592,35.5611268 L17.3838592,43.7020211 Z M17.3838592,31.6200282 L23.9931549,31.6200282 L23.9931549,23.4791338 L17.3838592,23.4791338 L17.3838592,31.6200282 Z M27.6660986,55.7845704 L34.2753944,55.7845704 L34.2753944,47.6436761 L27.6660986,47.6436761 L27.6660986,55.7845704 Z M27.6660986,43.7020211 L34.2753944,43.7020211 L34.2753944,35.5611268 L27.6660986,35.5611268 L27.6660986,43.7020211 Z M27.6660986,31.6200282 L34.2753944,31.6200282 L34.2753944,23.4791338 L27.6660986,23.4791338 L27.6660986,31.6200282 Z M37.5716972,55.7845704 L44.180993,55.7845704 L44.180993,47.6436761 L37.5716972,47.6436761 L37.5716972,55.7845704 Z M37.5716972,43.7020211 L44.180993,43.7020211 L44.180993,35.5611268 L37.5716972,35.5611268 L37.5716972,43.7020211 Z M37.5716972,31.6200282 L44.180993,31.6200282 L44.180993,23.4791338 L37.5716972,23.4791338 L37.5716972,31.6200282 Z M56.0220915,20.4103732 C61.2538944,20.4103732 65.4954155,24.651338 65.4954155,29.8836972 C65.4954155,33.8197887 63.0942606,37.1950915 59.6772324,38.625993 L59.6772324,53.1430775 C59.6772324,56.2969577 58.1745634,58.853331 56.3219577,58.853331 C54.4687958,58.853331 52.9661268,56.2969577 52.9661268,53.1430775 L52.9661268,52.0176056 L50.5838873,52.0176056 L50.5838873,44.6171972 L52.9661268,44.6171972 L52.9661268,38.8529789 C49.2336549,37.5817465 46.5482113,34.0467746 46.5482113,29.8836972 C46.5482113,24.651338 50.7897324,20.4103732 56.0220915,20.4103732 L56.0220915,20.4103732 Z M0,80 L80,80 L80,0 L0,0 L0,80 Z" id="Fill-3"></path>
            </g>
        </g>
    </g>
</svg>