<?xml version="1.0" encoding="UTF-8"?>
<svg width="86px" height="87px" viewBox="0 0 86 87" version="1.1" xmlns="http://www.w3.org/2000/svg" xmlns:xlink="http://www.w3.org/1999/xlink">
    <g id="Page-1" stroke="none" stroke-width="1" fill="none" fill-rule="evenodd">
        <g id="2-My-Business-Copy" transform="translate(-1003.000000, -843.000000)" fill="#F42341">
            <g id="Pochemu" transform="translate(79.000000, 565.753614)">
                <g id="Icons_2">
                    <g id="noun_716642_cc" transform="translate(924.000000, 277.000000)">
                        <g id="Group" transform="translate(0.000000, 0.637820)">
                            <path d="M0,0.36218 L85.8376901,0.36218 L85.8376901,86.1998701 L54.9715634,86.1998701 L42.9188451,86.1998701 L31.2252676,86.1998701 L0,86.1998701 L0,0.36218 Z M37.3852965,16 L36.1709698,22.6690179 C33.3643605,23.5493092 30.8271555,25.009424 28.6658044,26.8966989 L22.3153386,24.455362 L17,33.1290549 L22.0963241,37.6346116 C21.6965175,39.2497652 21.4791593,40.9377254 21.4791593,42.6760716 C21.4791593,44.4143987 21.6965175,46.1024224 22.0963241,47.7175315 L17,52.2230565 L22.3153386,60.8967812 L28.6658044,58.4554125 C30.8271555,60.3426175 33.3644242,61.8028149 36.1709698,62.6831252 L37.3852965,69.3521431 L47.5779447,69.3521431 L48.7922713,62.6831252 C51.5988807,61.8028149 54.136022,60.3426175 56.2974368,58.4554125 L62.6479025,60.8967812 L67.9632412,52.2230565 L62.8867927,47.6976515 C63.2828408,46.089656 63.4840819,44.4060783 63.4840819,42.6760716 C63.4840819,40.9459822 63.2828408,39.2625951 62.8867927,37.6544599 L67.9632412,33.1290549 L62.6479025,24.455362 L56.2974368,26.8966989 C54.136022,25.009424 51.5988807,23.5493092 48.7922713,22.6690179 L47.5779447,16 L37.3852965,16 Z M42.4816206,28.1862438 C50.498986,28.1862438 57.0147016,34.6825293 57.0147016,42.6760716 C57.0147016,50.6694995 50.498986,57.1658993 42.4816206,57.1658993 C34.4643317,57.1658993 27.9485396,50.6694995 27.9485396,42.6760716 C27.9485396,34.682514 34.4643317,28.1862438 42.4816206,28.1862438 Z M42.6428454,54 C48.9152287,54 54,48.9152287 54,42.6428454 C54,36.3704622 48.9152287,31.2856909 42.6428454,31.2856909 C36.3704622,31.2856909 31.2856909,36.3704622 31.2856909,42.6428454 C31.2856909,48.9152287 36.3704622,54 42.6428454,54 Z M42.6428454,50.4334626 C38.3402064,50.4334626 34.8522283,46.9454845 34.8522283,42.6428454 C34.8522283,38.3402064 38.3402064,34.8522283 42.6428454,34.8522283 C46.9454845,34.8522283 50.4334626,38.3402064 50.4334626,42.6428454 C50.4334626,46.9454845 46.9454845,50.4334626 42.6428454,50.4334626 Z" id="Combined-Shape"></path>
                        </g>
                    </g>
                </g>
            </g>
        </g>
    </g>
</svg>