<?xml version="1.0" encoding="UTF-8"?>
<svg width="80px" height="80px" viewBox="0 0 80 80" version="1.1" xmlns="http://www.w3.org/2000/svg" xmlns:xlink="http://www.w3.org/1999/xlink">
    <!-- Generator: Sketch 46 (44423) - http://www.bohemiancoding.com/sketch -->
    <title>Page 1</title>
    <desc>Created with Sketch.</desc>
    <defs></defs>
    <g id="Page-1" stroke="none" stroke-width="1" fill="none" fill-rule="evenodd">
        <g id="1-Home-" transform="translate(-805.000000, -948.000000)" fill="#F42341">
            <g id="Pochemu" transform="translate(80.000000, 844.000000)">
                <g id="4" transform="translate(701.000000, 76.000000)">
                    <path d="M24,108 L104,108 L104,28 L24,28 L24,108 Z M64.3364096,47.9463777 L62.3981035,56.8770355 L54.5528744,56.8770355 L64.3364096,47.9463777 Z M79.8422939,48.2590805 L77.1679508,60.5922163 L87.8252477,60.5922163 L85.3535405,71.8122654 L74.7346259,71.8122654 L72.0597183,84.1459656 L60.2622414,84.1459656 L62.937149,71.8122654 L51.612113,71.8122654 L54.0838202,60.5922163 L65.3704739,60.5922163 L68.0459459,48.2590805 L79.8422939,48.2590805 Z M49.4638331,62.8816075 L47.5255271,71.8122654 L39.6797336,71.8122654 L49.4638331,62.8816075 Z M58.1133971,75.2147433 L56.1756555,84.1459656 L48.3304264,84.1459656 L58.1133971,75.2147433 Z" id="Page-1"></path>
                </g>
            </g>
        </g>
    </g>
</svg>