<?xml version="1.0" encoding="UTF-8"?>
<svg width="86px" height="86px" viewBox="0 0 86 86" version="1.1" xmlns="http://www.w3.org/2000/svg" xmlns:xlink="http://www.w3.org/1999/xlink">
    <!-- Generator: Sketch 46 (44423) - http://www.bohemiancoding.com/sketch -->
    <title>Combined Shape</title>
    <desc>Created with Sketch.</desc>
    <defs></defs>
    <g id="Page-1" stroke="none" stroke-width="1" fill="none" fill-rule="evenodd">
        <g id="2-My-Business-Copy" transform="translate(-699.000000, -844.000000)">
            <g id="Combined-Shape" transform="translate(699.000000, 844.000000)">
                <polygon fill="#F42341" points="0 0 0 85.8376901 25.1513662 85.8376901 42.9194507 85.8376901 60.6869296 85.8376901 85.8376901 85.8376901 85.8376901 0"></polygon>
                <g id="Rectangle-18" transform="translate(15.000000, 16.000000)" fill="#FFFFFF">
                    <rect x="0" y="0" width="4" height="53"></rect>
                    <polygon id="Rectangle-18-Copy-2" transform="translate(10.500000, 26.500000) rotate(-360.000000) translate(-10.500000, -26.500000) " points="10 0 11 0 11 53 10 53"></polygon>
                    <polygon id="Rectangle-18-Copy-3" transform="translate(17.500000, 26.500000) rotate(-360.000000) translate(-17.500000, -26.500000) " points="17 0 18 0 18 53 17 53"></polygon>
                    <polygon id="Rectangle-18-Copy-4" transform="translate(24.500000, 26.500000) rotate(-360.000000) translate(-24.500000, -26.500000) " points="24 0 25 0 25 53 24 53"></polygon>
                    <polygon id="Rectangle-18-Copy-5" transform="translate(31.500000, 26.500000) rotate(-360.000000) translate(-31.500000, -26.500000) " points="31 0 32 0 32 53 31 53"></polygon>
                    <polygon id="Rectangle-18-Copy-6" transform="translate(38.500000, 26.500000) rotate(-360.000000) translate(-38.500000, -26.500000) " points="38 0 39 0 39 53 38 53"></polygon>
                    <polygon id="Rectangle-18-Copy-8" transform="translate(27.500000, 11.000000) rotate(-270.000000) translate(-27.500000, -11.000000) " points="26.5 -15.5 28.5 -15.5 28.5 37.5 26.5 37.5"></polygon>
                    <polygon id="Rectangle-18-Copy-9" transform="translate(27.500000, 43.000000) rotate(-270.000000) translate(-27.500000, -43.000000) " points="26.5 16.5 28.5 16.5 28.5 69.5 26.5 69.5"></polygon>
                    <polygon id="Rectangle-18-Copy-7" transform="translate(45.500000, 26.500000) rotate(-360.000000) translate(-45.500000, -26.500000) " points="45 0 46 0 46 53 45 53"></polygon>
                    <rect id="Rectangle-18-Copy" x="52" y="0" width="4" height="53"></rect>
                </g>
            </g>
        </g>
    </g>
</svg>