<?xml version="1.0" encoding="UTF-8"?>
<svg width="86px" height="86px" viewBox="0 0 86 86" version="1.1" xmlns="http://www.w3.org/2000/svg" xmlns:xlink="http://www.w3.org/1999/xlink">
    <g id="Page-1" stroke="none" stroke-width="1" fill="none" fill-rule="evenodd">
        <g id="2-My-Business-Copy" transform="translate(-406.000000, -592.000000)" fill="#F42341">
            <g id="Page-1" transform="translate(406.000000, 592.000000)">
                <path d="M66.5979267,32.0311047 C65.8242872,31.0323512 64.9887565,30.0845669 64.0967956,29.1932127 C58.7116575,23.8074679 51.2774365,20.470806 43.0653284,20.4532095 L42.9997966,20.4532095 C34.762204,20.4532095 27.3024984,23.793512 21.9027977,29.1932127 C21.0114435,30.0845669 20.1759128,31.0323512 19.4016665,32.0311047 L16.6487232,29.2775546 C17.4357118,28.2915434 18.2779171,27.3510404 19.1686644,26.4596863 C25.2685848,20.359766 33.694278,16.5862253 42.9997966,16.5862253 L43.0653284,16.5868321 C52.3447557,16.6044286 60.7455711,20.3743286 66.8309288,26.4596863 C67.7222829,27.3510404 68.5638814,28.2915434 69.3514768,29.2775546 L66.5979267,32.0311047 Z M60.5331994,38.095832 C59.8087087,37.0558177 58.9938084,36.0831556 58.1006339,35.1899812 C54.2500327,31.3387731 48.9358874,28.9517159 43.0653284,28.9341193 L42.9997966,28.9335126 C37.1031463,28.9335126 31.7641232,31.3248173 27.8995661,35.1899812 C27.0057848,36.0831556 26.1908845,37.0558177 25.4663938,38.095832 L22.695854,35.3252922 C23.4470429,34.3077287 24.2728652,33.3484156 25.1654329,32.455848 C29.7302096,27.8910712 36.0358271,25.0671351 42.9997966,25.0671351 L43.0653284,25.0677419 C50.0025998,25.0853384 56.2833395,27.9056338 60.8341604,32.455848 C61.726728,33.3484156 62.5525503,34.3077287 63.3037392,35.3252922 L60.5331994,38.095832 Z M54.2785512,44.3504803 C53.6784496,43.2139886 52.9120913,42.1788285 52.0116356,41.2783728 C49.7198422,38.9859726 46.5585386,37.5630826 43.0653284,37.5454861 L42.9997966,37.5448793 C39.4811019,37.5448793 36.2949205,38.9720167 33.9879577,41.2783728 C33.0875019,42.1788285 32.3211437,43.2139886 31.7210421,44.3504803 L28.8910382,41.5198697 C29.563953,40.4385946 30.3582229,39.4404479 31.2544312,38.5448463 C34.2610069,35.5382706 38.4137827,33.6785018 42.9997966,33.6785018 L43.0653284,33.6791086 C47.625251,33.6967051 51.7531489,35.5528333 54.745162,38.5448463 C55.6413703,39.4404479 56.4356403,40.4385946 57.1091618,41.5198697 L54.2785512,44.3504803 Z M48.9941379,61.9937095 C48.9941379,64.7393715 46.7472459,66.9862635 44.0009772,66.9862635 L43.0653284,66.9862635 L42.1290729,66.9862635 C39.3828042,66.9862635 37.1359122,64.7399783 37.1359122,61.9937095 L37.1359122,50.7210228 C37.1359122,47.974754 39.3828042,45.7278621 42.1290729,45.7278621 L43.0653284,45.7278621 L44.0009772,45.7278621 C46.7472459,45.7278621 48.9941379,47.974754 48.9941379,50.7210228 L48.9941379,61.9937095 Z M85.9995932,0.000606776121 L43.0653284,0.000606776121 L0,0.000606776121 L0,85.9995932 L43.0653284,85.9995932 L86.0002,85.9995932 L86.0002,0 C86.0002,0 86.0002,0.000606776121 85.9995932,0.000606776121 L85.9995932,0.000606776121 Z" id="Fill-1"></path>
            </g>
        </g>
    </g>
</svg>