<?xml version="1.0" encoding="UTF-8"?>
<svg width="86px" height="86px" viewBox="0 0 86 86" version="1.1" xmlns="http://www.w3.org/2000/svg" xmlns:xlink="http://www.w3.org/1999/xlink">
    <!-- Generator: Sketch 45.2 (43514) - http://www.bohemiancoding.com/sketch -->
    <title>Fill 1</title>
    <desc>Created with Sketch.</desc>
    <defs></defs>
    <g id="Page-1" stroke="none" stroke-width="1" fill="none" fill-rule="evenodd">
        <g id="2-My-Business" transform="translate(-406.000000, -592.000000)" fill="#33BE30">
            <path d="M472.597927,624.031105 C471.824287,623.032351 470.988756,622.084567 470.096796,621.193213 C464.711657,615.807468 457.277436,612.470806 449.065328,612.453209 L448.999797,612.453209 C440.762204,612.453209 433.302498,615.793512 427.902798,621.193213 C427.011444,622.084567 426.175913,623.032351 425.401666,624.031105 L422.648723,621.277555 C423.435712,620.291543 424.277917,619.35104 425.168664,618.459686 C431.268585,612.359766 439.694278,608.586225 448.999797,608.586225 L449.065328,608.586832 C458.344756,608.604429 466.745571,612.374329 472.830929,618.459686 C473.722283,619.35104 474.563881,620.291543 475.351477,621.277555 L472.597927,624.031105 Z M466.533199,630.095832 C465.808709,629.055818 464.993808,628.083156 464.100634,627.189981 C460.250033,623.338773 454.935887,620.951716 449.065328,620.934119 L448.999797,620.933513 C443.103146,620.933513 437.764123,623.324817 433.899566,627.189981 C433.005785,628.083156 432.190884,629.055818 431.466394,630.095832 L428.695854,627.325292 C429.447043,626.307729 430.272865,625.348416 431.165433,624.455848 C435.73021,619.891071 442.035827,617.067135 448.999797,617.067135 L449.065328,617.067742 C456.0026,617.085338 462.283339,619.905634 466.83416,624.455848 C467.726728,625.348416 468.55255,626.307729 469.303739,627.325292 L466.533199,630.095832 Z M460.278551,636.35048 C459.67845,635.213989 458.912091,634.178829 458.011636,633.278373 C455.719842,630.985973 452.558539,629.563083 449.065328,629.545486 L448.999797,629.544879 C445.481102,629.544879 442.29492,630.972017 439.987958,633.278373 C439.087502,634.178829 438.321144,635.213989 437.721042,636.35048 L434.891038,633.51987 C435.563953,632.438595 436.358223,631.440448 437.254431,630.544846 C440.261007,627.538271 444.413783,625.678502 448.999797,625.678502 L449.065328,625.679109 C453.625251,625.696705 457.753149,627.552833 460.745162,630.544846 C461.64137,631.440448 462.43564,632.438595 463.109162,633.51987 L460.278551,636.35048 Z M454.994138,653.99371 C454.994138,656.739371 452.747246,658.986263 450.000977,658.986263 L449.065328,658.986263 L448.129073,658.986263 C445.382804,658.986263 443.135912,656.739978 443.135912,653.99371 L443.135912,642.721023 C443.135912,639.974754 445.382804,637.727862 448.129073,637.727862 L449.065328,637.727862 L450.000977,637.727862 C452.747246,637.727862 454.994138,639.974754 454.994138,642.721023 L454.994138,653.99371 Z M491.999593,592.000607 L449.065328,592.000607 L406,592.000607 L406,677.999593 L449.065328,677.999593 L492.0002,677.999593 L492.0002,592 C492.0002,592 492.0002,592.000607 491.999593,592.000607 L491.999593,592.000607 Z" id="Fill-1"></path>
        </g>
    </g>
</svg>