<?xml version="1.0" encoding="UTF-8"?>
<svg width="86px" height="86px" viewBox="0 0 86 86" version="1.1" xmlns="http://www.w3.org/2000/svg" xmlns:xlink="http://www.w3.org/1999/xlink">
    <!-- Generator: Sketch 45.2 (43514) - http://www.bohemiancoding.com/sketch -->
    <title>Page 1</title>
    <desc>Created with Sketch.</desc>
    <defs></defs>
    <g id="Page-1" stroke="none" stroke-width="1" fill="none" fill-rule="evenodd">
        <g id="2-My-Business" transform="translate(-114.000000, -844.000000)" fill="#33BE30">
            <g id="Pochemu" transform="translate(80.000000, 566.000000)">
                <g id="Icons_2">
                    <path d="M34,363.74 L119.733951,363.74 L119.733951,278 L34,278 L34,363.74 Z M50.7076252,346.239942 L103.026326,346.239942 L103.026326,293.921242 L50.7076252,293.921242 L50.7076252,346.239942 Z M54.6334937,342.314074 L99.1004572,342.314074 L99.1004572,297.847715 L54.6334937,297.847715 L54.6334937,342.314074 Z M57.8637153,306.007956 L96.299722,306.007956 L96.299722,300.992644 L57.8637153,300.992644 L57.8637153,306.007956 Z M57.8637153,313.012214 L96.299722,313.012214 L96.299722,307.398645 L57.8637153,307.398645 L57.8637153,313.012214 Z M57.8637153,320.083616 L96.299722,320.083616 L96.299722,314.463999 L57.8637153,314.463999 L57.8637153,320.083616 Z M57.8637153,339.180638 L96.299722,339.180638 L96.299722,322.01933 L57.8637153,322.01933 L57.8637153,339.180638 Z M79.0900212,323.985289 L94.3337632,323.985289 L94.3337632,337.214679 L94.3337632,323.985289 L79.0900212,323.985289 Z M79.0900212,337.214679 L94.3337632,337.214679 L94.3337632,323.985289 L79.0900212,323.985289 L79.0900212,337.214679 Z M79.0900212,323.985289 L79.0900212,337.214679 L94.3337632,337.214679 L79.0900212,337.214679 L79.0900212,323.985289 Z M59.8296741,323.985289 L74.1841978,323.985289 L74.1841978,337.214679 L74.1841978,323.985289 L59.8296741,323.985289 Z M59.8296741,337.214679 L74.1841978,337.214679 L74.1841978,323.985289 L59.8296741,323.985289 L59.8296741,337.214679 Z M59.8296741,323.985289 L59.8296741,337.214679 L74.1841978,337.214679 L59.8296741,337.214679 L59.8296741,323.985289 Z" id="Page-1"></path>
                </g>
            </g>
        </g>
    </g>
</svg>