<?xml version="1.0" encoding="UTF-8"?>
<svg width="80px" height="80px" viewBox="0 0 80 80" version="1.1" xmlns="http://www.w3.org/2000/svg" xmlns:xlink="http://www.w3.org/1999/xlink">
    <!-- Generator: Sketch 46 (44423) - http://www.bohemiancoding.com/sketch -->
    <title>Fill 1</title>
    <desc>Created with Sketch.</desc>
    <defs></defs>
    <g id="Page-1" stroke="none" stroke-width="1" fill="none" fill-rule="evenodd">
        <g id="1-Home-" transform="translate(-337.000000, -948.000000)" fill="#F42341">
            <g id="Page-1" transform="translate(337.000000, 947.000000)">
                <path d="M26.1589965,40.8027035 C26.1589965,40.1145134 26.2268697,39.4435697 26.340919,38.7887599 C26.2346585,38.8026683 26.1283979,38.8193585 26.0221373,38.8193585 C25.6632993,38.8193585 25.3050176,38.7420275 24.9673204,38.5873655 L18.0453627,35.4151261 C16.7657852,34.8298585 16.1654965,33.2715556 16.7073697,31.9419077 C16.9788627,31.2759711 17.5123908,30.7446683 18.1705387,30.4837458 C18.8203415,30.2261613 19.5274472,30.2450768 20.1622289,30.5354852 L27.0841866,33.706612 C27.4686162,33.8829711 27.7823908,34.1539077 28.0316303,34.4726894 C28.7977077,33.3010415 29.7685176,32.2885063 30.8923204,31.496281 C30.5318134,31.2259007 30.2330599,30.8731824 30.047243,30.4514782 L26.8594261,23.2074007 C26.2825035,21.8955556 26.8393979,20.3216754 28.1006162,19.6985768 C28.7276092,19.3892528 29.4352711,19.3491965 30.0928627,19.5884218 C30.7576866,19.8298725 31.3051232,20.3455979 31.5949754,21.0043021 L34.7822359,28.2489359 C34.9997641,28.7446331 35.0548415,29.2770486 34.9725035,29.7822035 C35.5683415,29.6726049 36.1769754,29.6047317 36.801743,29.6047317 C37.086588,29.6047317 37.3686514,29.6164148 37.6479331,29.639781 L38.9130458,29.7460415 L38.9130458,51.8593655 L37.6479331,51.9661824 C37.3686514,51.9889923 37.086588,52.001788 36.801743,52.001788 C36.1769754,52.001788 35.5677852,51.9333585 34.9719472,51.8237599 C35.0548415,52.3289148 34.9997641,52.8613303 34.7822359,53.3570275 L31.5949754,60.6022176 C31.3045669,61.2614782 30.7565739,61.7760908 30.0911937,62.0186542 C29.8074613,62.1210204 29.5137148,62.1716472 29.2221937,62.1716472 C28.8377641,62.1716472 28.4561162,62.0831894 28.1006162,61.907943 C26.8388415,61.2831754 26.2819472,59.7092951 26.8599824,58.3980063 L30.047243,51.1533725 C30.2325035,50.7322246 30.531257,50.3795063 30.8917641,50.1096824 C29.7685176,49.3169007 28.7982641,48.3049218 28.0316303,47.1332739 C27.7823908,47.452612 27.4686162,47.7229923 27.0841866,47.8993514 L20.1611162,51.0704782 C19.8239754,51.2251401 19.46625,51.3030275 19.107412,51.3030275 C18.791412,51.3030275 18.4742993,51.2418303 18.1699824,51.1216613 C17.5118345,50.8612951 16.9788627,50.3299923 16.7073697,49.6640556 C16.1654965,48.3338514 16.7657852,46.7755486 18.045919,46.1897246 L24.9684331,43.0180415 C25.4046021,42.8172035 25.8763768,42.7560063 26.3403627,42.8160908 C26.2268697,42.1618373 26.1589965,41.4908937 26.1589965,40.8027035 L26.1589965,40.8027035 Z M41.5784613,21.074957 C41.5784613,18.6726894 43.1834965,18.4907669 43.5056162,18.4785275 C44.2527782,18.4607246 44.7584894,18.7633725 45.0372148,19.0315275 C45.5206725,19.4966261 45.6753345,20.1108232 45.7198415,20.6376754 C46.2005176,19.8921824 47.0400317,18.9163655 48.2662007,19.3725627 C48.8013979,19.572288 49.1958415,19.9678444 49.3744261,20.4869077 C49.6865317,21.387619 49.2425739,22.2950063 48.8214261,22.9848655 L45.7376444,28.0397528 L45.7376444,35.489119 L49.9780528,30.867619 L50.5104683,24.7506824 C50.6957289,22.5976542 52.0682148,22.3901401 52.5867218,22.3901401 C53.0256725,22.3706683 53.5235951,22.5598232 53.8546162,22.9086472 C54.5088697,23.594612 54.4037218,24.5732106 54.3263908,25.2869923 L54.2251373,26.2705979 L54.3658908,26.1087035 C55.5275246,24.7668162 56.5662077,24.7423373 57.0785951,24.8480415 C57.7083697,24.9759993 58.2018415,25.4160627 58.3982289,26.0246965 C58.5495528,26.4892387 58.6419049,27.4411331 57.582081,28.5905275 L57.027412,29.1908162 L57.9114331,29.052288 C58.5378697,28.9538162 59.5476232,28.7935908 60.2725317,29.4461754 C60.6686444,29.801119 60.8711514,30.3023796 60.8444472,30.8592739 C60.858912,31.2030908 60.7392993,32.6907387 58.6624894,32.964457 L53.121919,33.6965979 L48.4831725,38.644112 L55.524743,38.6391049 L59.9732218,35.2426613 C60.3498627,34.9550345 61.3468204,34.1978585 62.3955176,34.5388937 C62.9563063,34.7213725 63.3824613,35.1781261 63.5649401,35.7906542 C63.979412,37.187619 62.6314049,38.1617669 62.1240246,38.52895 L61.9760387,38.6368796 C62.3421092,38.6435556 62.8444824,38.6958514 63.3123627,38.9656754 C63.9226655,39.2716613 64.3221162,39.8997669 64.3449261,40.6530486 L64.3471514,40.7253725 L64.3449261,40.783788 C64.3471514,40.8394218 64.3460387,40.8967246 64.3449261,40.9562528 C64.3221162,41.7056401 63.9226655,42.3331894 63.2467148,42.6742246 C62.9407289,42.8533655 62.5173556,42.9574007 61.9760387,42.9685275 L62.0555951,43.026943 C62.6314049,43.4430838 63.979412,44.4166754 63.5660528,45.8119711 C63.3824613,46.4267246 62.9563063,46.8834782 62.3955176,47.065957 C61.3468204,47.4047669 60.34875,46.6487035 59.9748908,46.3633021 L55.524743,42.9646331 L48.4831725,42.9596261 L53.121919,47.9076965 L58.6636021,48.64095 C60.7392993,48.912443 60.858912,50.4012035 60.8461162,50.851281 C60.8728204,51.3030275 60.6686444,51.8048444 60.271419,52.159788 C59.5420599,52.8145979 58.5278556,52.6521472 57.9253415,52.5542317 L57.027412,52.4123655 L57.582081,53.0132106 C58.6430176,54.1648303 58.5495528,55.1161683 58.3982289,55.5801542 C58.2018415,56.188788 57.7083697,56.6288514 57.0785951,56.7568092 C56.5673204,56.861957 55.52975,56.8380345 54.3658908,55.4967035 L54.2251373,55.3342528 L54.3135951,56.1937951 C54.4037218,57.0321965 54.5088697,58.0096824 53.8546162,58.6973162 C53.5096866,59.0600486 53.0457007,59.2314007 52.5221866,59.2135979 C52.2011796,59.2030275 50.7035176,59.1095627 50.5104683,56.851943 L49.9780528,50.7372317 L45.7376444,46.116288 L45.7376444,53.5650979 L48.8214261,58.6199852 C49.2425739,59.3098444 49.6865317,60.2166754 49.3744261,61.117943 C49.1958415,61.63645 48.8025106,62.0325627 48.2662007,62.2328444 C47.0233415,62.699612 46.1710317,61.6770627 45.7198415,60.9710697 C45.6742218,61.4973655 45.5206725,62.1082246 45.0372148,62.5738796 C44.7701725,62.8303514 44.308412,63.1279923 43.6029754,63.1279923 C43.5701514,63.1279923 43.5373275,63.1279923 43.5045035,63.1268796 C43.1823838,63.1140838 41.5784613,62.9288232 41.5784613,60.5298937 L41.5784613,21.074957 Z M0.000278169014,80.9994993 L79.9997137,80.9994993 L79.9997137,0.999499296 L0.000278169014,0.999499296 L0.000278169014,80.9994993 Z" id="Fill-1"></path>
            </g>
        </g>
    </g>
</svg>