<?xml version="1.0" encoding="UTF-8"?>
<svg width="86px" height="87px" viewBox="0 0 86 87" version="1.1" xmlns="http://www.w3.org/2000/svg" xmlns:xlink="http://www.w3.org/1999/xlink">
    <!-- Generator: Sketch 46 (44423) - http://www.bohemiancoding.com/sketch -->
    <title>Page 1 Copy 2</title>
    <desc>Created with Sketch.</desc>
    <defs></defs>
    <g id="Page-1" stroke="none" stroke-width="1" fill="none" fill-rule="evenodd">
        <g id="2-My-Business-Copy" transform="translate(-113.000000, -843.000000)" fill="#F42341">
            <g id="Pochemu" transform="translate(79.000000, 565.753614)">
                <g id="Icons_1" transform="translate(33.000000, 0.000000)">
                    <path d="M1,278 L1,364 L26.1989247,364 L44.0006068,364 L61.801682,364 L87,364 L87,278 L1,278 Z M16.6403353,296.257373 L26.1989247,296.257373 L44.0006068,296.257373 L61.801682,296.257373 L71.3602715,296.257373 L71.3602715,304.028998 L61.801682,304.028998 L51.4919002,304.028998 L51.4919002,345.742627 L47.8445517,345.742627 L47.8445517,304.028998 L44.0006068,304.028998 L40.1566619,304.028998 L40.1566619,345.742627 L36.5087066,345.742627 L36.5087066,304.028998 L26.1989247,304.028998 L16.6403353,304.028998 L16.6403353,296.257373 Z M61.801682,326.614526 L53.7187791,323.757811 L61.801682,320.901702 L63.6620664,320.243953 L63.6620664,322.170477 L69.884585,322.170477 L69.884585,325.345751 L63.6620664,325.345751 L63.6620664,327.271668 L61.801682,326.614526 Z M18.1160218,322.170477 L24.3379336,322.170477 L24.3379336,320.243953 L26.1989247,320.901702 L34.2812209,323.757811 L26.1989247,326.614526 L24.3379336,327.271668 L24.3379336,325.345751 L18.1160218,325.345751 L18.1160218,322.170477 Z" id="Page-1-Copy-2"></path>
                </g>
            </g>
        </g>
    </g>
</svg>