<?xml version="1.0" encoding="UTF-8"?>
<svg width="86px" height="86px" viewBox="0 0 86 86" version="1.1" xmlns="http://www.w3.org/2000/svg" xmlns:xlink="http://www.w3.org/1999/xlink">
    <!-- Generator: Sketch 45.2 (43514) - http://www.bohemiancoding.com/sketch -->
    <title>Fill 1</title>
    <desc>Created with Sketch.</desc>
    <defs></defs>
    <g id="Page-1" stroke="none" stroke-width="1" fill="none" fill-rule="evenodd">
        <g id="2-My-Business" transform="translate(-114.000000, -592.000000)" fill="#33BE30">
            <g id="Pochemu" transform="translate(80.000000, 566.000000)">
                <g id="Icons_1" transform="translate(34.000000, 0.000000)">
                    <g id="Page-1" transform="translate(0.000000, 26.000000)">
                        <g id="Fill-1">
                            <polygon points="54.9713211 24.2759225 42.9192085 24.2759225 31.225631 24.2759225 21.0291803 24.2759225 19.5314479 24.2759225 19.5314479 35.1482606 21.0291803 31.6440634 31.225631 31.6440634 42.9192085 31.6440634 54.9713211 31.6440634 65.5257014 31.6440634 67.0234338 35.3832465 67.0234338 24.2759225 65.5257014 24.2759225"></polygon>
                            <path d="M0,0 L0,85.8376901 L31.2252676,85.8376901 L42.9188451,85.8376901 L54.9715634,85.8376901 L85.8376901,85.8376901 L85.8376901,0 L0,0 Z M13.8732535,48.3828732 L13.8732535,18.1835493 L31.2252676,18.1835493 L42.9188451,18.1835493 L54.9715634,18.1835493 L72.681507,18.1835493 L72.681507,49.5063239 L76.2069014,58.308 L72.681507,58.308 L72.681507,67.6541408 L67.0236761,67.6541408 L67.0236761,58.308 L54.9715634,58.308 L42.9188451,58.308 L31.2252676,58.308 L19.5316901,58.308 L19.5316901,67.6541408 L13.8732535,67.6541408 L13.8732535,58.308 L9.63139437,58.308 L13.8732535,48.3828732 Z" id="Fill-2"></path>
                        </g>
                    </g>
                </g>
            </g>
        </g>
    </g>
</svg>