<?xml version="1.0" encoding="UTF-8"?>
<svg width="86px" height="87px" viewBox="0 0 86 87" version="1.1" xmlns="http://www.w3.org/2000/svg" xmlns:xlink="http://www.w3.org/1999/xlink">
    <!-- Generator: Sketch 46 (44423) - http://www.bohemiancoding.com/sketch -->
    <title>Fill 1</title>
    <desc>Created with Sketch.</desc>
    <defs></defs>
    <g id="Page-1" stroke="none" stroke-width="1" fill="none" fill-rule="evenodd">
        <g id="2-My-Business-Copy" transform="translate(-698.000000, -591.000000)" fill="#F42341">
            <g id="Pochemu" transform="translate(79.000000, 565.753614)">
                <g id="Icons_2">
                    <g id="Page-1" transform="translate(343.000000, 26.000000)">
                        <path d="M289.33,27.053662 L348.512535,27.053662 L348.512535,19.4832394 L289.33,19.4832394 L289.33,27.053662 Z M340.257746,54.5373239 L342.619718,56.0392958 L343.049718,56.311831 L335.40662,56.311831 L318.406479,45.4104225 L301.224648,56.4269014 L293.581549,56.4269014 L294.011549,56.1543662 L296.373521,54.6523944 L314.687887,43.0242254 L293.309014,29.3126761 L300.516056,29.3066197 L318.406479,40.6622535 L336.109155,29.4277465 L343.322254,29.4277465 L322.12507,43.0242254 L340.257746,54.5373239 Z M289.33,66.5288732 L348.512535,66.5288732 L348.512535,58.9584507 L289.33,58.9584507 L289.33,66.5288732 Z M361.830423,0 L276.006056,0 C276.002423,0 276,0.00242253521 276,0.00605633803 L276,85.8364789 L361.836479,85.8364789 L361.836479,0.00605633803 C361.836479,0.00242253521 361.834056,0 361.830423,0 L361.830423,0 Z" id="Fill-1"></path>
                    </g>
                </g>
            </g>
        </g>
    </g>
</svg>