<?xml version="1.0" encoding="UTF-8"?>
<svg width="86px" height="86px" viewBox="0 0 86 86" version="1.1" xmlns="http://www.w3.org/2000/svg" xmlns:xlink="http://www.w3.org/1999/xlink">
    <g id="Page-1" stroke="none" stroke-width="1" fill="none" fill-rule="evenodd">
        <g id="2-My-Business-Copy" transform="translate(-699.000000, -844.000000)" fill="#F42341">
            <path d="M699,844 L784.83769,844 L784.83769,929.83769 L759.68693,929.83769 L741.919451,929.83769 L724.151366,929.83769 L699,929.83769 L699,844 Z M747.616042,895.796732 L747.616042,883.545972 L753.312634,883.545972 L753.312634,895.796732 L747.616042,895.796732 Z M730.525056,895.796732 L730.525056,883.545972 L736.221648,883.545972 L736.221648,895.796732 L730.525056,895.796732 Z M759.009225,862.377254 L753.312634,873.771042 L753.312634,879.467634 L747.616042,879.467634 L747.616042,873.771042 L741.918845,862.377254 L736.222254,873.771042 L736.222254,879.467634 L730.525056,879.467634 L730.525056,873.771042 L724.828465,862.377254 L719.131873,873.771042 L719.131873,907.951803 L730.525056,907.951803 L730.525056,900.002254 L736.222254,900.002254 L736.222254,907.951803 L747.616042,907.951803 L747.616042,900.002254 L753.312634,900.002254 L753.312634,907.951803 L764.706423,907.951803 L764.706423,873.771042 L759.009225,862.377254 Z" id="Combined-Shape"></path>
        </g>
    </g>
</svg>