<?xml version="1.0" encoding="UTF-8"?>
<svg width="86px" height="86px" viewBox="0 0 86 86" version="1.1" xmlns="http://www.w3.org/2000/svg" xmlns:xlink="http://www.w3.org/1999/xlink">
    <!-- Generator: Sketch 45.2 (43514) - http://www.bohemiancoding.com/sketch -->
    <title>Fill 1</title>
    <desc>Created with Sketch.</desc>
    <defs></defs>
    <g id="Page-1" stroke="none" stroke-width="1" fill="none" fill-rule="evenodd">
        <g id="2-My-Business" transform="translate(-991.000000, -592.000000)">
            <g id="Pochemu" transform="translate(80.000000, 566.000000)">
                <g id="Icons_1" transform="translate(34.000000, 0.000000)">
                    <g id="Page-1" transform="translate(877.000000, 26.000000)">
                        <g id="Fill-1">
                            <polygon fill="#33BE30" points="0 0 0 85.8376901 25.1513662 85.8376901 42.9194507 85.8376901 60.6869296 85.8376901 85.8376901 85.8376901 85.8376901 0"></polygon>
                            <path d="M48.6160423,51.7967324 L54.3126338,51.7967324 L54.3126338,39.5459718 L48.6160423,39.5459718 L48.6160423,51.7967324 Z M31.5250563,51.7967324 L37.2216479,51.7967324 L37.2216479,39.5459718 L31.5250563,39.5459718 L31.5250563,51.7967324 Z M60.0092254,18.3772535 L54.3126338,29.7710423 L54.3126338,35.4676338 L48.6160423,35.4676338 L48.6160423,29.7710423 L42.9188451,18.3772535 L37.2222535,29.7710423 L37.2222535,35.4676338 L31.5250563,35.4676338 L31.5250563,29.7710423 L25.8284648,18.3772535 L20.1318732,29.7710423 L20.1318732,63.9518028 L31.5250563,63.9518028 L31.5250563,56.0022535 L37.2222535,56.0022535 L37.2222535,63.9518028 L48.6160423,63.9518028 L48.6160423,56.0022535 L54.3126338,56.0022535 L54.3126338,63.9518028 L65.7064225,63.9518028 L65.7064225,29.7710423 L60.0092254,18.3772535 Z" id="Fill-2" fill="#FFFFFF"></path>
                        </g>
                    </g>
                </g>
            </g>
        </g>
    </g>
</svg>