<?xml version="1.0" encoding="UTF-8"?>
<svg width="86px" height="87px" viewBox="0 0 86 87" version="1.1" xmlns="http://www.w3.org/2000/svg" xmlns:xlink="http://www.w3.org/1999/xlink">
    <g id="Page-1" stroke="none" stroke-width="1" fill="none" fill-rule="evenodd">
        <g id="2-My-Business-Hower" transform="translate(-698.000000, -591.000000)" fill="#F42341">
            <path d="M711.33,618.807276 L770.512535,618.807276 L770.512535,611.236853 L711.33,611.236853 L711.33,618.807276 Z M762.257746,646.290938 L764.619718,647.792909 L765.049718,648.065445 L757.40662,648.065445 L740.406479,637.164036 L723.224648,648.180515 L715.581549,648.180515 L716.011549,647.90798 L718.373521,646.406008 L736.687887,634.777839 L715.309014,621.06629 L722.516056,621.060233 L740.406479,632.415867 L758.109155,621.18136 L765.322254,621.18136 L744.12507,634.777839 L762.257746,646.290938 Z M711.33,658.282487 L770.512535,658.282487 L770.512535,650.712064 L711.33,650.712064 L711.33,658.282487 Z M783.830423,591.753614 L698.006056,591.753614 C698.002423,591.753614 698,591.756036 698,591.75967 L698,677.590092 L783.836479,677.590092 L783.836479,591.75967 C783.836479,591.756036 783.834056,591.753614 783.830423,591.753614 L783.830423,591.753614 Z" id="Fill-1"></path>
        </g>
    </g>
</svg>