<svg width="20" height="20" viewBox="0 0 20 20" xmlns="http://www.w3.org/2000/svg"><g fill="#F52341" fill-rule="evenodd"><path d="M9.995 9.243c1.856 0 3.306-1.429 3.308-3.258.003-1.92-1.417-3.347-3.326-3.345-1.849.002-3.278 1.435-3.277 3.284.001 1.895 1.416 3.32 3.295 3.32m1.556 3.604c.768-.358 1.487-.65 2.157-1.027.286-.161.605-.474.664-.768.06-.29-.117-.701-.321-.953-.249-.305-.65-.348-1.036-.146-.931.487-1.889.84-2.972.849-1.103.008-2.084-.332-3.03-.835-.38-.202-.787-.197-1.039.111-.214.263-.386.677-.347.996.033.268.351.577.621.727.697.387 1.437.695 2.194 1.052-.755.95-1.48 1.846-2.184 2.759-.384.499-.322 1.008.125 1.389.43.365.976.323 1.397-.12.236-.25.452-.516.678-.773l1.535-1.743c.131.145.217.235.298.33.607.715 1.212 1.431 1.82 2.146.281.332.676.523 1.054.348.305-.142.658-.468.717-.765.06-.304-.148-.72-.353-1.006-.617-.862-1.29-1.684-1.978-2.57M3 0h13.998a3 3 0 0 1 3 3v13.998a3 3 0 0 1-3 3H3a3 3 0 0 1-3-3V3a3 3 0 0 1 3-3z"/><path d="M8.5 5.99A1.512 1.512 0 0 1 9.996 4.5c.83-.002 1.518.7 1.504 1.534-.014.807-.708 1.475-1.522 1.466A1.51 1.51 0 0 1 8.5 5.99"/></g></svg>