<svg width="20" height="20" viewBox="0 0 20 20" xmlns="http://www.w3.org/2000/svg"><path d="M3 0h14a3 3 0 0 1 3 3v14a3 3 0 0 1-3 3l-14-.002a3 3 0 0 1-3-3V3a3 3 0 0 1 3-3zm14.42 13.437a1.027 1.027 0 0 0-.05-.097c-.26-.469-.758-1.044-1.492-1.726l-.016-.016-.007-.008-.008-.007h-.008a9.014 9.014 0 0 1-.633-.64c-.161-.21-.197-.42-.11-.634.063-.161.298-.502.704-1.023.213-.276.382-.497.507-.663.901-1.198 1.292-1.963 1.172-2.296l-.047-.078c-.03-.047-.112-.09-.242-.13a1.23 1.23 0 0 0-.5-.019l-2.249.016a.292.292 0 0 0-.156.004l-.102.023-.039.02-.03.023a.347.347 0 0 0-.087.082.536.536 0 0 0-.078.137c-.245.63-.523 1.216-.835 1.757-.193.323-.37.603-.532.84a4.04 4.04 0 0 1-.406.523 2.898 2.898 0 0 1-.296.27c-.089.067-.157.096-.203.085a5.723 5.723 0 0 1-.133-.031.52.52 0 0 1-.176-.191.857.857 0 0 1-.09-.305 3.358 3.358 0 0 1-.023-.691c.005-.162.008-.27.008-.328 0-.198.004-.413.011-.645l.02-.55c.005-.135.008-.279.008-.43 0-.15-.01-.27-.028-.355a1.216 1.216 0 0 0-.081-.25.42.42 0 0 0-.16-.187.902.902 0 0 0-.262-.106 5.197 5.197 0 0 0-1.055-.101c-.968-.01-1.59.052-1.866.187-.11.057-.208.136-.297.234-.094.115-.107.177-.04.188.313.047.535.159.665.336l.047.093c.036.068.073.188.109.36.036.171.06.361.07.57.026.38.026.705 0 .976-.026.27-.05.481-.074.632a1.267 1.267 0 0 1-.2.54.134.134 0 0 1-.038.038.585.585 0 0 1-.211.04c-.073 0-.161-.037-.266-.11a1.874 1.874 0 0 1-.324-.3 4.02 4.02 0 0 1-.378-.536 9.24 9.24 0 0 1-.438-.812L6.35 7.92a19.482 19.482 0 0 1-.32-.637 12.272 12.272 0 0 1-.36-.808.515.515 0 0 0-.187-.25L5.444 6.2a.829.829 0 0 0-.305-.117L3 6.1c-.218 0-.366.05-.444.148l-.032.047a.253.253 0 0 0-.023.125.63.63 0 0 0 .047.211c.312.734.652 1.442 1.019 2.124.367.682.686 1.232.957 1.648.27.417.546.81.828 1.18.28.369.467.606.558.71.091.104.163.182.215.234l.195.188c.125.125.308.274.55.449.243.174.51.346.805.515.294.17.637.307 1.027.414.39.107.77.15 1.14.13h.898c.183-.017.32-.074.414-.173l.031-.039c.021-.03.04-.08.059-.144a.793.793 0 0 0 .027-.215 2.573 2.573 0 0 1 .051-.605 1.57 1.57 0 0 1 .133-.406.998.998 0 0 1 .3-.344.51.51 0 0 1 .063-.027c.125-.042.272-.001.441.121.17.122.328.273.477.453.148.18.327.381.535.605.208.224.39.39.546.5l.157.094c.104.062.24.12.406.172a.875.875 0 0 0 .437.039l2-.031c.197 0 .351-.033.46-.098.11-.065.174-.137.195-.215a.605.605 0 0 0 .004-.266.98.98 0 0 0-.055-.207z" fill="#F52341" fill-rule="evenodd"/></svg>