<svg width="18" height="27" viewBox="0 0 18 27" xmlns="http://www.w3.org/2000/svg"><title>noun_828812_cc</title><path d="M16.182 4.048c-.77 0-1.393.679-1.393 1.516v7.179h-.65V3.289c0-.837-.624-1.515-1.393-1.515-.77 0-1.392.679-1.392 1.515v9.454h-.65V1.516C10.704.679 10.08 0 9.31 0c-.77 0-1.392.678-1.392 1.516v11.227h-.651V3.289c0-.837-.624-1.515-1.393-1.515s-1.392.679-1.392 1.515v13.565l-1.922-3.04c-.419-.703-1.28-.902-1.926-.446-.646.455-.829 1.393-.41 2.096 0 0 2.718 5.121 3.924 7.39 1.156 2.034 3.71 3.858 6.363 3.858 4.237 0 6.88-3.209 6.88-7.173l.182-6.795v-7.18c0-.836-.624-1.515-1.392-1.515z" fill="#D8D8D8"/></svg>