<svg width="25" height="26" viewBox="0 0 25 26" xmlns="http://www.w3.org/2000/svg"><title>noun_828812_cc copy</title><path d="M9.852 0h4.926l.587 3.223a10.119 10.119 0 0 1 3.627 2.043l3.069-1.18 2.568 4.192-2.453 2.187c.191.777.289 1.59.289 2.427 0 .836-.098 1.65-.289 2.427l2.453 2.187-2.568 4.192-3.07-1.18a10.12 10.12 0 0 1-3.626 2.043l-.587 3.223H9.852l-.587-3.223a10.12 10.12 0 0 1-3.627-2.043l-3.07 1.18L0 17.506l2.463-2.178a10.127 10.127 0 0 1 0-4.872L0 8.278l2.569-4.192 3.069 1.18a10.119 10.119 0 0 1 3.627-2.043L9.852 0zm2.488 6.283c-3.875 0-7.024 3.14-7.024 7.002 0 3.863 3.149 7.003 7.024 7.003 3.874 0 7.023-3.14 7.023-7.003s-3.149-7.002-7.023-7.002zm-.085 12.427a5.489 5.489 0 1 1 0-10.978 5.489 5.489 0 0 1 0 10.978zm.04-1.853a3.596 3.596 0 1 0 0-7.191 3.596 3.596 0 0 0 0 7.19z" fill="#D8D8D8" fill-rule="evenodd"/></svg>