<?xml version="1.0" encoding="UTF-8"?>
<svg width="45px" height="26px" viewBox="0 0 45 26" version="1.1" xmlns="http://www.w3.org/2000/svg" xmlns:xlink="http://www.w3.org/1999/xlink">
    <!-- Generator: Sketch 45.2 (43514) - http://www.bohemiancoding.com/sketch -->
    <title>Fill 1</title>
    <desc>Created with Sketch.</desc>
    <defs></defs>
    <g id="Page-1" stroke="none" stroke-width="1" fill="none" fill-rule="evenodd">
        <g id="2-My-Business-Hower" transform="translate(-147.000000, -1655.000000)" fill="#81A638">
            <path d="M161.134895,1671.08845 C161.011913,1671.36875 160.987522,1671.55139 160.974941,1671.92912 L163.777856,1671.92912 C163.766046,1671.55139 163.729074,1671.36875 163.606092,1671.08845 C163.408909,1670.62551 162.967047,1670.30908 162.376527,1670.30908 C161.786521,1670.30908 161.331821,1670.62551 161.134895,1671.08845 L161.134895,1671.08845 Z M153.152609,1663.41127 C153.152609,1662.4368 153.017303,1661.47455 151.886586,1661.47455 C150.755356,1661.47455 150.607982,1662.4368 150.607982,1663.41127 C150.607982,1664.38548 150.755356,1665.34773 151.886586,1665.34773 C153.017303,1665.34773 153.152609,1664.38548 153.152609,1663.41127 L153.152609,1663.41127 Z M161.385481,1663.02159 L164.188396,1663.02159 C164.176328,1662.64386 164.139357,1662.46122 164.016631,1662.18092 C163.819706,1661.71823 163.377073,1661.40155 162.787323,1661.40155 C162.19706,1661.40155 161.742103,1661.71823 161.545435,1662.18092 C161.422452,1662.46122 161.397805,1662.64386 161.385481,1663.02159 L161.385481,1663.02159 Z M167.543831,1663.02159 L170.347003,1663.02159 C170.334936,1662.64386 170.297707,1662.46122 170.174982,1662.18092 C169.978313,1661.71823 169.53568,1661.40155 168.945417,1661.40155 C168.355668,1661.40155 167.900967,1661.71823 167.703528,1662.18092 C167.58106,1662.46122 167.556412,1662.64386 167.543831,1663.02159 L167.543831,1663.02159 Z M187.789415,1665.79643 C187.789415,1665.79643 187.651285,1670.62245 186.272549,1672.48668 C185.026296,1674.17336 183.101715,1674.95069 181.933513,1674.51471 C181.935054,1674.51115 181.937364,1674.51013 181.939162,1674.50835 C183.970549,1672.18806 185.668936,1668.15132 185.668936,1668.15132 C185.668936,1668.15132 184.279674,1670.04505 182.848305,1672.25165 C182.423645,1672.90612 181.644159,1674.04312 181.443895,1674.21151 C180.488794,1673.33981 180.459781,1671.1617 181.941986,1669.51776 C183.625224,1667.65379 187.789415,1665.79643 187.789415,1665.79643 L187.789415,1665.79643 Z M182.561518,1667.73671 C182.471143,1667.58333 182.263434,1667.1443 182.181788,1666.97337 C181.780235,1666.13448 181.104218,1663.40669 181.104218,1663.40669 C181.104218,1663.40669 181.280347,1665.9053 182.171518,1667.81938 C182.172545,1667.82039 182.174086,1667.82116 182.174086,1667.8237 C181.319373,1667.84023 180.255924,1666.90342 179.839992,1665.53316 C179.379901,1664.01742 180.402783,1660.87171 180.402783,1660.87171 C180.402783,1660.87171 182.663704,1663.01217 183.319437,1664.59635 C183.898403,1665.99203 183.378233,1667.38823 182.561518,1667.73671 L182.561518,1667.73671 Z M177.840698,1675.52174 L176.586485,1675.52174 L176.586485,1671.73377 C176.586485,1670.79618 176.033451,1670.38234 175.33253,1670.38234 C174.631865,1670.38234 174.066507,1670.80865 174.066507,1671.73377 L174.066507,1675.52174 L172.812551,1675.52174 L172.812551,1666.85025 L174.066507,1666.85025 L174.066507,1669.96798 C174.496559,1669.50529 175.061918,1669.27408 175.676572,1669.27408 C177.066347,1669.27408 177.840698,1670.19945 177.840698,1671.53918 L177.840698,1675.52174 Z M177.833252,1666.61446 L176.57904,1666.61446 L176.57904,1662.85091 C176.57904,1661.88891 176.026005,1661.47455 175.325341,1661.47455 C174.62442,1661.47455 174.034413,1661.90086 174.034413,1662.85091 L174.034413,1666.61446 L172.780457,1666.61446 L172.780457,1660.43955 L174.009765,1660.43955 L174.009765,1661.06045 C174.440075,1660.59776 175.042148,1660.36655 175.669383,1660.36655 C176.308941,1660.36655 176.837328,1660.57334 177.206018,1660.92665 C177.685366,1661.38934 177.833252,1661.97412 177.833252,1662.66828 L177.833252,1666.61446 Z M171.588891,1663.88642 L167.543831,1663.88642 C167.543831,1664.94584 168.109703,1665.61558 169.130275,1665.61558 C169.830683,1665.61558 170.19963,1665.42073 170.642006,1664.98247 L171.441005,1665.72521 C170.80196,1666.35857 170.19963,1666.68772 169.105114,1666.68772 C167.543831,1666.68772 166.302456,1665.87147 166.302456,1663.5209 C166.302456,1661.52339 167.347676,1660.36655 168.945417,1660.36655 C170.617358,1660.36655 171.588891,1661.58418 171.588891,1663.33801 L171.588891,1663.88642 Z M165.430284,1663.88642 L161.385481,1663.88642 C161.385481,1664.94584 161.951096,1665.61558 162.971668,1665.61558 C163.671819,1665.61558 164.040766,1665.42073 164.483655,1664.98247 L165.282654,1665.72521 C164.643352,1666.35857 164.040766,1666.68772 162.946764,1666.68772 C161.385481,1666.68772 160.143849,1665.87147 160.143849,1663.5209 C160.143849,1661.52339 161.188812,1660.36655 162.787323,1660.36655 C164.459008,1660.36655 165.430284,1661.58418 165.430284,1663.33801 L165.430284,1663.88642 Z M160.306884,1660.95107 L159.359998,1661.88891 C159.077576,1661.60885 158.856259,1661.47455 158.42595,1661.47455 C157.749677,1661.47455 157.184318,1662.01075 157.184318,1662.86337 L157.184318,1666.61446 L155.930362,1666.61446 L155.930362,1660.43955 L157.15967,1660.43955 L157.15967,1661.10929 C157.479321,1660.67076 158.118109,1660.36655 158.819287,1660.36655 C159.421874,1660.36655 159.876575,1660.52476 160.306884,1660.95107 L160.306884,1660.95107 Z M155.260764,1669.45645 L155.973753,1669.45645 L155.973753,1667.58078 L157.227452,1667.58078 L157.227452,1669.45645 L158.432625,1669.45645 L158.432625,1670.4065 L157.227452,1670.4065 L157.227452,1673.74399 C157.227452,1674.19422 157.449025,1674.46206 157.916049,1674.46206 L158.432625,1674.46206 L158.432625,1675.52174 L157.682152,1675.52174 C156.514463,1675.52174 155.973753,1674.69378 155.973753,1673.80479 L155.973753,1670.4065 L155.260764,1670.4065 L155.260764,1669.45645 Z M154.406565,1666.57809 C154.406565,1668.08824 153.398573,1669.18429 151.738956,1669.18429 C150.79207,1669.18429 150.189997,1668.96503 149.538115,1668.36804 L150.33737,1667.57646 C150.730708,1667.94198 151.075006,1668.12461 151.68966,1668.12461 C152.747204,1668.12461 153.152609,1667.38162 153.152609,1666.55341 L153.152609,1665.76184 C152.697652,1666.29778 152.181332,1666.4682 151.542544,1666.4682 C150.915309,1666.4682 150.39899,1666.26115 150.054691,1665.92005 C149.452104,1665.32331 149.35377,1664.45873 149.35377,1663.41127 C149.35377,1662.3638 149.452104,1661.49922 150.054691,1660.90223 C150.39899,1660.56139 150.927633,1660.36655 151.554611,1660.36655 C152.218304,1660.36655 152.722556,1660.53671 153.189581,1661.09708 L153.189581,1660.43955 L154.406565,1660.43955 L154.406565,1666.57809 Z M159.733566,1672.42818 C159.733566,1670.43117 160.778529,1669.27408 162.376527,1669.27408 C164.048468,1669.27408 165.019745,1670.49171 165.019745,1672.24554 L165.019745,1672.79344 L160.974941,1672.79344 C160.974941,1673.85337 161.540813,1674.52311 162.561129,1674.52311 C163.261536,1674.52311 163.630483,1674.32852 164.073116,1673.88974 L164.872371,1674.63274 C164.23307,1675.26636 163.630483,1675.59499 162.536481,1675.59499 C160.974941,1675.59499 159.733566,1674.779 159.733566,1672.42818 L159.733566,1672.42818 Z M166.445208,1672.42818 C166.445208,1670.11424 167.821889,1669.27408 169.223475,1669.27408 C170.084093,1669.27408 170.686166,1669.51776 171.276429,1670.13866 L170.415554,1670.96661 C170.022217,1670.54029 169.71489,1670.38234 169.223475,1670.38234 C168.744127,1670.38234 168.338465,1670.57692 168.067597,1670.93023 C167.797241,1671.27133 167.698907,1671.70985 167.698907,1672.42818 C167.698907,1673.14726 167.797241,1673.59748 168.067597,1673.93858 C168.338465,1674.29164 168.744127,1674.48673 169.223475,1674.48673 C169.71489,1674.48673 170.022217,1674.32852 170.415554,1673.90195 L171.276429,1674.7182 C170.686166,1675.33936 170.084093,1675.59499 169.223475,1675.59499 C167.821889,1675.59499 166.445208,1674.74237 166.445208,1672.42818 L166.445208,1672.42818 Z M191.059867,1667.9636 C191.059867,1663.6463 187.715728,1660.1455 181.036693,1660.11676 L181.036693,1658.63128 C181.036693,1656.62563 179.45256,1655 177.498197,1655 L151.132004,1655 C149.177127,1655 147.592737,1656.62563 147.592737,1658.63128 L147.592737,1677.33051 C147.592737,1679.33591 149.177127,1680.96154 151.132004,1680.96154 L177.498197,1680.96154 C179.45256,1680.96154 181.036693,1679.33591 181.036693,1677.33051 L181.036693,1675.80993 C187.715728,1675.78093 191.059867,1672.28014 191.059867,1667.9636 L191.059867,1667.9636 Z" id="Fill-1"></path>
        </g>
    </g>
</svg>