<?xml version="1.0" encoding="UTF-8"?>
<svg width="39px" height="26px" viewBox="0 0 39 26" version="1.1" xmlns="http://www.w3.org/2000/svg" xmlns:xlink="http://www.w3.org/1999/xlink">
    <!-- Generator: Sketch 45.2 (43514) - http://www.bohemiancoding.com/sketch -->
    <title>Fill 1</title>
    <desc>Created with Sketch.</desc>
    <defs></defs>
    <g id="Page-1" stroke="none" stroke-width="1" fill="none" fill-rule="evenodd">
        <g id="2-My-Business-Hower" transform="translate(-206.000000, -1655.000000)">
            <g id="Fill-1" transform="translate(206.000000, 1655.000000)">
                <path d="M32.10596,5.0552303 L32.10596,4.15228697 C32.10596,3.35153528 31.7929535,2.62893015 31.286977,2.10820361 C30.7860653,1.59273693 30.0949693,1.27388898 29.3316994,1.27388898 L4.45300129,1.27388898 C3.68998465,1.27388898 2.99863536,1.59273693 2.49797692,2.10795314 C1.99225364,2.62893015 1.67924715,3.35153528 1.67924715,4.15228697 L1.67924715,21.8597446 C1.67924715,22.6602458 1.99225364,23.3826004 2.49823016,23.9038279 C2.99863536,24.4187937 3.68998465,24.7378921 4.45300129,24.7378921 L29.3316994,24.7378921 C30.094716,24.7378921 30.7858121,24.4187937 31.2867238,23.9038279 C31.7927003,23.3826004 32.10596,22.6602458 32.10596,21.8597446 L32.10596,20.7742088 L33.2376963,20.7742088 L33.2376963,21.8597446 C33.2376963,22.9575533 32.8028806,23.9541723 32.1001355,24.6770279 C31.3920722,25.4061453 30.4130406,25.8569908 29.3316994,25.8569908 L4.45300129,25.8569908 C3.37115361,25.8569908 2.39262845,25.4061453 1.68481846,24.6775289 C0.982073305,23.9541723 0.547510893,22.9575533 0.547510893,21.8597446 L0.547510893,4.15228697 C0.547510893,3.05422773 0.982073305,2.05760873 1.68456522,1.33425218 C2.39237521,0.605385306 3.37115361,0.154539815 4.45300129,0.154539815 L29.3316994,0.154539815 C30.4132938,0.154539815 31.3923255,0.605385306 32.1001355,1.33425218 C32.8031339,2.05760873 33.2376963,3.05422773 33.2376963,4.15228697 L33.2376963,5.0552303 L32.10596,5.0552303 Z" fill="#E6D03A"></path>
                <path d="M7.643144,5.03558547 L7.19212089,5.03558547 L5.62911436,5.03558547 L5.62911436,7.79826645 L7.19212089,7.79826645 L7.643144,7.79826645 C8.02655163,7.79826645 8.37577166,7.64272476 8.62901316,7.39200457 C8.8825079,7.14153485 9.03977087,6.79613711 9.03977087,6.41692596 C9.03977087,6.03771481 8.8825079,5.69231707 8.62901316,5.44184735 C8.37577166,5.19137764 8.02655163,5.03558547 7.643144,5.03558547 L7.643144,5.03558547 Z M7.19212089,3.97058824 L7.643144,3.97058824 C8.32385715,3.97058824 8.94227289,4.24585445 9.39025711,4.68893538 C9.83824132,5.13176584 10.1165537,5.74366336 10.1165537,6.41692596 C10.1165537,7.09043903 9.83824132,7.70208608 9.39025711,8.14516701 C8.94227289,8.58824794 8.32385715,8.86326369 7.643144,8.86326369 L7.19212089,8.86326369 L5.62911436,8.86326369 L5.62911436,12.0261953 L4.55233151,12.0261953 L4.55233151,8.86326369 L4.55233151,8.33076507 L4.55233151,4.50308685 L4.55233151,3.97058824 L5.09072294,3.97058824 L7.19212089,3.97058824 Z" id="Fill-4" fill="#070808"></path>
                <path d="M14.0726358,5.03558547 L13.6175608,5.03558547 L12.0368274,5.03558547 L12.0368274,7.5422864 L13.6175608,7.5422864 L14.0726358,7.5422864 C14.4712379,7.5422864 14.8300811,7.39626256 15.0871212,7.16107149 C15.3330187,6.93614969 15.4857233,6.62732052 15.4857233,6.28893594 C15.4857233,5.95055135 15.3330187,5.64172219 15.0871212,5.41680038 C14.8300811,5.18160932 14.4712379,5.03558547 14.0726358,5.03558547 L14.0726358,5.03558547 Z M13.6175608,3.97058824 L14.0726358,3.97058824 C14.7472711,3.97058824 15.3644206,4.22656829 15.814684,4.63859097 C16.27609,5.06088291 16.5625062,5.64497829 16.5625062,6.28893594 C16.5625062,6.93289358 16.27609,7.51698896 15.814684,7.93903043 C15.5654944,8.16720834 15.26515,8.34729607 14.9323907,8.46301308 L16.8420848,12.0261953 L15.4624251,12.0261953 L13.7386102,8.60728364 L13.6175608,8.60728364 L12.0368274,8.60728364 L12.0368274,12.0261953 L10.9600445,12.0261953 L10.9600445,8.60728364 L10.9600445,8.07478502 L10.9600445,4.50308685 L10.9600445,3.97058824 L11.4984359,3.97058824 L13.6175608,3.97058824 Z" id="Fill-6" fill="#070808"></path>
                <path d="M21.4497572,5.54779604 C21.1301664,5.23195373 20.6897795,5.03558547 20.2060882,5.03558547 C19.7223969,5.03558547 19.2817567,5.23195373 18.9624192,5.54779604 C18.6428284,5.86388883 18.4445403,6.29945566 18.4445403,6.77785282 L18.4445403,9.21041472 C18.4445403,9.68906235 18.6428284,10.1243787 18.9624192,10.4404715 C19.2817567,10.7565643 19.7223969,10.9526821 20.2060882,10.9526821 C20.6897795,10.9526821 21.1301664,10.7565643 21.4497572,10.4404715 C21.769348,10.1243787 21.9676361,9.68906235 21.9676361,9.21041472 L21.9676361,6.77785282 C21.9676361,6.29945566 21.769348,5.86388883 21.4497572,5.54779604 M20.2060882,3.97058824 C20.987085,3.97058824 21.6971742,4.28643055 22.2112544,4.79488407 C22.7253346,5.3033376 23.0444189,6.00540422 23.0444189,6.77785282 L23.0444189,9.21041472 C23.0444189,9.98286332 22.7253346,10.6851804 22.2112544,11.1936339 C21.6971742,11.7020875 20.987085,12.0176793 20.2060882,12.0176793 C19.4250914,12.0176793 18.7152555,11.7020875 18.2011753,11.1936339 C17.687095,10.6851804 17.3677575,9.98286332 17.3677575,9.21041472 L17.3677575,6.77785282 C17.3677575,6.00540422 17.687095,5.3033376 18.2011753,4.79488407 C18.7152555,4.28643055 19.4250914,3.97058824 20.2060882,3.97058824" id="Fill-8" fill="#070808"></path>
                <path d="M5.55339516,14.2941176 L5.55845999,20.3835374 C5.57770634,20.4614335 5.62151712,20.5295613 5.68077563,20.5794047 C5.74433925,20.6332557 5.82816218,20.6650654 5.91932912,20.6650654 L6.52786844,20.6650654 L6.52786844,21.6589292 L5.91932912,21.6589292 C5.58353089,21.6589292 5.27153737,21.5372009 5.02918525,21.3328176 C4.78860583,21.1296867 4.6181743,20.8439007 4.56322089,20.5147835 L4.5571431,20.4799682 L4.5571431,20.4356351 L4.55233151,14.2941176 L5.55339516,14.2941176 Z" id="Fill-10" fill="#070808"></path>
                <path d="M10.9212003,17.2446577 C10.6915102,17.0172312 10.3752116,16.8762168 10.027511,16.8762168 C9.67981043,16.8762168 9.36325856,17.0172312 9.13331528,17.2446577 C8.90362524,17.4715833 8.76105027,17.7846704 8.76105027,18.1285654 L8.76105027,18.2768434 L11.2937185,18.2768434 L11.2937185,18.1285654 C11.2937185,17.7846704 11.1508903,17.4715833 10.9212003,17.2446577 M10.027511,15.8823529 C10.652511,15.8823529 11.2205317,16.1345759 11.6317959,16.5415892 C12.0433133,16.9486025 12.2985808,17.5104061 12.2985808,18.1285654 L12.2985808,18.7737754 L12.2985808,19.2709577 L11.7961496,19.2709577 L8.76105027,19.2709577 L8.76105027,19.5141638 C8.76105027,19.5497305 8.75978406,19.5379585 8.76029055,19.5507324 C8.77295262,19.8648214 8.94819574,20.1616281 9.20472938,20.3842956 C9.47063295,20.6147278 9.81808029,20.7594993 10.1612225,20.7594993 C10.2030074,20.7594993 10.1966763,20.7610021 10.2075657,20.7605012 C10.490943,20.74923 10.7550738,20.6921229 10.9814717,20.5844209 C11.1790001,20.4909957 11.3509511,20.3549907 11.4844094,20.1734001 L12.2970613,20.7557422 C12.0630662,21.0740892 11.7606958,21.3122859 11.4132485,21.477596 C11.0597234,21.6459116 10.6621342,21.7345779 10.2468181,21.7506079 L10.1612225,21.7536136 C9.57319576,21.7536136 8.98744817,21.5129122 8.54503527,21.129944 C8.0929992,20.7379589 7.78328484,20.1916844 7.7592269,19.5893048 L7.756188,19.5141638 L7.756188,19.2709577 L7.756188,18.8213646 L7.756188,18.7737754 L7.756188,18.1285654 C7.756188,17.5104061 8.01145543,16.9486025 8.42297287,16.5415892 C8.83423706,16.1345759 9.40225775,15.8823529 10.027511,15.8823529" id="Fill-12" fill="#070808"></path>
                <path d="M17.9040634,20.7494805 C17.669815,21.0678275 17.3676979,21.3062747 17.0205038,21.4715847 C16.6664722,21.6399003 16.2691363,21.7283161 15.853567,21.7445967 L15.7682246,21.7473518 C15.1799446,21.7473518 14.5944503,21.5066504 14.1520374,21.1236822 C13.7000013,20.7314467 13.390287,20.1849217 13.3659758,19.5832935 L13.3629369,19.5079021 L13.3629369,18.8151029 L13.3629369,18.1225541 L13.3659758,18.0471627 C13.390287,17.4450335 13.7000013,16.8985086 14.1520374,16.5067739 C14.5944503,16.1230543 15.1799446,15.8823529 15.7682246,15.8823529 L15.853567,15.8858595 C16.2691363,15.9018896 16.6664722,15.9905559 17.0205038,16.1588715 C17.3676979,16.3236806 17.669815,16.5623782 17.9040634,16.8804748 L17.0914115,17.4630673 C16.9579532,17.2814768 16.785749,17.1454717 16.5884738,17.0515456 C16.3618227,16.9440941 16.0976918,16.8872374 15.8145678,16.8759663 C15.8034252,16.8754654 15.8102627,16.8764672 15.7682246,16.8764672 C15.4248292,16.8764672 15.0778883,17.0212387 14.8117315,17.2521718 C14.2685285,17.7233054 14.3680524,18.1909323 14.3680524,18.8151029 C14.3680524,19.4395239 14.2685285,19.9071508 14.8117315,20.3782844 C15.0778883,20.6087165 15.4248292,20.753488 15.7682246,20.753488 C15.8102627,20.753488 15.8034252,20.7547403 15.8145678,20.7544899 C16.0976918,20.7432187 16.3618227,20.6858612 16.5884738,20.5781592 C16.785749,20.484734 16.9579532,20.3487289 17.0914115,20.1673889 L17.9040634,20.7494805 Z" id="Fill-16" fill="#070808"></path>
                <polygon id="Fill-17" fill="#E6D03A" points="30.1831835 14.898237 34.0294153 14.898237 34.0294153 11.1176471 30.1831835 11.1176471"></polygon>
                <polygon id="Fill-18" fill="#070808" points="30.1831835 10.1335311 34.0294153 10.1335311 34.0294153 6.35294118 30.1831835 6.35294118"></polygon>
                <polygon id="Fill-19" fill="#070808" points="30.1831835 19.6629429 34.0294153 19.6629429 34.0294153 15.8823529 30.1831835 15.8823529"></polygon>
                <polygon id="Fill-20" fill="#070808" points="34.9889682 14.898237 38.8352001 14.898237 38.8352001 11.1176471 34.9889682 11.1176471"></polygon>
                <polygon id="Fill-21" fill="#070808" points="34.9889682 10.1335311 38.8352001 10.1335311 38.8352001 6.35294118 34.9889682 6.35294118"></polygon>
                <polygon id="Fill-22" fill="#070808" points="34.9889682 19.6629429 38.8352001 19.6629429 38.8352001 15.8823529 34.9889682 15.8823529"></polygon>
                <polygon id="Fill-23" fill="#070808" points="25.3773987 14.898237 29.2236306 14.898237 29.2236306 11.1176471 25.3773987 11.1176471"></polygon>
                <polygon id="Fill-24" fill="#070808" points="25.3773987 10.1335311 29.2236306 10.1335311 29.2236306 6.35294118 25.3773987 6.35294118"></polygon>
                <polygon id="Fill-25" fill="#070808" points="25.3773987 19.6629429 29.2236306 19.6629429 29.2236306 15.8823529 25.3773987 15.8823529"></polygon>
                <path d="M20.0464686,13.5 L20.0464686,16.444522 L20.0510269,16.4405145 C20.4389929,16.1161562 20.9041975,15.7685042 21.4230894,15.7614911 L21.4251153,15.7614911 L21.4418292,15.7614911 L21.4456279,15.7594873 C22.4945542,15.7594873 23.4082495,16.2947411 23.4274958,17.7334392 L23.4274958,17.7354429 L23.4277491,17.7522244 L23.4295218,17.7559814 L23.4295218,21.5072664 L22.4246595,21.5072664 L22.4246595,18.0788369 L22.426179,17.9120241 C22.328681,16.8387613 20.9490213,16.4420173 20.0464686,17.5563571 L20.0464686,21.5072664 L18.9696857,21.5072664 L18.9696857,13.5 L20.0464686,13.5 Z" id="Fill-26" fill="#070808"></path>
            </g>
        </g>
    </g>
</svg>