<?xml version="1.0" encoding="UTF-8"?>
<svg width="48px" height="26px" viewBox="0 0 48 26" version="1.1" xmlns="http://www.w3.org/2000/svg" xmlns:xlink="http://www.w3.org/1999/xlink">
    <!-- Generator: Sketch 45.2 (43514) - http://www.bohemiancoding.com/sketch -->
    <title>Fill 1</title>
    <desc>Created with Sketch.</desc>
    <defs></defs>
    <g id="Page-1" stroke="none" stroke-width="1" fill="none" fill-rule="evenodd">
        <g id="2-My-Business-Hower" transform="translate(-84.000000, -1655.000000)" fill="#003874">
            <g id="Fill-1" transform="translate(84.000000, 1655.000000)">
                <path d="M43.6073625,25.4751891 L19.0703982,25.4751891 C16.9462841,25.4751891 15.2183183,23.6979199 15.2183183,21.5135626 L16.3345773,21.5135626 C16.3345773,23.0832966 17.5619875,24.360436 19.0703982,24.360436 L43.6073625,24.360436 C45.1157732,24.360436 46.3429337,23.0832966 46.3429337,21.5135626 L46.3429337,3.97833907 C46.3429337,2.40810617 45.1157732,1.13071735 43.6073625,1.13071735 L19.0703982,1.13071735 C17.5619875,1.13071735 16.3345773,2.40810617 16.3345773,3.97833907 L16.3345773,4.87233664 L15.2183183,4.87233664 L15.2183183,3.97833907 C15.2183183,1.79348285 16.9462841,0.0162136836 19.0703982,0.0162136836 L43.6073625,0.0162136836 C45.7312268,0.0162136836 47.4589428,1.79348285 47.4589428,3.97833907 L47.4589428,21.5135626 C47.4589428,23.6979199 45.7312268,25.4751891 43.6073625,25.4751891"></path>
                <path d="M13.3109316,6.36915486 C7.0340047,6.36915486 0,9.67075972 0,13.7438865 C0,17.8160155 7.0340047,21.1181192 13.3109316,21.1181192 C19.5881083,21.1181192 22.7285699,17.8160155 22.7285699,13.7438865 C22.7285699,9.67075972 19.5881083,6.36915486 13.3109316,6.36915486 M15.1907625,17.8621621 C12.9127851,17.8621621 11.0661746,16.0182921 11.0661746,13.7438865 C11.0661746,11.468982 12.9127851,9.62461308 15.1907625,9.62461308 C17.4684902,9.62461308 19.3151007,11.468982 19.3151007,13.7438865 C19.3151007,16.0182921 17.4684902,17.8621621 15.1907625,17.8621621" id="Fill-3"></path>
                <path d="M24.120667,11.6584539 C24.6739257,12.1982449 25.2773899,12.4743764 26.132131,12.4743764 C26.8614835,12.4743764 27.3897644,12.1982449 27.3897644,11.6584539 C27.3897644,11.2062169 27.0503158,11.0682758 26.6102066,11.0303608 L25.4784614,10.9300854 C24.4223991,10.842282 23.643091,10.2146878 23.643091,9.12213493 C23.643091,7.8290313 24.6739257,7.16327251 26.0192313,7.16327251 C27.1382378,7.16327251 27.892568,7.50251266 28.52101,8.02983153 L27.729213,8.95875088 C27.2261597,8.60753755 26.7108672,8.36882224 26.0192313,8.36882224 C25.2019569,8.36882224 24.9252026,8.69534089 24.9252026,9.13460699 C24.9252026,9.41123738 25.1267737,9.68711944 25.7677046,9.73725714 L26.823767,9.81283785 C28.1438449,9.90064118 28.6718761,10.7040916 28.6718761,11.7213131 C28.6718761,12.9642791 27.5156527,13.6799261 26.0317202,13.6799261 C25.0008854,13.6799261 24.0454837,13.3032698 23.2279596,12.5372356 L24.120667,11.6584539 Z" id="Fill-5"></path>
                <path d="M33.4830066,13.0391114 L33.457779,13.0391114 C33.1937634,13.478627 32.7536542,13.6796767 31.8859246,13.6796767 C30.4654358,13.6796767 29.6356726,12.8385606 29.6356726,11.7335357 C29.6356726,10.7165636 30.3397974,9.85025404 31.7103305,9.85025404 L33.4830066,9.85025404 L33.4830066,9.18474469 C33.4830066,8.58209454 33.092853,8.3685728 32.1754176,8.3685728 C31.5090093,8.3685728 31.1945385,8.49404177 30.9684892,8.85822605 L29.9623825,8.09219186 C30.4529469,7.41421044 31.1570718,7.16327251 32.1124735,7.16327251 C33.6840781,7.16327251 34.7651183,7.69034194 34.7651183,9.26007596 L34.7651183,13.6043454 L33.4830066,13.6043454 L33.4830066,13.0391114 Z M33.4830066,10.9046424 L31.9488687,10.9046424 C31.1945385,10.9046424 30.842601,11.2062169 30.842601,11.6706765 C30.842601,12.09772 31.1820496,12.4743764 32.0495294,12.4743764 C33.1183304,12.4743764 33.4830066,12.36113 33.4830066,11.3693515 L33.4830066,10.9046424 Z" id="Fill-7"></path>
                <path d="M36.6845663,8.33421068 L36.0433856,8.33421068 L36.0433856,7.35515364 L36.6845663,7.35515364 L36.6845663,6.51378818 C36.6845663,5.32120939 37.4261578,4.78091957 38.4195258,4.78091957 L39.2492891,4.78091957 L39.2492891,5.98621986 L38.5201865,5.98621986 C38.1050551,5.98621986 37.9671775,6.12465977 37.9671775,6.51378818 L37.9671775,7.35515364 L39.2492891,7.35515364 L39.2492891,8.33421068 L37.9671775,8.33421068 L37.9671775,13.7208953 L36.6845663,13.7208953 L36.6845663,8.33421068 Z" id="Fill-9"></path>
                <path d="M40.5296035,10.9046424 C40.5296035,11.946808 41.171034,12.4743764 42.0510027,12.4743764 C42.5413173,12.4743764 43.0693485,12.2483826 43.4467634,11.8592542 L44.3769375,12.6502325 C43.7482457,13.3781021 42.9309714,13.6796767 42.0759805,13.6796767 C40.7686412,13.6796767 39.2472421,13.0520824 39.2472421,10.4404321 C39.2472421,7.96697233 40.642753,7.16327251 41.8751588,7.16327251 C43.2831587,7.16327251 44.5028258,8.20568764 44.5028258,9.85025404 L44.5028258,10.9046424 L40.5296035,10.9046424 Z M43.2202146,9.85025404 C43.182498,8.88341962 42.6292393,8.3685728 41.8751588,8.3685728 C41.1205788,8.3685728 40.5545813,8.88341962 40.5296035,9.85025404 L43.2202146,9.85025404 Z" id="Fill-11"></path>
                <polygon id="Fill-14" points="24.0289237 19.1993805 26.9575734 15.3302967 24.1902804 15.3302967 24.1902804 14.2941176 28.3870542 14.2941176 28.3870542 15.2267786 25.4586543 19.0265177 28.3870542 19.0265177 28.3870542 20.1320415 24.0289237 20.1320415"></polygon>
                <path d="M29.6084615,14.9829403 C29.9311749,14.6257404 30.4729439,14.234367 31.3838851,14.234367 C32.2948263,14.234367 32.8368451,14.6257404 33.1598083,14.9829403 C33.6094091,15.4778318 33.7937455,15.9614984 33.7937455,17.216687 C33.7937455,18.4831004 33.6094091,18.9667671 33.1598083,19.4621575 C32.8368451,19.8188585 32.2948263,20.2104813 31.3838851,20.2104813 C30.4729439,20.2104813 29.9311749,19.8188585 29.6084615,19.4621575 C29.1586109,18.9667671 28.9742745,18.4831004 28.9742745,17.216687 C28.9742745,15.9614984 29.1586109,15.4778318 29.6084615,14.9829403 M32.3295455,15.8350317 C32.1564492,15.5930737 31.7875267,15.408986 31.3838851,15.408986 C30.9804933,15.408986 30.6115708,15.5930737 30.4384745,15.8350317 C30.219419,16.1458356 30.1504802,16.3760699 30.1504802,17.216687 C30.1504802,18.0687784 30.219419,18.2992622 30.4384745,18.610066 C30.6115708,18.8515252 30.9804933,19.0361117 31.3838851,19.0361117 C31.7875267,19.0361117 32.1564492,18.8515252 32.3295455,18.610066 C32.548601,18.2992622 32.6177896,18.0687784 32.6177896,17.2281613 C32.6177896,16.3760699 32.548601,16.1458356 32.3295455,15.8350317" id="Fill-15"></path>
                <path d="M34.5810234,14.3037117 L35.7572291,14.3037117 L35.7572291,14.9255688 L35.7802087,14.9255688 C36.1491311,14.4648507 36.6794103,14.234367 37.3021074,14.234367 C38.2130486,14.234367 39.2508772,14.9370431 39.2508772,16.2613269 L39.2508772,20.1416355 L38.0746715,20.1416355 L38.0746715,16.6641746 C38.0746715,15.8697041 37.5788617,15.4092354 36.921945,15.4092354 C36.2527891,15.4092354 35.7572291,15.8697041 35.7572291,16.6641746 L35.7572291,20.1416355 L34.5810234,20.1416355 L34.5810234,14.3037117 Z" id="Fill-17"></path>
                <path d="M40.5630138,17.6656813 C40.5630138,18.6215403 41.1509918,19.1049575 41.9580252,19.1049575 C42.4078758,19.1049575 42.891946,18.8976718 43.2378889,18.5407213 L44.0908815,19.2660966 C43.5146432,19.9341004 42.7650587,20.2102319 41.9812546,20.2102319 C40.7818196,20.2102319 39.3868081,19.6347708 39.3868081,17.2396356 C39.3868081,14.9712165 40.6666718,14.234367 41.7964187,14.234367 C43.0880219,14.234367 44.2062791,15.1899766 44.2062791,16.698348 L44.2062791,17.6656813 L40.5630138,17.6656813 Z M43.0303232,16.698348 C42.9958538,15.8118337 42.4885542,15.3396413 41.7964187,15.3396413 C41.1047828,15.3396413 40.5859934,15.8118337 40.5630138,16.698348 L43.0303232,16.698348 Z" id="Fill-19"></path>
            </g>
        </g>
    </g>
</svg>