<?xml version="1.0" encoding="UTF-8"?>
<svg width="18px" height="27px" viewBox="0 0 18 27" version="1.1" xmlns="http://www.w3.org/2000/svg" xmlns:xlink="http://www.w3.org/1999/xlink">
    <!-- Generator: Sketch 46 (44423) - http://www.bohemiancoding.com/sketch -->
    <title>noun_828812_cc</title>
    <desc>Created with Sketch.</desc>
    <defs></defs>
    <g id="Page-1" stroke="none" stroke-width="1" fill="none" fill-rule="evenodd">
        <g id="noun_828812_cc" fill-rule="nonzero" fill="#D8D8D8">
            <path d="M16.1816231,4.04807143 C15.4119679,4.04807143 14.7891059,4.72660714 14.7891059,5.56360714 L14.7891059,12.7427143 L14.1386231,12.7427143 L14.1386231,3.2895 C14.1386231,2.4525 13.5151403,1.77428571 12.7461059,1.77428571 C11.976761,1.77428571 11.3542093,2.4525 11.3542093,3.2895 L11.3542093,12.7430357 L10.7037266,12.7430357 L10.7037266,1.51553571 C10.7037266,0.678535714 10.0799334,0 9.31058862,0 C8.54186448,0 7.91869207,0.678214286 7.91869207,1.51553571 L7.91869207,12.7430357 L7.26789897,12.7430357 L7.26789897,3.2895 C7.26789897,2.4525 6.64410586,1.77428571 5.87538172,1.77428571 C5.10634724,1.77428571 4.48317483,2.4525 4.48317483,3.2895 L4.48317483,13.47075 L4.48317483,16.4764286 L4.48317483,16.8534643 L2.56120931,13.8124286 C2.14224379,13.1101071 1.28010586,12.9105 0.634588621,13.3666071 C-0.0106182756,13.8220714 -0.194032069,14.7603214 0.224623104,15.4632857 C0.224623104,15.4632857 2.9426231,20.5842857 4.14893345,22.8529286 C5.30465759,24.8869286 7.85879552,26.7110357 10.5122438,26.7110357 C14.7493817,26.7110357 17.3922783,23.5022143 17.3922783,19.5377143 L17.5744507,12.7433571 L17.5744507,5.56392857 C17.5741403,4.72660714 16.9503472,4.04807143 16.1816231,4.04807143 Z" id="Shape"></path>
        </g>
    </g>
</svg>