<?xml version="1.0" encoding="UTF-8"?>
<svg width="25px" height="26px" viewBox="0 0 25 26" version="1.1" xmlns="http://www.w3.org/2000/svg" xmlns:xlink="http://www.w3.org/1999/xlink">
    <!-- Generator: Sketch 46 (44423) - http://www.bohemiancoding.com/sketch -->
    <title>noun_828812_cc copy</title>
    <desc>Created with Sketch.</desc>
    <defs></defs>
    <g id="Page-1" stroke="none" stroke-width="1" fill="none" fill-rule="evenodd">
        <g id="noun_828812_cc-copy" fill="#D8D8D8">
            <path d="M9.85176602,0 L14.777649,0 L15.3645064,3.22298986 C16.7208791,3.64841531 17.9470237,4.35405671 18.991588,5.26613522 L22.0606286,4.08629072 L24.6294151,8.27809598 L22.176079,10.4651248 C22.3674804,11.2423012 22.4647358,12.0558453 22.4647358,12.8919594 C22.4647358,13.7280337 22.3674804,14.5416698 22.176079,15.3187787 L24.6294151,17.5058076 L22.0606286,21.6976282 L18.991588,20.5177683 C17.9470237,21.4298131 16.7208791,22.1354944 15.3645064,22.560929 L14.777649,25.7839189 L9.85176602,25.7839189 L9.26490863,22.560929 C7.90856675,22.1354944 6.68236053,21.4298131 5.63782704,20.5177683 L2.56878642,21.6976282 L0,17.5058076 L2.46294151,15.3283863 C2.26972374,14.5478395 2.16467929,13.7320548 2.16467929,12.8919594 C2.16467929,12.0518549 2.26972374,11.2361008 2.46294151,10.4555326 L0,8.27809598 L2.56878642,4.08629072 L5.63782704,5.26613522 C6.68236053,4.35405671 7.90853596,3.64841531 9.26490863,3.22298986 L9.85176602,0 Z M12.3395772,6.28261445 C8.4649976,6.28261445 5.31605838,9.42211917 5.31605838,13.2852299 C5.31605838,17.1482781 8.4649976,20.2878454 12.3395772,20.2878454 C16.2141938,20.2878454 19.363096,17.1482781 19.363096,13.2852299 C19.363096,9.42212654 16.2141938,6.28261445 12.3395772,6.28261445 Z M12.2545558,18.7097752 C9.22325077,18.7097752 6.76589249,16.252417 6.76589249,13.2211119 C6.76589249,10.1898068 9.22325077,7.73244856 12.2545558,7.73244856 C15.2858609,7.73244856 17.7432192,10.1898068 17.7432192,13.2211119 C17.7432192,16.252417 15.2858609,18.7097752 12.2545558,18.7097752 Z M12.2945932,16.8567379 C14.280382,16.8567379 15.8901818,15.2469381 15.8901818,13.2611493 C15.8901818,11.2753606 14.280382,9.6655607 12.2945932,9.6655607 C10.3088045,9.6655607 8.69900463,11.2753606 8.69900463,13.2611493 C8.69900463,15.2469381 10.3088045,16.8567379 12.2945932,16.8567379 Z" id="Combined-Shape"></path>
        </g>
    </g>
</svg>