<svg width="521" height="157" viewBox="0 0 521 157" xmlns="http://www.w3.org/2000/svg"><title>Group</title><g fill="none" fill-rule="evenodd"><path fill="#FFF" d="M0 20h521v110H0z"/><path d="M65 117.697v-22.52L123.672 2.55h45.493v84.343h18.07v30.805h-18.07v36.754h-36.777v-36.754H65zm37.84-30.805h29.548V52.9c0-8.286 1.276-16.996 1.276-16.996h-.425s-3.19 9.348-7.44 15.721l-22.96 34.842v.425zM262.062 157c-43.154 0-57.184-35.267-57.184-78.819S218.909 0 262.063 0s57.184 34.63 57.184 78.181c0 43.552-14.03 78.819-57.184 78.819zm0-33.992c14.668 0 18.92-19.97 18.92-44.827 0-24.644-4.252-44.19-18.92-44.19-14.668 0-18.92 19.546-18.92 44.19 0 24.857 4.252 44.827 18.92 44.827zm72.703-5.311v-22.52L393.438 2.55h45.493v84.343H457v30.805h-18.07v36.754h-36.776v-36.754h-67.388zm37.84-30.805h29.548V52.9c0-8.286 1.276-16.996 1.276-16.996h-.426s-3.188 9.348-7.44 15.721l-22.959 34.842v.425z" fill="#F52341"/></g></svg>