<svg width="58" height="58" viewBox="0 0 58 58" xmlns="http://www.w3.org/2000/svg"><title>Group</title><g fill="#D8D8D8"><path d="M29 .302C13.17.302.302 13.171.302 29 .302 44.83 13.171 57.698 29 57.698c15.83 0 28.698-12.869 28.698-28.698C57.698 13.17 44.829.302 29 .302zm0 54.958C14.516 55.26 2.74 43.484 2.74 29 2.74 14.516 14.516 2.74 29 2.74c14.484 0 26.26 11.776 26.26 26.26 0 14.484-11.776 26.26-26.26 26.26z"/><path d="M25.375 34.317l-8.64-8.64-3.08 3.081 11.72 11.721 20.058-20.058-3.141-3.081z"/></g></svg>