<svg width="19" height="10" viewBox="0 0 19 10" xmlns="http://www.w3.org/2000/svg"><title>Group</title><g fill="#F52341"><path d="M8.934 3A1.924 1.924 0 0 0 7 4.914c0 1.063.862 1.908 1.934 1.908 1.073 0 1.941-.845 1.941-1.908C10.875 3.861 10.007 3 8.934 3z"/><path d="M9.118 0C4.083 0 0 3.716 0 4.946c0 1.231 4.083 4.947 9.118 4.947 5.036 0 9.119-3.716 9.119-4.947C18.237 3.716 14.154 0 9.118 0zm0 8.769c-2.138-.001-3.873-1.71-3.875-3.823.002-2.112 1.737-3.82 3.875-3.822 2.139.001 3.874 1.71 3.876 3.822-.002 2.113-1.737 3.822-3.876 3.823z"/></g></svg>