<svg width="86" height="87" viewBox="0 0 86 87" xmlns="http://www.w3.org/2000/svg"><title>Combined Shape</title><path d="M0 .754h85.838V86.59H0V.754zM37.385 16.39l-1.214 6.67a20.937 20.937 0 0 0-7.505 4.227l-6.35-2.441L17 33.52l5.096 4.506a20.956 20.956 0 0 0-.617 5.042c0 1.738.218 3.426.617 5.041L17 52.614l5.315 8.674 6.35-2.441a20.94 20.94 0 0 0 7.506 4.228l1.214 6.669h10.193l1.214-6.67a20.94 20.94 0 0 0 7.505-4.227l6.35 2.441 5.316-8.674-5.076-4.525c.396-1.608.597-3.291.597-5.021s-.201-3.414-.597-5.022l5.076-4.526-5.315-8.673-6.35 2.441a20.938 20.938 0 0 0-7.506-4.228l-1.214-6.669H37.385zm5.097 12.187c8.017 0 14.533 6.496 14.533 14.49 0 7.993-6.516 14.49-14.533 14.49-8.018 0-14.533-6.497-14.533-14.49 0-7.994 6.515-14.49 14.533-14.49zm.16 25.813C48.916 54.391 54 49.307 54 43.034c0-6.272-5.085-11.357-11.357-11.357-6.273 0-11.357 5.085-11.357 11.357 0 6.273 5.084 11.357 11.357 11.357zm0-3.566a7.79 7.79 0 1 1 0-15.581 7.79 7.79 0 0 1 0 15.58z" fill="#F42341" fill-rule="evenodd"/></svg>