<svg width="80" height="80" viewBox="0 0 80 80" xmlns="http://www.w3.org/2000/svg"><title>Fill 3</title><path d="M17.384 55.785h6.61v-8.141h-6.61v8.14zm0-12.083h6.61v-8.14h-6.61v8.14zm0-12.082h6.61v-8.14h-6.61v8.14zm10.282 24.165h6.61v-8.141h-6.61v8.14zm0-12.083h6.61v-8.14h-6.61v8.14zm0-12.082h6.61v-8.14h-6.61v8.14zm9.906 24.165h6.609v-8.141h-6.61v8.14zm0-12.083h6.609v-8.14h-6.61v8.14zm0-12.082h6.609v-8.14h-6.61v8.14zm18.45-11.21a9.473 9.473 0 0 1 9.473 9.474 9.477 9.477 0 0 1-5.818 8.742v14.517c0 3.154-1.502 5.71-3.355 5.71s-3.356-2.556-3.356-5.71v-1.125h-2.382v-7.4h2.382v-5.765a9.477 9.477 0 0 1-6.418-8.97 9.473 9.473 0 0 1 9.474-9.473zM0 80h80V0H0v80z" fill="#F42341" fill-rule="evenodd"/></svg>