<svg width="86" height="86" viewBox="0 0 86 86" xmlns="http://www.w3.org/2000/svg"><title>Page 1</title><g fill="#F42341" fill-rule="evenodd"><path d="M51.738 40.534c-1.362 1.22-3.67 1.825-6.917 1.825h-9.827V28.694h9.721c2.282 0 3.839.116 4.688.338 1.318.365 2.37 1.113 3.175 2.253.805 1.139 1.203 2.51 1.203 4.112 0 2.208-.681 3.917-2.043 5.137m3.034-14.2c-1.265-.88-2.83-1.477-4.697-1.789-1.297-.235-3.169-.36-5.608-.364H29.971v38.235h5.023V46.873h9.747c5.37 0 9.084-1.131 11.145-3.375 2.052-2.252 3.078-5.011 3.078-8.261 0-1.896-.38-3.632-1.15-5.217-.77-1.576-1.786-2.813-3.042-3.685"/><path d="M0 0h85.838v85.838H0V0zm69.577 64.365v-42.73c0-2.866-2.345-5.21-5.21-5.21H21.634c-2.866 0-5.21 2.344-5.21 5.21v42.73c0 2.866 2.344 5.21 5.21 5.21h42.731c2.866 0 5.21-2.344 5.21-5.21z"/></g></svg>