<svg width="86" height="86" viewBox="0 0 86 86" xmlns="http://www.w3.org/2000/svg"><title>Page 1</title><path d="M0 85.74h85.734V0H0v85.74zm16.708-17.5h52.318V15.92H16.708v52.32zm3.925-3.926H65.1V19.848H20.633v44.466zm3.23-36.306H62.3v-5.015H23.864v5.015zm0 7.004H62.3V29.4H23.864v5.613zm0 7.072H62.3v-5.62H23.864v5.62zm0 19.097H62.3V44.019H23.864v17.162zM45.09 45.985h15.244v13.23-13.23H45.09zm0 13.23h15.244v-13.23H45.09v13.23zm0-13.23v13.23h15.244H45.09v-13.23zm-19.26 0h14.354v13.23-13.23H25.83zm0 13.23h14.354v-13.23H25.83v13.23zm0-13.23v13.23h14.354H25.83v-13.23z" fill="#33BE30" fill-rule="evenodd"/></svg>