<svg width="86" height="86" viewBox="0 0 86 86" xmlns="http://www.w3.org/2000/svg"><title>Fill 2 Copy</title><g fill="none" fill-rule="evenodd"><path fill="#33BE30" d="M0 0v85.838h85.838V0z"/><path d="M37.385 15.638l-1.214 6.669a20.937 20.937 0 0 0-7.505 4.228l-6.35-2.442L17 32.767l5.096 4.505a20.956 20.956 0 0 0-.617 5.042c0 1.738.218 3.426.617 5.041L17 51.861l5.315 8.674 6.35-2.442a20.94 20.94 0 0 0 7.506 4.228l1.214 6.669h10.193l1.214-6.67a20.94 20.94 0 0 0 7.505-4.227l6.35 2.442 5.316-8.674-5.076-4.526c.396-1.608.597-3.291.597-5.021s-.201-3.414-.597-5.022l5.076-4.525-5.315-8.674-6.35 2.442a20.938 20.938 0 0 0-7.506-4.228l-1.214-6.67H37.385zm5.097 12.186c8.017 0 14.533 6.496 14.533 14.49 0 7.993-6.516 14.49-14.533 14.49-8.018 0-14.533-6.497-14.533-14.49 0-7.994 6.515-14.49 14.533-14.49z" fill="#FFF" fill-rule="nonzero"/><path d="M42.643 53.638c-6.273 0-11.357-5.085-11.357-11.357 0-6.273 5.084-11.357 11.357-11.357C48.915 30.924 54 36.008 54 42.28s-5.085 11.357-11.357 11.357zm0-3.567a7.79 7.79 0 1 0 0-15.581 7.79 7.79 0 0 0 0 15.581z" fill="#FFF" fill-rule="nonzero"/></g></svg>