<svg width="86" height="86" viewBox="0 0 86 86" xmlns="http://www.w3.org/2000/svg"><title>Fill 1</title><path d="M66.598 32.031a29.882 29.882 0 0 0-2.501-2.838c-5.385-5.386-12.82-8.722-21.032-8.74H43c-8.238 0-15.698 3.34-21.097 8.74a30.053 30.053 0 0 0-2.501 2.838l-2.753-2.753a33.944 33.944 0 0 1 2.52-2.818c6.1-6.1 14.525-9.874 23.83-9.874h.066c9.28.018 17.68 3.788 23.766 9.874a33.951 33.951 0 0 1 2.52 2.818l-2.753 2.753zm-6.065 6.065a21.451 21.451 0 0 0-2.432-2.906 21.287 21.287 0 0 0-15.036-6.256H43a21.288 21.288 0 0 0-15.1 6.256 21.411 21.411 0 0 0-2.434 2.906l-2.77-2.77a25.354 25.354 0 0 1 2.47-2.87A25.144 25.144 0 0 1 43 25.067h.065a25.146 25.146 0 0 1 17.77 7.389 25.354 25.354 0 0 1 2.469 2.87l-2.77 2.77zM54.28 44.35a12.797 12.797 0 0 0-2.267-3.072 12.703 12.703 0 0 0-8.947-3.733H43a12.708 12.708 0 0 0-9.012 3.733c-.9.9-1.667 1.936-2.267 3.072l-2.83-2.83a16.629 16.629 0 0 1 2.363-2.975A16.56 16.56 0 0 1 43 33.679h.065a16.56 16.56 0 0 1 11.68 4.866 16.66 16.66 0 0 1 2.364 2.975l-2.83 2.83zm-5.285 17.644c0 2.745-2.247 4.992-4.993 4.992H42.13c-2.746 0-4.993-2.246-4.993-4.992V50.72a5.008 5.008 0 0 1 4.993-4.993h1.872a5.008 5.008 0 0 1 4.993 4.993v11.273zM86 0H0v86h86V0z" fill="#F42341" fill-rule="evenodd"/></svg>