<svg width="80" height="80" viewBox="0 0 80 80" xmlns="http://www.w3.org/2000/svg"><title>Fill 1</title><path d="M26.159 39.803c0-.688.068-1.36.182-2.014-.106.014-.213.03-.319.03-.359 0-.717-.077-1.055-.232l-6.922-3.172c-1.28-.585-1.88-2.143-1.338-3.473a2.646 2.646 0 0 1 1.464-1.458 2.516 2.516 0 0 1 1.991.051l6.922 3.172c.385.176.698.447.948.766a11.005 11.005 0 0 1 2.86-2.977 2.65 2.65 0 0 1-.845-1.045l-3.188-7.244c-.576-1.311-.02-2.885 1.242-3.508a2.518 2.518 0 0 1 1.992-.11 2.638 2.638 0 0 1 1.502 1.415l3.187 7.245c.218.496.273 1.028.19 1.533.596-.11 1.205-.177 1.83-.177.285 0 .567.011.846.035l1.265.106v22.113l-1.265.107c-.28.023-.561.036-.846.036a10.09 10.09 0 0 1-1.83-.178 2.714 2.714 0 0 1-.19 1.533l-3.187 7.245a2.643 2.643 0 0 1-1.504 1.417 2.53 2.53 0 0 1-1.99-.11c-1.262-.626-1.82-2.2-1.241-3.511l3.187-7.245a2.64 2.64 0 0 1 .845-1.043 11.027 11.027 0 0 1-2.86-2.977c-.25.32-.563.59-.948.766l-6.923 3.171a2.522 2.522 0 0 1-1.991.052 2.642 2.642 0 0 1-1.463-1.458c-.542-1.33.059-2.888 1.339-3.474l6.922-3.172c.437-.2.908-.262 1.372-.202a11.756 11.756 0 0 1-.181-2.013zm15.42-19.728c0-2.402 1.604-2.584 1.927-2.596.747-.018 1.252.284 1.531.553.484.465.638 1.079.683 1.606.48-.746 1.32-1.722 2.546-1.265.535.2.93.595 1.108 1.114.313.9-.131 1.808-.553 2.498l-3.083 5.055v7.45l4.24-4.622.532-6.117c.186-2.153 1.558-2.36 2.077-2.36.439-.02.937.169 1.268.518.654.686.549 1.664.471 2.378l-.1.984.14-.162c1.162-1.342 2.2-1.367 2.713-1.261.63.128 1.123.568 1.32 1.177.15.464.243 1.416-.817 2.566l-.555.6.884-.139c.627-.098 1.637-.258 2.362.394.396.355.598.856.571 1.413.015.344-.105 1.832-2.182 2.105l-5.54.733-4.639 4.947 7.042-.005 4.448-3.396c.377-.288 1.374-1.045 2.423-.704.56.182.986.64 1.169 1.252.414 1.397-.934 2.37-1.441 2.738l-.148.108c.366.007.868.059 1.336.329.61.306 1.01.934 1.033 1.687l.002.072-.002.059c.002.055.001.113 0 .172a1.944 1.944 0 0 1-1.098 1.718c-.306.18-.73.283-1.271.295l.08.058c.575.416 1.923 1.39 1.51 2.785-.184.615-.61 1.071-1.17 1.254-1.05.339-2.047-.417-2.421-.703l-4.45-3.398-7.042-.005 4.639 4.948 5.542.733c2.075.271 2.195 1.76 2.182 2.21.027.452-.177.954-.575 1.309-.729.655-1.743.492-2.346.394l-.898-.142.555.601c1.061 1.152.968 2.103.816 2.567a1.731 1.731 0 0 1-1.32 1.177c-.51.105-1.548.081-2.712-1.26l-.14-.163.088.86c.09.838.195 1.816-.46 2.503-.344.363-.808.534-1.332.517-.32-.011-1.818-.104-2.012-2.362l-.532-6.115-4.24-4.62v7.448l3.083 5.055c.422.69.866 1.597.553 2.498a1.812 1.812 0 0 1-1.108 1.115c-1.243.467-2.095-.556-2.546-1.262-.046.526-.2 1.137-.683 1.603-.267.256-.729.554-1.434.554l-.098-.001c-.323-.013-1.927-.198-1.927-2.597V20.075zM0 79.999h80V0H0v80z" fill="#F42341" fill-rule="evenodd"/></svg>