<svg width="80" height="81" viewBox="0 0 80 81" xmlns="http://www.w3.org/2000/svg"><title>Group 3</title><g fill="#F42341" fill-rule="evenodd"><path d="M20.473 22.704c4.362 0 10.198-2.283 13.758-4.548.312-.202.529-.364.84-.577.613-.42 1.158-.828 1.792-1.174l.812.604.84.57c3.9 2.658 9.886 5.125 14.599 5.125v19.754c0 3.071-.112 5.538-1.252 7.457-.985 1.662-2.804 3.3-4.379 4.397l-10.62 6.904-2.148-1.31-.484-.296c-3.599-2.377-10.097-5.835-12.35-9.426-1.24-1.98-1.408-4.241-1.408-7.435V22.704zm35.052 29.44c1.14-1.921 1.25-4.386 1.25-7.456V24.935l.189.115v-.155l2.198 1.336v-.013l2.88 1.751v19.755c0 3.07-.11 5.534-1.25 7.455-.984 1.66-2.803 3.302-4.38 4.399l-10.618 6.9-.554-.338-.497-.302-.224-.137-.33-.2-.224-.137-.357-.217-.011.007-.066-.04-.123.08-.554-.337-.497-.302-.225-.137-.329-.2-.225-.137-.496-.302-.554-.337 10.616-6.9c1.578-1.097 3.397-2.739 4.381-4.398zM.002 80.559h79.995l.003-80H0l.002 80z"/><path d="M36.507 48.18c-1.03 0-1.903-.352-2.632-1.062-.723-.71-1.168-1.734-1.335-3.077l-5.218.638c.267 2.389 1.24 4.313 2.91 5.784 1.668 1.483 3.777 2.216 6.314 2.216 2.681 0 4.918-.873 6.715-2.624 1.797-1.746 2.704-3.866 2.704-6.344 0-1.712-.484-3.167-1.447-4.38-.968-1.209-2.253-1.987-3.86-2.333 2.703-1.483 4.05-3.475 4.05-5.958 0-1.757-.663-3.335-1.976-4.728-1.596-1.706-3.716-2.55-6.359-2.55-1.54 0-2.943.29-4.183.878-1.24.593-2.22 1.398-2.91 2.428-.7 1.029-1.218 2.405-1.563 4.128l4.946.85c.139-1.236.534-2.176 1.185-2.825.65-.643 1.435-.962 2.358-.962.935 0 1.68.28 2.243.845.561.576.84 1.331.84 2.282 0 1.125-.379 2.026-1.14 2.697-.769.677-1.87 1.001-3.322.962l-.596 4.392c.952-.269 1.77-.409 2.46-.409 1.045 0 1.924.403 2.653 1.198.723.794 1.085 1.88 1.085 3.244 0 1.444-.378 2.59-1.13 3.435-.761.85-1.69 1.276-2.792 1.276"/></g></svg>