<svg width="68" height="60" viewBox="0 0 68 60" xmlns="http://www.w3.org/2000/svg"><title>Group 14</title><g fill="none" fill-rule="evenodd"><path fill="#FFF" d="M0 0h68v60H0z"/><path d="M51.964 17.746a.827.827 0 0 0-1.407-.515l-4.652 4.648-5.151-1.63-1.637-5.155 4.652-4.655a.827.827 0 0 0-.511-1.403 9.566 9.566 0 0 0-9.775 12.915c-.14.119-.28.245-.417.378L17.53 36.979a4.677 4.677 0 1 0 6.598 6.615l.022-.021L38.67 27.93a5.43 5.43 0 0 0 .36-.413 9.566 9.566 0 0 0 12.933-9.771zM21.79 41.644a1.723 1.723 0 1 1-2.438-2.435 1.723 1.723 0 0 1 2.438 2.435z" fill-rule="nonzero" fill="#D8D8D8"/></g></svg>