<svg width="68" height="60" viewBox="0 0 68 60" xmlns="http://www.w3.org/2000/svg" xmlns:xlink="http://www.w3.org/1999/xlink"><title>Group 13</title><defs><path id="a" d="M0 17.905V0h28v35.81H0z"/></defs><g fill="none" fill-rule="evenodd"><path fill="#FFF" d="M0 0h68v60H0z"/><g transform="translate(20 12)"><mask id="b" fill="#fff"><use xlink:href="#a"/></mask><path d="M20.72 11.99H7.278C5.363.228 22.632.262 20.72 11.99m-5.193 11.698c.021 1.356.01 2.566.01 3.646 0 2.157-3.253 2.157-3.253 0 0-.934.012-2.228.029-3.792-2.436-1.376-1.582-5.002 1.685-5.04 3.321-.041 4.173 3.823 1.529 5.186m8.84-11.686c1.98-16.015-22.713-15.99-20.737 0-2.016 0-3.63-.012-3.63-.012v23.818l.002.002H28V11.99s-1.577 0-3.633.012" fill="#D8D8D8" mask="url(#b)"/></g></g></svg>