<?xml version="1.0" encoding="UTF-8"?>
<svg width="82px" height="55px" viewBox="0 0 82 55" version="1.1" xmlns="http://www.w3.org/2000/svg" xmlns:xlink="http://www.w3.org/1999/xlink">
    <!-- Generator: Sketch 45.2 (43514) - http://www.bohemiancoding.com/sketch -->
    <title>Group 14</title>
    <desc>Created with Sketch.</desc>
    <defs></defs>
    <g id="Page-1" stroke="none" stroke-width="1" fill="none" fill-rule="evenodd">
        <g id="2-My-Business-Hower" transform="translate(-491.000000, -2467.000000)">
            <g id="Tehnology" transform="translate(80.000000, 2174.000000)">
                <g id="Icons" transform="translate(20.000000, 0.000000)">
                    <g id="Normal">
                        <g id="Howers" transform="translate(0.000000, 293.000000)">
                            <g id="Group-14" transform="translate(391.000000, 0.000000)">
                                <g id="Page-1">
                                    <g id="Group-3" transform="translate(0.000000, 0.325842)" fill="#2D76BB">
                                        <path d="M65.8643464,10.5350383 L65.8643464,8.63121435 C65.8643464,6.94285784 65.2116125,5.41927056 64.1550819,4.32133713 C63.1096505,3.23449393 61.6672934,2.56221435 60.0748339,2.56221435 L8.15103534,2.56221435 C6.55857585,2.56221435 5.11569022,3.23449393 4.07131586,4.32080902 C3.01531385,5.41927056 2.36205134,6.94285784 2.36205134,8.63121435 L2.36205134,45.9667602 C2.36205134,47.6545886 3.01531385,49.1776478 4.07184439,50.2766374 C5.11621875,51.3624244 6.55857585,52.0352321 8.15103534,52.0352321 L60.0748339,52.0352321 C61.6667649,52.0352321 63.1096505,51.3624244 64.1545534,50.2766374 C65.2105554,49.1776478 65.8643464,47.6545886 65.8643464,45.9667602 L65.8643464,41.9420605 L68.2268735,41.9420605 L68.2268735,45.9667602 C68.2268735,48.281451 67.3193883,50.3827868 65.8527188,51.9069022 C64.3744217,53.4442203 62.3311265,54.394812 60.0748339,54.394812 L8.15103534,54.394812 C5.8936857,54.394812 3.85144757,53.4442203 2.37367899,51.9079584 C0.907538065,50.3827868 5.28529526e-05,48.281451 5.28529526e-05,45.9667602 L5.28529526e-05,8.63121435 C5.28529526e-05,6.31599541 0.907009535,4.21465962 2.37367899,2.68948802 C3.85091904,1.15269808 5.8936857,0.202106361 8.15103534,0.202106361 L60.0748339,0.202106361 C62.331655,0.202106361 64.3754787,1.15269808 65.8527188,2.68948802 C67.3193883,4.21465962 68.2268735,6.31599541 68.2268735,8.63121435 L68.2268735,10.5350383 L65.8643464,10.5350383 Z" id="Fill-1"></path>
                                    </g>
                                    <path d="M24.9964872,20.1940536 L24.9964872,20.1940536 C24.2977712,20.1940536 23.6619502,20.4802873 23.2005439,20.9413243 C22.7391376,21.4023612 22.4526746,22.0376734 22.4526746,22.7353021 L22.4526746,25.0135536 C22.4526746,25.7111822 22.7391376,26.3464944 23.2005439,26.8075314 C23.6619502,27.2685683 24.2977712,27.5548021 24.9964872,27.5548021 L24.9964872,27.5548021 C25.6952033,27.5548021 26.3304958,27.2685683 26.7919021,26.8075314 C27.2538369,26.3464944 27.5397714,25.7111822 27.5397714,25.0135536 L27.5397714,22.7353021 C27.5397714,22.0376734 27.2538369,21.4023612 26.7919021,20.9413243 C26.3304958,20.4802873 25.6952033,20.1940536 24.9964872,20.1940536 M24.9964872,18.0985269 L24.9964872,18.0985269 C26.2739431,18.0985269 27.434594,18.619768 28.2749559,19.4594574 C29.1153179,20.2996749 29.6375051,21.4593967 29.6375051,22.7353021 L29.6375051,25.0135536 C29.6375051,26.2894589 29.1153179,27.4491808 28.2749559,28.2888701 C27.434594,29.1290876 26.2739431,29.6503287 24.9964872,29.6503287 L24.9964872,29.6503287 C23.7190314,29.6503287 22.5583805,29.1290876 21.71749,28.2888701 C20.877128,27.4491808 20.3554694,26.2894589 20.3554694,25.0135536 L20.3554694,22.7353021 C20.3554694,21.4593967 20.877128,20.2996749 21.71749,19.4594574 C22.5583805,18.619768 23.7190314,18.0985269 24.9964872,18.0985269" id="Fill-4" fill="#2D76BB"></path>
                                    <polygon id="Fill-6" fill="#2D76BB" points="16.1518626 13.6009607 18.5788702 13.6009607 18.5788702 29.5798793 16.1518626 29.5798793 9.06533858 18.1210243 9.06533858 29.5798793 6.63833096 29.5798793 6.63833096 13.6009607 9.06533858 13.6009607 16.1518626 25.0603438"></polygon>
                                    <path d="M47.4788652,25.0130254 L47.4788652,22.7358302 C47.4788652,19.2313154 42.7976791,19.5508198 42.7976791,22.7358302 L42.7976791,23.8744278 L42.7976791,25.0130254 C42.7976791,28.1980358 47.4788652,28.5175402 47.4788652,25.0130254 L47.4788652,25.0130254 Z M47.4788652,13.6011719 L49.6960466,13.6011719 L49.6960466,29.5800905 L47.4788652,29.5800905 L47.4788652,28.3701985 C46.0555351,29.929697 43.1042262,29.8325254 41.8135571,28.4752917 C40.9726666,27.6345462 40.7004739,26.2894589 40.7004739,25.0130254 L40.7004739,23.8744278 L40.7004739,22.7358302 C40.7004739,21.4593967 40.9726666,20.1137814 41.8135571,19.2735639 C43.1042262,17.9158021 46.0555351,17.8191586 47.4788652,19.3791852 L47.4788652,13.6011719 Z" id="Fill-8" fill="#2D76BB"></path>
                                    <path d="M31.5171675,18.0983685 L33.6143727,18.0983685 L33.6143727,19.6050564 C35.5419199,18.1025933 37.5371189,17.6172635 39.0978666,18.9253833 L37.5371189,20.8561407 C36.2934889,19.9092457 35.2459434,20.237728 34.2866623,21.1392058 C33.4943965,21.8838359 33.6143727,21.8516214 33.6143727,22.8830135 L33.6143727,29.6501703 L31.5171675,29.6501703 L31.5171675,18.0983685 Z" id="Fill-10" fill="#2D76BB"></path>
                                    <path d="M15.667201,34.8600994 C14.8194396,34.8600994 14.1297086,35.5492784 14.1297086,36.3958331 L14.1297086,37.7947873 C14.1297086,38.641342 14.8194396,39.330521 15.667201,39.330521 C16.5149624,39.330521 17.2046934,38.641342 17.2046934,37.7947873 L17.2046934,36.3958331 C17.2046934,35.5492784 16.5149624,34.8600994 15.667201,34.8600994 M15.667201,40.6032577 C14.1175524,40.6032577 12.8564809,39.3431956 12.8564809,37.7947873 L12.8564809,36.3958331 C12.8564809,34.8474249 14.1175524,33.5873627 15.667201,33.5873627 C17.2168496,33.5873627 18.4779211,34.8474249 18.4779211,36.3958331 L18.4779211,37.7947873 C18.4779211,39.3431956 17.2168496,40.6032577 15.667201,40.6032577" id="Fill-12" fill="#FFCC43"></path>
                                    <path d="M8.8670343,33.5872571 C10.0467122,33.5872571 10.9245998,33.8449731 11.6058744,34.8663311 L10.534545,35.5687127 C10.0239855,34.8547127 9.61490359,34.8599938 8.8670343,34.8599938 C8.4447392,34.8599938 8.06049823,35.0332127 7.78143464,35.312053 C7.50289957,35.5903651 7.32954189,35.9742985 7.32954189,36.3957275 L7.32954189,37.0954686 L7.32954189,37.7946817 C7.32954189,38.2166388 7.50289957,38.6000441 7.78143464,38.8799405 C8.06049823,39.1582527 8.4447392,39.3304154 8.8670343,39.3304154 C9.61490359,39.3304154 10.0239855,39.3367527 10.534545,38.6227527 L11.6058744,39.3240781 C10.9245998,40.3464923 10.0467122,40.6031521 8.8670343,40.6031521 C8.09326706,40.6031521 7.39032278,40.2878725 6.88134884,39.7793059 C6.3723749,39.2707393 6.05631424,38.5683577 6.05631424,37.7946817 L6.05631424,37.0954686 L6.05631424,36.3957275 C6.05631424,35.6231077 6.3723749,34.920726 6.88134884,34.4121595 C7.39032278,33.904121 8.09326706,33.5872571 8.8670343,33.5872571" id="Fill-14" fill="#FFCC43"></path>
                                    <g id="Group-18" transform="translate(67.123251, 12.472291)" fill="#2D76BB">
                                        <path d="M14.7673266,14.0920469 L14.7673266,14.0920469 C14.7673266,13.6373472 14.3947133,13.2650321 13.9401779,13.2650321 L11.5242694,13.2650321 L13.7002255,11.0902895 C14.0226285,10.7686726 14.0226285,10.2426786 13.7002255,9.92106169 L13.7002255,9.92106169 C13.378351,9.59944482 12.8519356,9.59944482 12.5300611,9.92106169 L9.18341208,13.2650321 L3.00067358,13.2650321 L7.23736633,9.03173033 L11.9703483,9.03173033 C12.4254122,9.03173033 12.797497,8.65994334 12.7980256,8.20471553 L12.797497,8.20471553 C12.797497,7.75001583 12.4259408,7.37770074 11.9703483,7.37770074 L8.89272084,7.37770074 L10.6003998,5.67138861 C10.9228028,5.34977175 10.9228028,4.82324956 10.6003998,4.50163269 C10.2785253,4.18001583 9.75210986,4.18001583 9.43023537,4.50163269 L7.72202792,6.20847293 L7.72202792,3.13330873 C7.72202792,2.67755281 7.34994313,2.30629393 6.8948792,2.30629393 L6.89435067,2.30576583 C6.43928674,2.30629393 6.06667341,2.67808092 6.06667341,3.13330873 L6.06667341,7.86250251 L1.73167417,12.1940321 L1.73167417,5.96395962 L5.07832318,2.6199892 C5.40019767,2.29837234 5.40019767,1.77237825 5.07832318,1.45076139 C4.75697723,1.12914453 4.23056181,1.12861642 3.90815879,1.45076139 L1.73167417,3.62497589 L1.73167417,1.21152914 C1.73167417,0.756829438 1.35958938,0.384514349 0.904525446,0.384514349 L0.903996917,0.384514349 C0.448404457,0.384514349 0.0763196649,0.756829438 0.0763196649,1.21152914 L0.0763196649,6.3436682 L0.0763196649,13.5797836 L0.0763196649,14.6048383 L0.0763196649,19.4143043 L0.0763196649,26.9725646 C0.0763196649,27.4272643 0.448404457,27.7995794 0.903996917,27.7995794 L0.904525446,27.7995794 C1.35958938,27.7995794 1.73167417,27.4272643 1.73167417,26.9725646 L1.73167417,24.5591179 L3.90815879,26.7343886 C4.23056181,27.0560055 4.75697723,27.0549493 5.07832318,26.7343886 C5.40019767,26.4127717 5.40019767,25.8862496 5.07832318,25.5646327 L1.73167417,22.2206623 L1.73167417,15.9905898 L6.06667341,20.3215913 L6.06667341,25.0507851 C6.06667341,25.5070691 6.43928674,25.878328 6.89435067,25.878328 L6.8948792,25.878328 C7.34994313,25.878328 7.72202792,25.5070691 7.72202792,25.0507851 L7.72202792,21.976149 L9.43023537,23.6835173 C9.75210986,24.004078 10.2785253,24.004078 10.6003998,23.6835173 C10.9228028,23.3613723 10.9228028,22.834322 10.6003998,22.5137614 L8.89272084,20.806393 L11.9703483,20.806393 C12.4259408,20.806393 12.797497,20.434078 12.797497,19.9793783 L12.7980256,19.9793783 C12.797497,19.5246786 12.4254122,19.1518354 11.9703483,19.1518354 L7.23736633,19.1518354 L3.00014505,14.9190617 L9.18341208,14.9190617 L12.5300611,18.2630321 C12.8519356,18.584649 13.378351,18.584649 13.7002255,18.2630321 C14.0226285,17.9419433 14.0226285,17.414893 13.7002255,17.0932762 L11.5237409,14.9190617 L13.9401779,14.9190617 C14.3947133,14.9190617 14.7673266,14.5472747 14.7673266,14.0920469" id="Fill-16"></path>
                                    </g>
                                    <path d="M60.276098,13.8392423 L60.276098,13.8387142 C60.6888795,13.6470115 61.1841117,13.8270959 61.3759679,14.2390189 L62.0509001,15.6855027 L63.193581,18.1322201 L63.541882,18.8794908 C63.7342667,19.2914139 63.5540381,19.7862497 63.1417851,19.9779524 L63.1412566,19.9784805 C62.7290035,20.1707112 62.2337714,19.9900988 62.0413866,19.5787038 L61.3664544,18.1322201 L60.2243021,15.6855027 L59.8754726,14.938232 C59.6836164,14.5257808 59.8638449,14.0314731 60.276098,13.8392423" id="Fill-19" fill="#FFCC43"></path>
                                    <path d="M60.276098,39.2901737 L60.276098,39.2901737 C60.6888795,39.4818763 61.1841117,39.3012639 61.3759679,38.8898689 L62.0509001,37.4439133 L63.193581,34.9961396 L63.541882,34.249397 C63.7342667,33.8369459 63.5540381,33.3426382 63.1417851,33.1509355 L63.1412566,33.1509355 C62.7290035,32.9581766 62.2337714,33.1387891 62.0413866,33.550184 L61.3664544,34.9961396 L60.2243021,37.4439133 L59.8754726,38.1906559 C59.6836164,38.6031071 59.8638449,39.0974148 60.276098,39.2901737" id="Fill-21" fill="#FFCC43"></path>
                                    <path d="M52.9876228,21.2229107 L52.9876228,21.2229107 C53.1689085,20.8051784 53.6583268,20.6113633 54.0763937,20.7919757 L55.5420061,21.4251754 L58.0218666,22.4961754 L58.7792495,22.8230734 C59.1973163,23.0036858 59.3912867,23.4927124 59.2110581,23.9104447 L59.2110581,23.9109728 C59.030301,24.3281769 58.5398256,24.521992 58.1228158,24.3413796 L56.6566749,23.708708 L54.1762857,22.6371799 L53.4189029,22.310282 C53.0013646,22.1296695 52.8068657,21.6401148 52.9876228,21.2229107" id="Fill-23" fill="#FFCC43"></path>
                                    <path d="M52.9876228,31.9059772 L52.9876228,31.9059772 C53.1689085,32.3237095 53.6583268,32.5175246 54.0763937,32.3369121 L55.5420061,31.7037124 L58.0218666,30.6332405 L58.7792495,30.3063426 C59.1973163,30.1257302 59.3912867,29.6356473 59.2110581,29.2189713 L59.2110581,29.2179151 C59.030301,28.8012391 58.5398256,28.607424 58.1228158,28.7880364 L56.6566749,29.4201799 L54.1762857,30.491708 L53.4189029,30.8186059 C53.0013646,30.9992183 52.8068657,31.488245 52.9876228,31.9059772" id="Fill-25" fill="#FFCC43"></path>
                                    <path d="M65.7730165,20.2760157 C65.9400319,20.2760157 66.1054616,20.282353 66.2693058,20.2955556 L66.2693058,32.8343885 C66.1054616,32.8465349 65.9400319,32.8528722 65.7730165,32.8528722 C62.2974063,32.8528722 59.4792868,30.0370083 59.4792868,26.564708 C59.4792868,23.0918796 62.2974063,20.2760157 65.7730165,20.2760157" id="Fill-27" fill="#FFCC43"></path>
                                    <path d="M39.1583833,35.3242522 C38.8798482,35.0459401 38.4956072,34.8727212 38.0733121,34.8727212 C37.651017,34.8727212 37.2667761,35.0459401 36.988241,35.3242522 C36.7091774,35.6025643 36.5358197,35.987554 36.5358197,36.4084549 L36.5358197,37.8068809 C36.5358197,38.228838 36.7091774,38.6127714 36.988241,38.8921398 C37.2667761,39.1704519 37.651017,39.3426146 38.0733121,39.3426146 C38.4956072,39.3426146 38.8798482,39.1704519 39.1583833,38.8921398 C39.4374469,38.6127714 39.610276,38.228838 39.610276,37.8068809 L39.610276,36.4084549 C39.610276,35.987554 39.4374469,35.6025643 39.1583833,35.3242522 M38.0733121,33.6005126 C38.8470794,33.6005126 39.5500237,33.9163203 40.0589976,34.4248868 C40.5679715,34.9334534 40.8840322,35.6358351 40.8840322,36.4084549 L40.8840322,37.8068809 C40.8840322,38.580557 40.5679715,39.2829386 40.0589976,39.7915052 C39.5500237,40.3000717 38.8470794,40.6158794 38.0733121,40.6158794 C37.2995449,40.6158794 36.5966006,40.3000717 36.0876267,39.7915052 C35.5786527,39.2829386 35.2625921,38.580557 35.2625921,37.8068809 L35.2625921,36.4084549 C35.2625921,35.6358351 35.5786527,34.9334534 36.0876267,34.4248868 C36.5966006,33.9163203 37.2995449,33.6005126 38.0733121,33.6005126" id="Fill-29" fill="#FFCC43"></path>
                                    <polygon id="Fill-31" fill="#FFCC43" points="42.2702066 40.6156154 43.5434343 40.6156154 43.5434343 33.6007766 42.2702066 33.6007766"></polygon>
                                    <path d="M43.5438042,35.8915442 L43.2536415,34.755059 C44.5110133,33.659238 45.847136,33.242562 46.8740688,34.1017913 L45.9264154,35.2747158 C44.9909181,34.5628283 44.238292,35.0386522 43.5438042,35.8915442" id="Fill-33" fill="#FFCC43"></path>
                                    <path d="M32.897581,32.8992928 L32.897581,33.4934126 L32.897581,40.6033105 L31.6238248,40.6033105 L31.6238248,33.4934126 L31.6238248,32.8992928 L31.6238248,32.4012883 C31.6238248,31.9629599 31.8019392,31.5658238 32.0894593,31.279062 C32.3769794,30.9912439 32.7739051,30.8138001 33.2125846,30.8138001 L34.3055836,30.8138001 L34.3055836,32.0865368 L33.2125846,32.0865368 C33.1253772,32.0865368 33.0466263,32.1213919 32.9895451,32.1784274 C32.9329924,32.2349348 32.897581,32.3146788 32.897581,32.4012883 L32.897581,32.8992928 Z" id="Fill-34" fill="#FFCC43"></path>
                                    <polygon id="Fill-35" fill="#FFCC43" points="30.9676025 34.6443151 34.3126659 34.6443151 34.3126659 33.6615089 30.9676025 33.6615089"></polygon>
                                    <path d="M19.7320688,33.5687206 L21.0052965,33.5687206 L21.0052965,34.5156155 C22.0998811,33.6616673 23.5448809,33.2354854 24.6954897,34.2843049 L24.6960182,34.2843049 L25.0929439,34.6207087 C26.1156485,33.7799632 27.1119267,33.3395223 28.3677129,33.9325859 C29.0384169,34.2494499 29.4432705,34.8567723 29.4432705,35.6161895 L29.4432705,40.6030993 L28.1695143,40.6030993 L28.1695143,36.2404114 C28.1695143,34.6096185 25.2245477,34.5557516 25.2245477,36.3270209 L25.2245477,40.6030993 L23.9507916,40.6030993 L23.9507916,36.3143463 C23.9507916,34.5826851 21.0063535,34.4754794 21.0052965,36.4136303 L21.0052965,40.6030993 L19.7320688,40.6030993 L19.7320688,33.5687206 Z" id="Fill-36" fill="#FFCC43"></path>
                                    <path d="M49.348327,38.5176067 L49.348327,37.9234868 L49.348327,31.4943182 L48.0745708,31.4943182 L48.0745708,37.9234868 L48.0745708,38.5176067 L48.0745708,39.0156111 C48.0745708,39.4539395 48.2532138,39.8510756 48.5402053,40.1378374 C48.8277254,40.4256555 49.2246511,40.6030993 49.6633306,40.6030993 L50.7563297,40.6030993 L50.7563297,39.3303626 L49.6633306,39.3303626 C49.5766518,39.3303626 49.4973723,39.2955075 49.4402911,39.238472 C49.38321,39.1819646 49.348327,39.1032768 49.348327,39.0156111 L49.348327,38.5176067 Z" id="Fill-37" fill="#FFCC43"></path>
                                    <polygon id="Fill-38" fill="#FFCC43" points="47.4180843 34.6443151 50.7631477 34.6443151 50.7631477 33.6615089 47.4180843 33.6615089"></polygon>
                                </g>
                            </g>
                        </g>
                    </g>
                </g>
            </g>
        </g>
    </g>
</svg>