<?xml version="1.0" encoding="UTF-8"?>
<svg width="81px" height="55px" viewBox="0 0 81 55" version="1.1" xmlns="http://www.w3.org/2000/svg" xmlns:xlink="http://www.w3.org/1999/xlink">
    <!-- Generator: Sketch 45.2 (43514) - http://www.bohemiancoding.com/sketch -->
    <title>Group 12</title>
    <desc>Created with Sketch.</desc>
    <defs>
        <polygon id="path-1" points="67.8965143 0.202675066 0.000105194806 0.202675066 0.000105194806 54.5051463 67.8965143 54.5051463 67.8965143 0.202675066"></polygon>
        <polygon id="path-3" points="0 54.8318077 80.897961 54.8318077 80.897961 0.529177719 0 0.529177719"></polygon>
    </defs>
    <g id="Page-1" stroke="none" stroke-width="1" fill="none" fill-rule="evenodd">
        <g id="2-My-Business-Hower" transform="translate(-686.000000, -2505.000000)">
            <g id="Tehnology" transform="translate(80.000000, 2174.000000)">
                <g id="Icons" transform="translate(20.000000, 0.000000)">
                    <g id="Normal">
                        <g id="Howers" transform="translate(0.000000, 293.000000)">
                            <g id="Group-12" transform="translate(586.000000, 38.000000)">
                                <g id="Page-1">
                                    <g id="Group-3" transform="translate(0.000000, 0.326503)">
                                        <mask id="mask-2" fill="white">
                                            <use xlink:href="#path-1"></use>
                                        </mask>
                                        <g id="Clip-2"></g>
                                        <path d="M65.5459364,10.5564076 L65.5459364,8.64872188 C65.5459364,6.95694072 64.8958325,5.430263 63.8449364,4.33010252 C62.8045597,3.24105477 61.3691766,2.56741154 59.7838909,2.56741154 L8.11167662,2.56741154 C6.52691688,2.56741154 5.09100779,3.24105477 4.05115714,4.32957334 C3.00078701,5.430263 2.35068312,6.95694072 2.35068312,8.64872188 L2.35068312,46.0599991 C2.35068312,47.7512511 3.00078701,49.2773996 4.05168312,50.3786184 C5.09100779,51.4666078 6.52691688,52.1407802 8.11167662,52.1407802 L59.7838909,52.1407802 C61.3686506,52.1407802 62.8040338,51.4666078 63.8444104,50.3786184 C64.8953065,49.2773996 65.5459364,47.7512511 65.5459364,46.0599991 L65.5459364,43.7665428 L67.8965143,43.7665428 L67.8965143,46.0599991 C67.8965143,48.379385 66.9934169,50.4849832 65.533839,52.0121901 C64.0632156,53.5526264 62.0298,54.5051463 59.7838909,54.5051463 L8.11167662,54.5051463 C5.86471558,54.5051463 3.83235195,53.5526264 2.36225455,52.0132484 C0.902676623,50.4849832 0.000105194806,48.379385 0.000105194806,46.0599991 L0.000105194806,8.64872188 C0.000105194806,6.32880676 0.902676623,4.22320862 2.36172857,2.69494337 C3.83182597,1.15503621 5.86471558,0.202516313 8.11167662,0.202516313 L59.7838909,0.202516313 C62.030326,0.202516313 64.0637416,1.15503621 65.533839,2.69494337 C66.9939429,4.22320862 67.8965143,6.32880676 67.8965143,8.64872188 L67.8965143,10.5564076 L65.5459364,10.5564076 Z" id="Fill-1" fill="#E6D03A" mask="url(#mask-2)"></path>
                                    </g>
                                    <path d="M15.3678039,11.3180531 L14.4310442,11.3180531 L11.1847325,11.3180531 L11.1847325,17.1548833 L14.4310442,17.1548833 L15.3678039,17.1548833 C16.1641286,17.1548833 16.8894468,16.8262639 17.4154208,16.296557 C17.9419208,15.7673793 18.2685506,15.0376432 18.2685506,14.2364682 C18.2685506,13.4352931 17.9419208,12.705557 17.4154208,12.1763793 C16.8894468,11.6472016 16.1641286,11.3180531 15.3678039,11.3180531 L15.3678039,11.3180531 Z M14.4310442,9.06798939 L15.3678039,9.06798939 C16.7816221,9.06798939 18.0660506,9.6495557 18.9964987,10.5856711 C19.9269468,11.5212573 20.5049922,12.8140385 20.5049922,14.2364682 C20.5049922,15.6594271 19.9269468,16.951679 18.9964987,17.8877944 C18.0660506,18.8239098 16.7816221,19.4049469 15.3678039,19.4049469 L14.4310442,19.4049469 L11.1847325,19.4049469 L11.1847325,26.0874032 L8.94829091,26.0874032 L8.94829091,19.4049469 L8.94829091,18.2799151 L8.94829091,10.1930212 L8.94829091,9.06798939 L10.0665117,9.06798939 L14.4310442,9.06798939 Z" id="Fill-4" fill="#070808"></path>
                                    <path d="M28.565439,11.3180531 L27.6202636,11.3180531 L24.3371338,11.3180531 L24.3371338,16.6140637 L27.6202636,16.6140637 L28.565439,16.6140637 C29.3933221,16.6140637 30.1386273,16.3055531 30.6724909,15.8086552 C31.1832117,15.3334536 31.500374,14.6809775 31.500374,13.9660584 C31.500374,13.2511393 31.1832117,12.5986631 30.6724909,12.1234615 C30.1386273,11.6265637 29.3933221,11.3180531 28.565439,11.3180531 L28.565439,11.3180531 Z M27.6202636,9.06798939 L28.565439,9.06798939 C29.9666338,9.06798939 31.2484325,9.60880902 32.1836143,10.4793064 C33.141939,11.3715 33.7368156,12.6055424 33.7368156,13.9660584 C33.7368156,15.3265743 33.141939,16.5606167 32.1836143,17.4522812 C31.6660558,17.9343621 31.0422506,18.3148408 30.3511208,18.559321 L34.3174909,26.0874032 L31.4519844,26.0874032 L27.8716792,18.8641273 L27.6202636,18.8641273 L24.3371338,18.8641273 L24.3371338,26.0874032 L22.1006922,26.0874032 L22.1006922,18.8641273 L22.1006922,17.7390955 L22.1006922,10.1930212 L22.1006922,9.06798939 L23.218913,9.06798939 L27.6202636,9.06798939 Z" id="Fill-6" fill="#070808"></path>
                                    <path d="M44.5911838,12.4001686 C43.9274045,11.7328755 43.0127357,11.3180001 42.0081253,11.3180001 C41.0035149,11.3180001 40.0883201,11.7328755 39.4250669,12.4001686 C38.7612877,13.0679908 38.34945,13.9882309 38.34945,14.9989603 L38.34945,20.1383344 C38.34945,21.149593 38.7612877,22.0693038 39.4250669,22.7371261 C40.0883201,23.4049484 41.0035149,23.8192946 42.0081253,23.8192946 C43.0127357,23.8192946 43.9274045,23.4049484 44.5911838,22.7371261 C45.254963,22.0693038 45.6668006,21.149593 45.6668006,20.1383344 L45.6668006,14.9989603 C45.6668006,13.9882309 45.254963,13.0679908 44.5911838,12.4001686 M42.0081253,9.06793647 C43.6302292,9.06793647 45.1050604,9.73522958 46.1727877,10.8094603 C47.2405149,11.8836911 47.9032422,13.3669763 47.9032422,14.9989603 L47.9032422,20.1383344 C47.9032422,21.7703184 47.2405149,23.2541328 46.1727877,24.3283635 C45.1050604,25.4025943 43.6302292,26.0693582 42.0081253,26.0693582 C40.3860214,26.0693582 38.9117162,25.4025943 37.843989,24.3283635 C36.7762617,23.2541328 36.1130084,21.7703184 36.1130084,20.1383344 L36.1130084,14.9989603 C36.1130084,13.3669763 36.7762617,11.8836911 37.843989,10.8094603 C38.9117162,9.73522958 40.3860214,9.06793647 42.0081253,9.06793647" id="Fill-8" fill="#070808"></path>
                                    <path d="M10.9047039,29.9666463 L10.9152234,42.832015 C10.9551974,42.9965893 11.0461909,43.1405256 11.1692688,43.245832 C11.3012883,43.3596052 11.4753857,43.4268107 11.6647364,43.4268107 L12.9286519,43.4268107 L12.9286519,45.5265879 L11.6647364,45.5265879 C10.9672948,45.5265879 10.3192948,45.2694076 9.81593766,44.8375985 C9.31626234,44.4084354 8.96228182,43.8046436 8.84814545,43.1093041 L8.83552208,43.0357484 L8.83552208,42.942084 L8.82552857,29.9666463 L10.9047039,29.9666463 Z" id="Fill-10" fill="#070808"></path>
                                    <path d="M22.7427487,36.2341214 C22.2656903,35.753628 21.6087487,35.4557009 20.8865864,35.4557009 C20.164424,35.4557009 19.5069565,35.753628 19.0293721,36.2341214 C18.5523136,36.7135564 18.2561903,37.3750285 18.2561903,38.1015895 L18.2561903,38.4148627 L23.5164565,38.4148627 L23.5164565,38.1015895 C23.5164565,37.3750285 23.2198071,36.7135564 22.7427487,36.2341214 M20.8865864,33.3559237 C22.1846903,33.3559237 23.36445,33.8888057 24.2186318,34.7487195 C25.0733396,35.6086333 25.6035214,36.7955789 25.6035214,38.1015895 L25.6035214,39.4647513 L25.6035214,40.5151691 L24.559989,40.5151691 L18.2561903,40.5151691 L18.2561903,41.0290007 C18.2561903,41.1041439 18.2535604,41.0792725 18.2546123,41.1062606 C18.280911,41.7698495 18.6448851,42.3969251 19.1776968,42.8673641 C19.7299695,43.3542076 20.4516058,43.6600723 21.1643006,43.6600723 C21.2510864,43.6600723 21.237937,43.6632473 21.2605539,43.662189 C21.8491188,43.638376 22.3977097,43.5177235 22.8679305,43.2901771 C23.2781903,43.0927938 23.6353266,42.8054503 23.9125149,42.4217964 L25.6003656,43.6521346 C25.1143656,44.3247195 24.4863526,44.8279675 23.7647162,45.1772248 C23.0304565,45.5328322 22.2046773,45.7201611 21.3420799,45.7540285 L21.1643006,45.7603786 C19.942989,45.7603786 18.726411,45.2518389 17.8075344,44.4427261 C16.8686708,43.614563 16.2254045,42.4604264 16.175437,41.187754 L16.1691253,41.0290007 L16.1691253,40.5151691 L16.1691253,39.5652951 L16.1691253,39.4647513 L16.1691253,38.1015895 C16.1691253,36.7955789 16.6993071,35.6086333 17.5540149,34.7487195 C18.4081968,33.8888057 19.5879565,33.3559237 20.8865864,33.3559237" id="Fill-12" fill="#070808"></path>
                                    <mask id="mask-4" fill="white">
                                        <use xlink:href="#path-3"></use>
                                    </mask>
                                    <g id="Clip-15"></g>
                                    <polygon id="Fill-14" fill="#070808" mask="url(#mask-4)" points="7.52353247 35.3321379 12.9231818 35.3321379 12.9231818 33.3815889 7.52353247 33.3815889"></polygon>
                                    <path d="M36.5485149,43.65187 C36.061989,44.3244549 35.4345019,44.8282321 34.7133916,45.1774894 C33.9780799,45.5330968 33.1528266,45.7198966 32.2897032,45.7542931 L32.11245,45.7601141 C30.8906123,45.7601141 29.6745604,45.2515743 28.7556838,44.4424615 C27.8168201,43.6137692 27.1735539,42.4591034 27.1230604,41.1880186 L27.1167487,41.0287361 L27.1167487,39.5650305 L27.1167487,38.1018541 L27.1230604,37.9425716 C27.1735539,36.6704284 27.8168201,35.5157626 28.7556838,34.6881286 C29.6745604,33.8774284 30.8906123,33.3688886 32.11245,33.3688886 L32.2897032,33.3762971 C33.1528266,33.4101645 33.9780799,33.5974934 34.7133916,33.9531008 C35.4345019,34.3012997 36.061989,34.8056061 36.5485149,35.4776618 L34.8606643,36.7085292 C34.583476,36.3248753 34.2258136,36.0375318 33.8160799,35.8390902 C33.3453331,35.6120729 32.7967422,35.4919496 32.2087032,35.4681366 C32.1855604,35.4670782 32.1997617,35.469195 32.11245,35.469195 C31.3992292,35.469195 30.6786448,35.7750597 30.1258461,36.2629615 C28.9976318,37.2583448 29.2043396,38.2463196 29.2043396,39.5650305 C29.2043396,40.8842706 28.9976318,41.8722454 30.1258461,42.8676286 C30.6786448,43.3544721 31.3992292,43.6603369 32.11245,43.6603369 C32.1997617,43.6603369 32.1855604,43.6629828 32.2087032,43.6624536 C32.7967422,43.6386406 33.3453331,43.5174589 33.8160799,43.2899125 C34.2258136,43.0925292 34.583476,42.8051857 34.8606643,42.422061 L36.5485149,43.65187 Z" id="Fill-16" fill="#070808" mask="url(#mask-4)"></path>
                                    <polygon id="Fill-17" fill="#E6D03A" mask="url(#mask-4)" points="62.7271364 31.6744615 70.7156299 31.6744615 70.7156299 23.6870531 62.7271364 23.6870531"></polygon>
                                    <polygon id="Fill-18" fill="#070808" mask="url(#mask-4)" points="62.7271364 21.4793236 70.7156299 21.4793236 70.7156299 13.4919151 62.7271364 13.4919151"></polygon>
                                    <polygon id="Fill-19" fill="#070808" mask="url(#mask-4)" points="62.7271364 41.8690703 70.7156299 41.8690703 70.7156299 33.8816618 62.7271364 33.8816618"></polygon>
                                    <polygon id="Fill-20" fill="#070808" mask="url(#mask-4)" points="72.9094675 31.6744615 80.897961 31.6744615 80.897961 23.6870531 72.9094675 23.6870531"></polygon>
                                    <polygon id="Fill-21" fill="#070808" mask="url(#mask-4)" points="72.9094675 21.4793236 80.897961 21.4793236 80.897961 13.4919151 72.9094675 13.4919151"></polygon>
                                    <polygon id="Fill-22" fill="#070808" mask="url(#mask-4)" points="72.9094675 41.8690703 80.897961 41.8690703 80.897961 33.8816618 72.9094675 33.8816618"></polygon>
                                    <polygon id="Fill-23" fill="#070808" mask="url(#mask-4)" points="52.5442792 31.6744615 60.5327727 31.6744615 60.5327727 23.6870531 52.5442792 23.6870531"></polygon>
                                    <polygon id="Fill-24" fill="#070808" mask="url(#mask-4)" points="52.5442792 21.4793236 60.5327727 21.4793236 60.5327727 13.4919151 52.5442792 13.4919151"></polygon>
                                    <polygon id="Fill-25" fill="#070808" mask="url(#mask-4)" points="52.5442792 41.8690703 60.5327727 41.8690703 60.5327727 33.8816618 52.5442792 33.8816618"></polygon>
                                    <path d="M40.6972403,28.6096229 L40.6972403,34.8306362 L40.7067078,34.8221694 C41.5125,34.1368842 42.4787143,33.4023855 43.5564351,33.3875686 L43.5606429,33.3875686 L43.5953571,33.3875686 L43.6032468,33.3833351 C45.7818312,33.3833351 47.6795455,34.5141879 47.7195195,37.5537847 L47.7195195,37.5580182 L47.7200455,37.5934731 L47.7237273,37.6014107 L47.7237273,45.5269054 L45.6366623,45.5269054 L45.6366623,38.2835208 L45.6398182,37.9310885 C45.4373182,35.6635619 42.5718117,34.8253444 40.6972403,37.1796561 L40.6972403,45.5269054 L38.4607987,45.5269054 L38.4607987,28.6096229 L40.6972403,28.6096229 Z" id="Fill-26" fill="#070808" mask="url(#mask-4)"></path>
                                </g>
                            </g>
                        </g>
                    </g>
                </g>
            </g>
        </g>
    </g>
</svg>