<?xml version="1.0" encoding="UTF-8"?>
<svg width="89px" height="54px" viewBox="0 0 89 54" version="1.1" xmlns="http://www.w3.org/2000/svg" xmlns:xlink="http://www.w3.org/1999/xlink">
    <!-- Generator: Sketch 45.2 (43514) - http://www.bohemiancoding.com/sketch -->
    <title>Group 11</title>
    <desc>Created with Sketch.</desc>
    <defs>
        <polygon id="path-1" points="0 53.7992039 88.7795941 53.7992039 88.7795941 0 0 0"></polygon>
    </defs>
    <g id="Page-1" stroke="none" stroke-width="1" fill="none" fill-rule="evenodd">
        <g id="2-My-Business-Hower" transform="translate(-1075.000000, -2506.000000)">
            <g id="Tehnology" transform="translate(80.000000, 2174.000000)">
                <g id="Icons" transform="translate(20.000000, 0.000000)">
                    <g id="Normal">
                        <g id="Howers" transform="translate(0.000000, 293.000000)">
                            <g id="Group-11" transform="translate(975.000000, 39.000000)">
                                <g id="Page-1">
                                    <path d="M14.1035682,20.0484175 L12.0727976,14.632165 L10.1001388,20.0484175 L14.1035682,20.0484175 Z M24.0459153,17.4118544 L26.23008,17.4118544 C27.64518,17.4118544 28.52628,17.3505146 28.8801859,17.2315049 C29.2304271,17.1119709 29.5094682,16.9043592 29.7068388,16.6112913 C29.9068271,16.3182233 30.0057741,15.9507087 30.0057741,15.5113689 C30.0057741,15.0169806 29.8733212,14.6216796 29.6115565,14.3155049 C29.3492682,14.0119515 28.9786094,13.8216408 28.5021976,13.743 C28.2608506,13.7089223 27.5430918,13.6921456 26.3494447,13.6921456 L24.0459153,13.6921456 L24.0459153,17.4118544 Z M21.0869271,25.8531553 L21.0869271,11.2191553 L27.3017447,11.2191553 C28.8629094,11.2191553 29.9989682,11.3517961 30.70678,11.613932 C31.4172094,11.8765922 31.9820976,12.3431942 32.4072035,13.0142621 C32.8323094,13.6884757 33.04748,14.4549612 33.04748,15.320534 C33.04748,16.4209806 32.72708,17.3269223 32.0847094,18.0420291 C31.4412918,18.7576602 30.4821859,19.2069612 29.2032035,19.3946505 C29.8398153,19.765835 30.3633447,20.1742427 30.7748388,20.6209223 C31.1899976,21.0670777 31.7475565,21.8608252 32.4480388,22.9984951 L34.2306565,25.8531553 L30.7031153,25.8531553 L28.5875329,22.6577184 C27.8289388,21.5237184 27.3085506,20.8080874 27.0263682,20.5118738 C26.7468035,20.2188058 26.4510094,20.0143398 26.1379388,19.9052913 C25.8222506,19.796767 25.3254212,19.7417184 24.6453565,19.7417184 L24.0459153,19.7417184 L24.0459153,25.8531553 L21.0869271,25.8531553 Z M39.1120447,25.8531553 L39.1120447,13.6921456 L34.7850741,13.6921456 L34.7850741,11.2191553 L46.3775859,11.2191553 L46.3775859,13.6921456 L42.0715565,13.6921456 L42.0715565,25.8531553 L39.1120447,25.8531553 Z M19.5116271,25.8531553 L16.32438,25.8531553 L15.0626741,22.5214078 L9.20176235,22.5214078 L7.98717412,25.8531553 L4.85803882,25.8531553 L10.5315271,11.2191553 L13.0858271,11.2191553 L13.6575212,11.2191553 L16.2893035,17.7977184 L19.5116271,25.8531553 Z" id="Fill-1" fill="#A767AA"></path>
                                    <path d="M19.1036929,35.0237184 C19.0832753,34.2095243 18.8754341,33.5893107 18.4780753,33.1672718 C18.0796694,32.7410388 17.5969753,32.5302816 17.0252812,32.5302816 C16.4164165,32.5302816 15.9127812,32.7546699 15.5148988,33.2008252 C15.1170165,33.6475049 14.9233106,34.2567087 14.9295929,35.0237184 L19.1036929,35.0237184 Z M18.9403518,37.8642233 L21.7365224,38.3339709 C21.3794753,39.3599709 20.8114459,40.1395631 20.03924,40.6779903 C19.2638929,41.2127476 18.2937929,41.481699 17.1341753,41.481699 C15.2939694,41.481699 13.9296518,40.879835 13.0490753,39.6734854 C12.3512106,38.7056796 12.0014929,37.4862233 12.0014929,36.0119709 C12.0014929,34.2535631 12.4606282,32.8742039 13.3757576,31.8791359 C14.2908871,30.8819709 15.4499812,30.3839126 16.8514694,30.3839126 C18.4231047,30.3839126 19.6649165,30.9055631 20.5763812,31.9478155 C21.4847047,32.990068 21.9202812,34.5875243 21.8794459,36.7407087 L14.8793341,36.7407087 C14.8997518,37.5711553 15.1232988,38.2186311 15.5562576,38.6826117 C15.9845047,39.1450194 16.5216459,39.3767476 17.1613988,39.3767476 C17.6001165,39.3767476 17.9676341,39.2577379 18.2634282,39.0191942 C18.5628871,38.7806505 18.7869576,38.395835 18.9403518,37.8642233 L18.9403518,37.8642233 Z M38.27534,26.5824175 L38.27534,32.0049612 C39.18314,30.9260097 40.2720812,30.3839126 41.5343106,30.3839126 C42.1834871,30.3839126 42.7687929,30.5029223 43.2891812,30.741466 C43.8095694,30.9831553 44.2006459,31.2861845 44.4660753,31.6610388 C44.7315047,32.0327476 44.9121224,32.444301 45.0074047,32.8977961 C45.1058282,33.350767 45.1534694,34.052767 45.1534694,35.0032718 L45.1534694,41.2169417 L42.3572988,41.2169417 L42.3572988,35.6229612 C42.3572988,34.5125534 42.3028518,33.8074078 42.1970988,33.507 C42.0882047,33.208165 41.8981635,32.9696214 41.6259282,32.7955631 C41.3536929,32.6183592 41.0139224,32.5302816 40.6019047,32.5302816 C40.1328224,32.5302816 39.7139988,32.6419515 39.34334,32.870534 C38.9726812,33.0954466 38.7035871,33.4367476 38.53344,33.8923398 C38.3601518,34.345835 38.27534,35.0195243 38.27534,35.9092136 L38.27534,41.2169417 L35.4791694,41.2169417 L35.4791694,26.5824175 L38.27534,26.5824175 Z M10.8581047,30.608301 L10.8581047,32.8364563 L8.93989294,32.8364563 L8.93989294,37.1318155 C8.93989294,38.0047282 8.95664588,38.5111748 8.99381647,38.6548252 C9.03151059,38.7979515 9.11318118,38.9169612 9.24615765,39.0118544 C9.37494588,39.1041262 9.53148118,39.1523592 9.71838118,39.1523592 C9.98066941,39.1523592 10.3544694,39.063233 10.8476341,38.8828835 L11.0826988,41.0633301 C10.4329988,41.342767 9.69796353,41.481699 8.87497529,41.481699 C8.37186353,41.481699 7.91953412,41.396767 7.51432235,41.2269029 C7.10963412,41.0559903 6.81331647,40.8347476 6.62641647,40.5652718 C6.43637529,40.2931748 6.30706353,39.9282816 6.23219882,39.4658738 C6.17408706,39.1392524 6.14372235,38.4776214 6.14372235,37.4794078 L6.14372235,32.8364563 L4.85793412,32.8364563 L4.85793412,30.608301 L6.14372235,30.608301 L6.14372235,28.5038738 L8.93989294,26.8482233 L8.93989294,30.608301 L10.8581047,30.608301 Z M24.7750871,32.0348447 C24.8143518,31.9876602 24.8546635,31.9415243 24.8960224,31.8964369 L24.8975929,31.8943398 L24.9002106,31.8922427 L24.9405224,31.8482039 C25.8624576,30.8714854 27.1110753,30.3839126 28.6863753,30.3839126 C29.9721635,30.3839126 30.9961871,30.6638738 31.7579224,31.2185534 C32.5165165,31.7737573 33.0604635,32.6183592 33.3939518,33.7560291 L30.6386165,34.2467476 C30.5464753,33.6988835 30.3360165,33.2862816 30.0056694,33.0063204 C29.6758459,32.7310777 29.25074,32.5916214 28.7272106,32.5916214 C28.0298694,32.5916214 27.4712635,32.8333107 27.0566282,33.3166893 C26.6414694,33.8011165 26.4341518,34.6079709 26.4341518,35.7424951 C26.4341518,37.0028447 26.6451341,37.8920097 27.0670988,38.4131359 C27.4890635,38.9342621 28.0534282,39.1932524 28.7607165,39.1932524 C29.2915753,39.1932524 29.7271518,39.0396408 30.0637812,38.7366117 C30.4040753,38.4335825 30.6422812,37.9124563 30.78154,37.1700874 L33.5363518,37.639835 C33.2510282,38.9064757 32.7034165,39.8637961 31.89404,40.5112718 C31.08414,41.1582233 29.9988635,41.481699 28.6350694,41.481699 L28.5675341,41.481699 L28.5628224,41.481699 L28.4999988,41.4806505 L28.4916224,41.4806505 L28.4869106,41.4806505 L28.4204224,41.4790777 L28.4198988,41.4790777 L28.4193753,41.4790777 L28.3664988,41.4769806 L28.3539341,41.4769806 L28.3492224,41.4769806 L28.3408459,41.475932 L28.2879694,41.473835 L28.2785459,41.4727864 L28.2748812,41.4727864 L28.2612694,41.4727864 L28.2104871,41.4696408 L28.20944,41.4696408 L28.1958282,41.4685922 L28.1832635,41.4675437 L28.1439988,41.4654466 L28.1398106,41.4643981 L28.1309106,41.4633495 L28.1183459,41.4633495 L28.0796047,41.4602039 L28.0701812,41.4591553 L28.0665165,41.4591553 L28.0021224,41.4533883 L27.9382518,41.4470971 L27.93354,41.4460485 L27.9256871,41.445 L27.8754282,41.4397573 L27.8660047,41.4387087 L27.8618165,41.4387087 L27.8497753,41.4366117 L27.7989929,41.4308447 C26.6393753,41.2814272 25.6834106,40.8080097 24.9379047,40.0137379 C24.0159694,39.032301 23.5563106,37.6770583 23.5563106,35.9432913 C23.5563106,34.9702427 23.6987106,34.1172524 23.9829871,33.3843204 C23.9981694,33.3455243 24.0138753,33.3067282 24.0295812,33.2674078 L24.0421459,33.2390971 C24.0541871,33.2102621 24.0662282,33.1814272 24.0793165,33.1531165 L24.0913576,33.1253301 C24.1044459,33.0964951 24.1175341,33.0681845 24.1306224,33.0403981 L24.1442341,33.0126117 L24.1573224,32.9848252 L24.1714576,32.9575631 L24.1976341,32.9051359 L24.2002518,32.8998932 C24.2274753,32.8469417 24.2562694,32.793466 24.2850635,32.7410388 L24.3007694,32.7148252 L24.3128106,32.6943786 L24.3154282,32.6891359 L24.3306106,32.6623981 L24.3442224,32.6398544 L24.3463165,32.6367087 L24.3620224,32.6099709 L24.36464,32.606301 L24.3745871,32.5895243 L24.3777282,32.5848058 L24.3934341,32.5591165 L24.3939576,32.5591165 L24.4065224,32.5386699 L24.4096635,32.5334272 L24.4258929,32.5077379 L24.4295576,32.5024951 L24.4415988,32.4830971 L24.4421224,32.4830971 L24.4588753,32.4574078 L24.4604459,32.4547864 L24.4756282,32.4332913 L24.4918576,32.4076019 L24.4955224,32.4034078 L24.5138459,32.3766699 L24.5405459,32.3378738 L24.54264,32.3347282 L24.5436871,32.3336796 L24.5609635,32.3090388 L24.57824,32.2854466 L24.5897576,32.2691942 L24.59604,32.2608058 L24.61384,32.2377379 L24.6164576,32.2335437 L24.6222165,32.2262039 L24.6504871,32.1895049 L24.6551988,32.1832136 L24.6572929,32.180068 L24.6923694,32.1360291 L24.6960341,32.1307864 L24.7321576,32.085699 L24.7342518,32.0841262 L24.7708988,32.0400874 L24.7750871,32.0348447 Z" id="Fill-3" fill="#A767AA"></path>
                                    <polygon id="Fill-5" fill="#E44C43" points="10.5314224 11.2189981 13.65794 11.2189981 13.65794 18.7181825 13.60454 18.7181825 12.0726929 14.6320078 10.5842988 18.7181825 7.62374 18.7181825"></polygon>
                                    <path d="M16.6578159,18.7182874 L13.6579924,18.7182874 L13.6579924,11.2191029 L16.2892512,17.797666 L16.6578159,18.7182874 Z M21.0868747,18.7182874 L21.1465571,18.7182874 L21.1465571,11.2191029 L21.0868747,11.2191029 L21.0868747,18.7182874 Z" id="Fill-7" fill="#F36740"></path>
                                    <path d="M21.1466618,11.2189981 L27.3017971,11.2189981 C27.7876324,11.2189981 28.2321088,11.2315806 28.6352265,11.2572699 L28.6352265,13.768532 C28.5922971,13.7590951 28.5477971,13.7507068 28.50225,13.7428427 C28.2609029,13.708765 27.5431441,13.6919883 26.3494971,13.6919883 L24.0459676,13.6919883 L24.0459676,17.4122214 L26.2301324,17.4122214 C27.3887029,17.4122214 28.1886559,17.3708039 28.6352265,17.2905903 L28.6352265,18.7181825 L21.1466618,18.7181825 L21.1466618,11.2189981 Z" id="Fill-9" fill="#FFD832"></path>
                                    <path d="M31.2552818,18.7182874 L28.6350171,18.7182874 L28.6350171,17.2901709 C28.7344876,17.2728699 28.8156347,17.2529476 28.8800288,17.2314524 C29.23027,17.1124427 29.5093112,16.9043068 29.7066818,16.6117631 C29.9071935,16.3181709 30.0056171,15.9506563 30.0056171,15.5113165 C30.0056171,15.0169282 29.8731641,14.6221515 29.6113994,14.3154524 C29.3742406,14.0412583 29.0480818,13.8588117 28.6350171,13.7686369 L28.6350171,11.2573748 C29.5281582,11.3145204 30.2192171,11.4335301 30.7066229,11.6138796 C31.4175759,11.8765398 31.9824641,12.3431417 32.4070465,13.0142097 C32.8326759,13.6884233 33.0473229,14.4549087 33.0473229,15.3204816 C33.0473229,16.4209282 32.7274465,17.3268699 32.0845524,18.0419767 C31.8500112,18.3025398 31.5735876,18.5279767 31.2552818,18.7182874 L31.2552818,18.7182874 Z M34.7849171,13.6920932 L36.1241053,13.6920932 L36.1241053,11.2191029 L34.7849171,11.2191029 L34.7849171,13.6920932 Z" id="Fill-11" fill="#058C5A"></path>
                                    <polygon id="Fill-13" fill="#0585BB" points="36.1240006 11.2189981 43.6130888 11.2189981 43.6130888 13.6919883 42.0712947 13.6919883 42.0712947 18.7181825 39.1117829 18.7181825 39.1117829 13.6919883 36.1240006 13.6919883"></polygon>
                                    <mask id="mask-2" fill="white">
                                        <use xlink:href="#path-1"></use>
                                    </mask>
                                    <g id="Clip-16"></g>
                                    <polygon id="Fill-15" fill="#3B5D8B" mask="url(#mask-2)" points="43.6131412 13.6918835 46.3779 13.6918835 46.3779 11.2188932 43.6131412 11.2188932"></polygon>
                                    <path d="M21.0867176,25.8528932 L21.1464,25.8528932 L21.1464,18.7180777 L21.0867176,18.7180777 L21.0867176,25.8528932 Z M13.6578353,18.7180777 L16.6576588,18.7180777 L19.5119412,25.8528932 L16.3246941,25.8528932 L15.0624647,22.5216699 L13.6578353,22.5216699 L13.6578353,20.0481553 L14.1033588,20.0481553 L13.6578353,18.8596311 L13.6578353,18.7180777 Z" id="Fill-17" fill="#E44C43" mask="url(#mask-2)"></path>
                                    <path d="M21.1466618,18.7182874 L28.6352265,18.7182874 L28.6352265,22.7300155 L28.5875853,22.657666 C27.8289912,21.523666 27.3086029,20.808035 27.0258971,20.5118214 C26.7468559,20.2187534 26.4510618,20.0142874 26.1379912,19.9052388 C25.8223029,19.7967146 25.3254735,19.741666 24.6454088,19.741666 L24.0459676,19.741666 L24.0459676,25.8531029 L21.1466618,25.8531029 L21.1466618,18.7182874 Z" id="Fill-18" fill="#F36740" mask="url(#mask-2)"></path>
                                    <path d="M28.6351218,18.7182874 L31.2553865,18.7182874 C30.6993982,19.0501515 30.0161924,19.2750641 29.2031512,19.3945981 C29.8397629,19.7657825 30.3632924,20.1741903 30.7747865,20.6208699 C31.1899453,21.0670252 31.7475041,21.8607728 32.4479865,22.9984427 L34.2306041,25.8531029 L30.7030629,25.8531029 L28.6351218,22.7300155 L28.6351218,18.7182874 Z" id="Fill-19" fill="#FFD832" mask="url(#mask-2)"></path>
                                    <polygon id="Fill-20" fill="#058C5A" mask="url(#mask-2)" points="39.1118353 25.8528932 42.0713471 25.8528932 42.0713471 18.7180777 39.1118353 18.7180777"></polygon>
                                    <polygon id="Fill-21" fill="#3B5D8B" mask="url(#mask-2)" points="6.16885176 22.4711301 6.16885176 25.8532078 4.85793412 25.8532078"></polygon>
                                    <path d="M13.6045924,18.7182874 L13.6579924,18.7182874 L13.6579924,18.8598408 L13.6045924,18.7182874 Z M7.62379235,18.7182874 L10.5838276,18.7182874 L10.1000865,20.048365 L13.6579924,20.048365 L13.6579924,22.5213553 L9.20171,22.5213553 L7.98764529,25.8531029 L6.16890412,25.8531029 L6.16890412,22.4710252 L7.62379235,18.7182874 Z" id="Fill-22" fill="#3C3B69" mask="url(#mask-2)"></path>
                                    <path d="M21.5229747,33.7171282 L21.1465571,33.7171282 L21.1465571,32.789167 C21.2947159,33.0727981 21.4198394,33.3821184 21.5229747,33.7171282 M28.6351218,30.384332 L28.6351218,32.592565 C27.98071,32.6135359 27.4529924,32.854701 27.0566806,33.3165845 C26.9582571,33.4324485 26.8713512,33.5656136 26.7959629,33.7171282 L23.8668159,33.7171282 C23.9024159,33.6033612 23.9411571,33.4927398 23.9830394,33.3842155 C23.9982218,33.3454194 24.0139276,33.3066233 24.0296335,33.2678272 L24.0421982,33.2389922 C24.0542394,33.2101573 24.0662806,33.1818466 24.0793688,33.1530117 L24.09141,33.1252252 C24.1044982,33.0963903 24.1175865,33.0680796 24.1306747,33.0402932 L24.1442865,33.0125068 L24.1573747,32.9852447 L24.17151,32.9574583 L24.1976865,32.9050311 L24.2003041,32.8997883 C24.2275276,32.8468369 24.2563218,32.7933612 24.2851159,32.7414583 L24.3008218,32.7147204 L24.3128629,32.6942738 L24.3154806,32.6890311 L24.3306629,32.6622932 L24.3442747,32.6397495 L24.3463688,32.6366039 L24.3620747,32.6103903 L24.3646924,32.6061961 L24.3746394,32.5899437 L24.3777806,32.584701 L24.3934865,32.5590117 L24.39401,32.5590117 L24.4065747,32.538565 L24.4097159,32.5333223 L24.4259453,32.507633 L24.42961,32.5029146 L24.4416512,32.4829922 L24.4421747,32.4829922 L24.4584041,32.4578272 L24.4604982,32.4546816 L24.4751571,32.4331864 L24.49191,32.4074971 L24.4955747,32.4033029 L24.5138982,32.376565 L24.5411218,32.3377689 L24.5426924,32.3346233 L24.5437394,32.3335748 L24.5610159,32.308934 L24.5782924,32.285866 L24.58981,32.2690893 L24.5960924,32.2612252 L24.6138924,32.237633 L24.61651,32.2334388 L24.6222688,32.226099 L24.6505394,32.1894 L24.6547276,32.1831087 L24.6573453,32.1799631 L24.6924218,32.1359243 L24.6960865,32.1312058 L24.73221,32.0861184 L24.7343041,32.0840214 L24.7709512,32.0399825 L24.7751394,32.0347398 C24.8144041,31.9875553 24.8547159,31.9414194 24.8960747,31.896332 L24.8976453,31.894235 L24.9002629,31.8926621 L24.9405747,31.8486233 C25.8530865,30.881866 27.0844276,30.3942932 28.6351218,30.384332" id="Fill-23" fill="#E44C43" mask="url(#mask-2)"></path>
                                    <path d="M33.38212,33.7171282 L30.4969494,33.7171282 C30.38282,33.4240602 30.2194788,33.1876136 30.0058788,33.0067398 C29.6760553,32.7309728 29.2504259,32.5920408 28.7268965,32.5920408 C28.6965318,32.5920408 28.6656435,32.5920408 28.6352788,32.592565 L28.6352788,30.384332 L28.6860612,30.384332 C29.9718494,30.384332 30.9958729,30.6637689 31.7581318,31.2184485 C32.5073024,31.7673612 33.0481082,32.5988563 33.38212,33.7171282 L33.38212,33.7171282 Z M35.4793788,33.7171282 L36.1238435,33.7171282 L36.1238435,26.5823126 L35.4793788,26.5823126 L35.4793788,33.7171282 Z" id="Fill-24" fill="#F36740" mask="url(#mask-2)"></path>
                                    <path d="M43.6129318,30.9093903 L43.6129318,33.716866 L42.2507082,33.716866 C42.2350024,33.6329825 42.2172024,33.5632544 42.1973082,33.5071573 C42.0884141,33.2083223 41.8983729,32.9697786 41.6256141,32.7957204 C41.3539024,32.6185165 41.0136082,32.5304388 40.6015906,32.5304388 C40.1330318,32.5304388 39.7142082,32.6421087 39.3435494,32.870167 C39.0215788,33.0657204 38.7770906,33.3472544 38.60642,33.716866 L36.1238435,33.716866 L36.1238435,26.5825748 L38.2755494,26.5825748 L38.2755494,32.0051184 C39.1833494,30.9256427 40.2717671,30.3840699 41.5339965,30.3840699 C42.1836965,30.3840699 42.7690024,30.5030796 43.2893906,30.7416233 C43.40352,30.7945748 43.5113671,30.8511961 43.6129318,30.9093903" id="Fill-25" fill="#FFD832" mask="url(#mask-2)"></path>
                                    <path d="M45.1139953,33.7171282 L43.6130365,33.7171282 L43.6130365,30.9096524 C43.9747953,31.1204097 44.2590718,31.3689146 44.4663894,31.660934 C44.7318188,32.0326427 44.9119129,32.4441961 45.0071953,32.8982155 C45.0543129,33.1142155 45.0893894,33.3873612 45.1139953,33.7171282" id="Fill-26" fill="#058C5A" mask="url(#mask-2)"></path>
                                    <polygon id="Fill-27" fill="#0585BB" mask="url(#mask-2)" points="6.16885176 28.4887223 6.16885176 33.7172854 6.14372235 33.7172854 6.14372235 32.8365087 4.85793412 32.8365087 4.85793412 30.6083534 6.14372235 30.6083534 6.14372235 28.5039262"></polygon>
                                    <path d="M8.93936941,33.7171282 L6.16885176,33.7171282 L6.16885176,28.488565 L8.93936941,26.8481184 L8.93936941,30.6081961 L10.8581047,30.6081961 L10.8581047,32.8363515 L8.93936941,32.8363515 L8.93936941,33.7171282 Z M13.65794,31.5943515 L13.65794,33.7171282 L12.3266047,33.7171282 C12.5548635,33.0035942 12.9051047,32.3901961 13.3757576,31.8790311 C13.4668518,31.7799437 13.5610871,31.6845262 13.65794,31.5943515 L13.65794,31.5943515 Z" id="Fill-28" fill="#3B5D8B" mask="url(#mask-2)"></path>
                                    <path d="M21.1466618,32.7894291 L21.1466618,33.7173903 L18.8415618,33.7173903 C18.7462794,33.5071573 18.6253441,33.3231379 18.4777088,33.1674291 C18.0798265,32.7411961 17.5971324,32.5304388 17.0254382,32.5304388 C16.4165735,32.5304388 15.9129382,32.7548272 15.5150559,33.2009825 C15.3784147,33.3535456 15.2663794,33.5255068 15.1779029,33.7173903 L13.6575735,33.7173903 L13.6575735,31.5946136 C14.5255853,30.7867107 15.5909676,30.3840699 16.8516265,30.3840699 C18.4232618,30.3840699 19.6650735,30.9051961 20.5765382,31.9479728 C20.7932794,32.1964777 20.9833206,32.4769631 21.1466618,32.7894291" id="Fill-29" fill="#3C3B69" mask="url(#mask-2)"></path>
                                    <path d="M30.5472082,41.2166796 L28.6352788,41.2166796 L28.6352788,39.1903689 C28.6766376,39.192466 28.71852,39.1935146 28.7609259,39.1935146 C29.2917847,39.1935146 29.7273612,39.0399029 30.0639906,38.7368738 C30.4042847,38.4333204 30.6424906,37.9121942 30.7812259,37.1698252 L33.5365612,37.6400971 C33.2512376,38.9067379 32.7036259,39.8640583 31.8937259,40.5110097 C31.5078847,40.8203301 31.0586965,41.0546796 30.5472082,41.2166796 L30.5472082,41.2166796 Z M35.4793788,41.2166796 L36.1238435,41.2166796 L36.1238435,33.7169709 L35.4793788,33.7169709 L35.4793788,41.2166796 Z M30.4969494,33.7169709 L33.38212,33.7169709 L33.3936376,33.7562913 L30.6388259,34.2464854 C30.6063671,34.0530291 30.5587259,33.8768738 30.4969494,33.7169709 L30.4969494,33.7169709 Z" id="Fill-30" fill="#E44C43" mask="url(#mask-2)"></path>
                                    <path d="M42.25097,33.7171282 L43.6131935,33.7171282 L43.6131935,41.2168369 L42.3572465,41.2168369 L42.3572465,35.6228563 C42.3572465,34.7195359 42.3216465,34.0835942 42.25097,33.7171282 L42.25097,33.7171282 Z M36.1241053,33.7171282 L38.6066818,33.7171282 C38.5805053,33.7732252 38.5564229,33.8319437 38.5339112,33.892235 C38.3600994,34.3457301 38.2752876,35.0194194 38.2752876,35.909633 L38.2752876,41.2168369 L36.1241053,41.2168369 L36.1241053,33.7171282 Z" id="Fill-31" fill="#F36740" mask="url(#mask-2)"></path>
                                    <path d="M43.6129318,33.7171282 L45.1138906,33.7171282 C45.1405906,34.0773029 45.1531553,34.5066816 45.1531553,35.003167 L45.1531553,41.2168369 L43.6129318,41.2168369 L43.6129318,33.7171282 Z" id="Fill-32" fill="#FFD832" mask="url(#mask-2)"></path>
                                    <path d="M6.14377471,33.7171282 L6.16890412,33.7171282 L6.16890412,38.7847398 C6.15215118,38.4450117 6.14377471,38.009866 6.14377471,37.4793029 L6.14377471,33.7171282 Z" id="Fill-33" fill="#058C5A" mask="url(#mask-2)"></path>
                                    <path d="M12.3264476,33.7171282 L13.6577829,33.7171282 L13.6577829,40.3444485 C13.4342359,40.1467981 13.2305829,39.9224097 13.0489182,39.6733806 C12.3515771,38.706099 12.0013359,37.4861184 12.0013359,36.011866 C12.0013359,35.1567786 12.1097065,34.391866 12.3264476,33.7171282 L12.3264476,33.7171282 Z M6.16869471,33.7171282 L8.93921235,33.7171282 L8.93921235,37.132235 C8.93921235,38.0046233 8.95648882,38.5115942 8.99418294,38.6547204 C9.03135353,38.7978466 9.11302412,38.9168563 9.24600059,39.0122738 C9.37478882,39.1040214 9.53132412,39.1522544 9.71822412,39.1522544 C9.98103588,39.1522544 10.3543124,39.0631282 10.8480006,38.8833029 L11.0825418,41.0632252 C10.9500888,41.1203709 10.8139712,41.1717495 10.6752359,41.2168369 L7.49060647,41.2168369 C7.09795941,41.0474971 6.81001824,40.8294 6.62625941,40.5656913 C6.43621824,40.2930699 6.30690647,39.928701 6.23204176,39.4657689 C6.20534176,39.3121573 6.18387706,39.0856718 6.16869471,38.7847398 L6.16869471,33.7171282 Z" id="Fill-34" fill="#0585BB" mask="url(#mask-2)"></path>
                                    <path d="M13.6577829,33.7171282 L15.1775888,33.7171282 C15.0079653,34.0835942 14.9257712,34.5197883 14.9299594,35.0236136 L19.1035359,35.0236136 C19.0909712,34.5108757 19.0040653,34.0757301 18.8412476,33.7171282 L21.1468712,33.7171282 L21.1468712,36.7411282 L14.8791771,36.7411282 C14.8995947,37.5715748 15.1236653,38.2185262 15.5561006,38.6825068 C15.9843476,39.1454388 16.5220124,39.3766427 17.1612418,39.3766427 C17.5999594,39.3766427 17.9674771,39.257633 18.2632712,39.0190893 C18.56273,38.7805456 18.7873241,38.3957301 18.9407182,37.8641184 L21.1468712,38.2358272 L21.1468712,39.5412641 C20.8427006,39.9973806 20.4730888,40.3759049 20.0390829,40.6778854 C19.7092594,40.906468 19.3433124,41.0857689 18.9433359,41.2168369 L15.2288947,41.2168369 C14.6247418,41.0270505 14.1006888,40.7366039 13.6577829,40.3444485 L13.6577829,33.7171282 Z" id="Fill-35" fill="#3B5D8B" mask="url(#mask-2)"></path>
                                    <path d="M21.1466618,39.5414738 L21.1466618,38.2360369 L21.7366794,38.3340757 C21.5801441,38.783901 21.3832971,39.1860175 21.1466618,39.5414738 L21.1466618,39.5414738 Z M23.8663971,33.7173379 L26.7960676,33.7173379 C26.5547206,34.2033379 26.4343088,34.8780757 26.4343088,35.7426 C26.4343088,37.0029495 26.6452912,37.8921146 27.0672559,38.4132408 C27.4635676,38.9023864 27.98605,39.1603282 28.6352265,39.1902117 L28.6352265,41.2165223 L26.8342853,41.2165223 C26.0982029,40.9769301 25.4652559,40.5758621 24.9375382,40.0133184 C24.0156029,39.0324058 23.5564676,37.6766388 23.5564676,35.9433961 C23.5564676,35.1139981 23.6601265,34.3726777 23.8663971,33.7173379 L23.8663971,33.7173379 Z M21.1466618,33.7173379 L21.5230794,33.7173379 C21.78275,34.5598427 21.9015912,35.5685417 21.8796029,36.7408136 L21.1466618,36.7408136 L21.1466618,33.7173379 Z" id="Fill-36" fill="#3C3B69" mask="url(#mask-2)"></path>
                                    <path d="M7.49044941,41.2166796 L10.6750788,41.2166796 C10.1300847,41.3938835 9.53012,41.4819612 8.87518471,41.4819612 C8.37207294,41.4819612 7.91922,41.3970291 7.51453176,41.227165 L7.49044941,41.2166796 Z" id="Fill-37" fill="#058C5A" mask="url(#mask-2)"></path>
                                    <path d="M15.2288424,41.2166796 L18.9432835,41.2166796 C18.4030012,41.3938835 17.8004188,41.4819612 17.1344894,41.4819612 C16.4292953,41.4819612 15.7937306,41.3938835 15.2288424,41.2166796" id="Fill-38" fill="#0585BB" mask="url(#mask-2)"></path>
                                    <path d="M26.8344424,41.2166796 L28.63486,41.2166796 L28.63486,41.4819612 L28.5678482,41.4819612 L28.5631365,41.4819612 L28.5003129,41.4809126 L28.4914129,41.4809126 L28.4867012,41.4809126 L28.4202129,41.4788155 L28.4196894,41.4788155 L28.4191659,41.4788155 L28.3668129,41.4767184 L28.3537247,41.4767184 L28.3495365,41.4767184 L28.3406365,41.4756699 L28.28776,41.4735728 L28.27886,41.4725243 L28.2746718,41.4725243 L28.2615835,41.4725243 L28.2108012,41.4693786 L28.2092306,41.4693786 L28.1961424,41.4683301 L28.1830541,41.4678058 L28.1437894,41.4657087 L28.1396012,41.4646602 L28.1312247,41.4636117 L28.1181365,41.4636117 L28.0793953,41.460466 L28.0699718,41.4594175 L28.0668306,41.4594175 L28.0019129,41.4531262 L27.9380424,41.446835 L27.9338541,41.4457864 L27.9254776,41.4452621 L27.8752188,41.4400194 L27.8663188,41.4389709 L27.8621306,41.4389709 L27.8495659,41.4368738 L27.7998306,41.4305825 C27.46006,41.3865437 27.1386129,41.3147184 26.8344424,41.2166796" id="Fill-39" fill="#3B5D8B" mask="url(#mask-2)"></path>
                                    <path d="M28.6351218,41.2166796 L30.5470512,41.2166796 C29.9858276,41.3938835 29.3486924,41.4819612 28.6351218,41.4819612 L28.6351218,41.2166796 Z" id="Fill-40" fill="#3C3B69" mask="url(#mask-2)"></path>
                                    <path d="M63.3552259,29.8967068 C62.4306729,31.887367 63.0034141,33.0994835 65.0352318,33.5524544 C62.9044671,34.070435 62.3149729,35.2746874 63.2280082,37.1473864 C61.4946024,35.8021049 60.1873494,36.0915029 59.2942082,37.9736388 C59.2643671,35.7785126 58.2230671,34.934435 56.1964847,35.4099495 C57.8916729,34.0169592 57.90162,32.6758718 56.2671612,31.3856388 C58.4120612,31.8443767 59.4643553,31.0160272 59.4533612,28.9320466 C60.4318376,30.8970175 61.7349024,31.2042408 63.3552259,29.8967068" id="Fill-41" fill="#00B4C4" mask="url(#mask-2)"></path>
                                    <path d="M65.9109918,26.0156272 C67.31248,21.6248505 71.0583329,14.1676078 75.2612271,10.0132777 C80.4891918,4.8455301 88.1327212,7.27710291 88.7499624,13.6370447 C89.0897329,17.138132 86.5260094,22.1354913 79.6169918,20.3477243 C77.7427565,19.8627728 75.5235153,19.2771612 73.55138,20.0258214 C68.5830859,21.9121515 65.8445035,26.2232388 65.9109918,26.0156272" id="Fill-42" fill="#00B4C4" mask="url(#mask-2)"></path>
                                    <path d="M65.30464,26.6801417 C65.5334224,24.3696757 67.8793576,19.1489767 67.4888047,15.5477534 C67.0495635,11.5014233 62.51004,10.7527631 60.9457341,13.1665107 C59.5887459,15.2588796 60.7059576,17.1074621 61.9917459,18.8171126 C63.4885165,20.8067243 64.0481694,21.4463359 64.69054,23.8800058 C65.0852812,25.3757534 65.2978341,26.7441029 65.30464,26.6801417" id="Fill-43" fill="#F14943" mask="url(#mask-2)"></path>
                                    <path d="M65.4575106,27.1565476 C66.55954,30.0227417 66.6019459,41.8094214 71.6204988,40.883033 C73.5654106,40.5233825 74.3192929,37.0595184 68.3322106,30.6995767 C67.3228459,29.6263922 66.4495988,28.7948971 65.4575106,27.1565476" id="Fill-44" fill="#D25694" mask="url(#mask-2)"></path>
                                    <path d="M65.5101776,26.9691728 C68.1435306,31.5759495 78.3617776,35.9955612 83.3782365,33.6279495 C87.7853071,31.5471146 86.8796012,25.4713282 83.1693482,25.1745903 C81.6589659,25.0534835 80.0632482,26.0600854 78.7528541,26.8842408 C77.2246718,27.8468039 75.1834306,28.9619301 72.8196953,28.988668 C67.8864776,29.042668 65.4730071,26.9046874 65.5101776,26.9691728" id="Fill-45" fill="#F78644" mask="url(#mask-2)"></path>
                                    <path d="M73.5803835,35.5295359 C74.5735188,36.5597301 76.0310247,39.7116524 78.0340482,40.7617689 C80.4710776,42.0399437 82.9667424,39.2544874 81.5971894,37.2837495 C80.5763071,35.8142155 79.1455012,35.9410893 77.6126071,35.9594388 C76.8650071,35.9688757 76.0352129,35.9730699 75.32426,35.9300796 C74.3070424,35.8676913 73.5301247,35.4771087 73.5803835,35.5295359" id="Fill-46" fill="#F55599" mask="url(#mask-2)"></path>
                                    <path d="M80.7794365,21.5900388 C81.5961424,21.5900388 82.2578835,22.2527184 82.2578835,23.0700583 C82.2578835,23.8879223 81.5961424,24.5506019 80.7794365,24.5506019 C79.9632541,24.5506019 79.3015129,23.8879223 79.3015129,23.0700583 C79.3015129,22.2527184 79.9632541,21.5900388 80.7794365,21.5900388" id="Fill-47" fill="#F55599" mask="url(#mask-2)"></path>
                                    <path d="M64.6921629,26.5616563 C63.2037688,25.3301417 60.3175512,22.2961806 57.6501688,20.8948019 C55.9110041,19.9815204 53.4619335,20.6447243 52.5693159,22.0088796 C51.3955629,23.8045107 53.3320982,26.4720058 56.3230218,26.0767049 C60.5672747,25.515734 64.7539394,26.613035 64.6921629,26.5616563" id="Fill-48" fill="#00A45D" mask="url(#mask-2)"></path>
                                    <path d="M58.3909106,26.9630388 C56.2706165,28.4089806 51.38504,29.8475825 48.9338753,29.4176796 C47.1177518,29.0989223 45.8701812,27.3457573 46.0199106,25.9270777 C46.1267106,24.9157573 46.9282341,24.0690583 48.1019871,23.8850388 C49.3568871,23.6884369 50.3254165,24.1031359 51.0991929,25.0761845 C51.5892165,25.6911553 52.0891871,26.4382427 53.1210635,26.9813883 C53.7246929,27.2990971 54.9225282,27.3080097 56.0240341,27.2325146 C57.2852165,27.1444369 58.4202282,26.9436408 58.3909106,26.9630388" id="Fill-49" fill="#D25694" mask="url(#mask-2)"></path>
                                    <path d="M75.9306641,21.7881612 C75.2631641,23.2272874 75.6767524,24.1038699 77.1452524,24.4310155 C75.6050288,24.8053456 75.1783524,25.6756369 75.8390465,27.0293068 C74.5862406,26.0567825 73.64127,26.2654427 72.9962818,27.6264524 C72.97377,26.0394816 72.2214582,25.4297534 70.7566229,25.7731515 C71.9822053,24.7665495 71.9895347,23.7976951 70.8079288,22.8644913 C72.3580994,23.1963553 73.1187876,22.5976369 73.1104112,21.0908796 C73.8182229,22.511132 74.7600524,22.7339476 75.9306641,21.7881612" id="Fill-50" fill="#F9EB2E" mask="url(#mask-2)"></path>
                                    <path d="M65.2412406,10.2577456 L65.2412406,8.36774563 C65.2412406,6.69164854 64.5941582,5.17912427 63.5481465,4.08916311 C62.5126053,3.01021165 61.0838935,2.34281359 59.5059759,2.34281359 L8.07339941,2.34281359 C6.49600529,2.34281359 5.06729353,3.01021165 4.03227588,4.08863883 C2.98678765,5.17912427 2.33970529,6.69164854 2.33970529,8.36774563 L2.33970529,45.4321922 C2.33970529,47.107765 2.98678765,48.619765 4.03279941,49.7107748 C5.06729353,50.7886777 6.49652882,51.4566 8.07339941,51.4566 L59.5059759,51.4566 C61.08337,51.4566 62.5120818,50.7886777 63.5476229,49.7107748 C64.5936347,48.619765 65.2412406,47.107765 65.2412406,45.4321922 L65.2412406,43.1599981 L67.5808935,43.1599981 L67.5808935,45.4321922 C67.5808935,47.7300757 66.6819935,49.8161534 65.2291994,51.3292019 C63.7654112,52.8553573 61.7414465,53.7990466 59.5059759,53.7990466 L8.07339941,53.7990466 C5.83740529,53.7990466 3.81448765,52.8553573 2.35122294,51.3302505 C0.898428824,49.8161534 5.23529416e-05,47.7300757 5.23529416e-05,45.4321922 L5.23529416e-05,8.36774563 C5.23529416e-05,6.06933786 0.898428824,3.98326019 2.35069941,2.46916311 C3.81396412,0.943532039 5.83740529,-0.000157281553 8.07339941,-0.000157281553 L59.5059759,-0.000157281553 C61.74197,-0.000157281553 63.7659347,0.943532039 65.2297229,2.46916311 C66.6819935,3.98326019 67.5808935,6.06933786 67.5808935,8.36774563 L67.5808935,10.2577456 L65.2412406,10.2577456 Z" id="Fill-51" fill="#F14943" mask="url(#mask-2)"></path>
                                </g>
                            </g>
                        </g>
                    </g>
                </g>
            </g>
        </g>
    </g>
</svg>