<?xml version="1.0" encoding="UTF-8"?>
<svg width="91px" height="55px" viewBox="0 0 91 55" version="1.1" xmlns="http://www.w3.org/2000/svg" xmlns:xlink="http://www.w3.org/1999/xlink">
    <!-- Generator: Sketch 45.2 (43514) - http://www.bohemiancoding.com/sketch -->
    <title>Group 5</title>
    <desc>Created with Sketch.</desc>
    <defs>
        <polygon id="path-1" points="90.1107581 27.2503374 90.1107581 0 0 0 0 27.2503374 0 54.5006748 90.1107581 54.5006748"></polygon>
    </defs>
    <g id="Page-1" stroke="none" stroke-width="1" fill="none" fill-rule="evenodd">
        <g id="2-My-Business-Hower" transform="translate(-295.000000, -2506.000000)">
            <g id="Tehnology" transform="translate(80.000000, 2174.000000)">
                <g id="Icons" transform="translate(20.000000, 0.000000)">
                    <g id="Normal">
                        <g id="Howers" transform="translate(0.000000, 293.000000)">
                            <g id="Group-5" transform="translate(195.000000, 39.000000)">
                                <g id="Page-1">
                                    <mask id="mask-2" fill="white">
                                        <use xlink:href="#path-1"></use>
                                    </mask>
                                    <g id="Clip-2"></g>
                                    <path d="M28.0739516,33.7742184 C27.819,34.362665 27.7684355,34.7460631 27.7423548,35.5390243 L33.5530161,35.5390243 C33.5285323,34.7460631 33.4518871,34.362665 33.1969355,33.7742184 C32.7881613,32.8023738 31.8721452,32.1381019 30.6479516,32.1381019 C29.4248226,32.1381019 28.4821935,32.8023738 28.0739516,33.7742184 L28.0739516,33.7742184 Z M11.5260484,17.6576165 C11.5260484,15.6119369 11.2455484,13.5918883 8.90148387,13.5918883 C6.55635484,13.5918883 6.25083871,15.6119369 6.25083871,17.6576165 C6.25083871,19.7027621 6.55635484,21.7228107 8.90148387,21.7228107 C11.2455484,21.7228107 11.5260484,19.7027621 11.5260484,17.6576165 L11.5260484,17.6576165 Z M28.5934355,16.8395583 L34.4040968,16.8395583 C34.3790806,16.0465971 34.3024355,15.663199 34.0480161,15.0747524 C33.6397742,14.1034417 32.7221613,13.4386359 31.4995645,13.4386359 C30.2759032,13.4386359 29.3327419,14.1034417 28.9250323,15.0747524 C28.6700806,15.663199 28.6189839,16.0465971 28.5934355,16.8395583 L28.5934355,16.8395583 Z M41.3601774,16.8395583 L47.171371,16.8395583 C47.1463548,16.0465971 47.0691774,15.663199 46.8147581,15.0747524 C46.4070484,14.1034417 45.4894355,13.4386359 44.2657742,13.4386359 C43.0431774,13.4386359 42.1005484,14.1034417 41.6912419,15.0747524 C41.4373548,15.663199 41.3862581,16.0465971 41.3601774,16.8395583 L41.3601774,16.8395583 Z M83.3308548,22.6647524 C83.3308548,22.6647524 83.0445,32.795966 80.1862742,36.7095097 C77.6026935,40.250335 73.6128871,41.8821796 71.1911129,40.9669369 C71.1943065,40.9594612 71.1990968,40.9573252 71.2028226,40.9535874 C75.4140484,36.0826165 78.9349355,27.6083447 78.9349355,27.6083447 C78.9349355,27.6083447 76.0548871,31.5838301 73.0875484,36.2161117 C72.2071935,37.5900437 70.5912581,39.9769369 70.1760968,40.330432 C68.1960968,38.5004806 68.1359516,33.9280049 71.2086774,30.4768883 C74.6981613,26.5638786 83.3308548,22.6647524 83.3308548,22.6647524 L83.3308548,22.6647524 Z M72.4930161,26.7379563 C72.3056613,26.415966 71.8750645,25.4943155 71.7058065,25.1354806 C70.8733548,23.3744126 69.4719194,17.6480049 69.4719194,17.6480049 C69.4719194,17.6480049 69.8370484,22.8932961 71.6845161,26.9115 C71.6866452,26.9136359 71.6898387,26.9152379 71.6898387,26.9205777 C69.9179516,26.9552864 67.7133387,24.9886359 66.8510806,22.1120825 C65.8972742,18.9300922 68.0177903,12.3263544 68.0177903,12.3263544 C68.0177903,12.3263544 72.7048548,16.819801 74.0642419,20.145432 C75.2644839,23.0753835 74.186129,26.0064029 72.4930161,26.7379563 L72.4930161,26.7379563 Z M62.7063871,43.080966 L60.1063065,43.080966 L60.1063065,35.1289272 C60.1063065,33.1606748 58.9598226,32.2918883 57.5067581,32.2918883 C56.0542258,32.2918883 54.8821935,33.1868398 54.8821935,35.1289272 L54.8821935,43.080966 L52.2826452,43.080966 L52.2826452,24.877034 L54.8821935,24.877034 L54.8821935,31.422034 C55.7737258,30.4507233 56.9457581,29.965335 58.2199839,29.965335 C61.1010968,29.965335 62.7063871,31.9079563 62.7063871,34.720432 L62.7063871,43.080966 Z M62.6909516,24.382034 L60.090871,24.382034 L60.090871,16.4812573 C60.090871,14.4617427 58.9443871,13.5918883 57.4918548,13.5918883 C56.0387903,13.5918883 54.8156613,14.4868398 54.8156613,16.4812573 L54.8156613,24.382034 L52.2161129,24.382034 L52.2161129,11.4191214 L54.7645645,11.4191214 L54.7645645,12.722568 C55.656629,11.7512573 56.9047742,11.2658689 58.2050806,11.2658689 C59.5309355,11.2658689 60.6263226,11.6999951 61.3906452,12.4416942 C62.384371,13.4130049 62.6909516,14.6406262 62.6909516,16.0978592 L62.6909516,24.382034 Z M49.7459032,18.6550922 L41.3601774,18.6550922 C41.3601774,20.8791214 42.5332742,22.2850922 44.649,22.2850922 C46.101,22.2850922 46.8658548,21.8760631 47.7829355,20.9560146 L49.4393226,22.5152379 C48.1145323,23.8448495 46.8658548,24.5358204 44.5968387,24.5358204 C41.3601774,24.5358204 38.7867097,22.8222767 38.7867097,17.8877621 C38.7867097,13.6944126 40.9535323,11.2658689 44.2657742,11.2658689 C47.7318387,11.2658689 49.7459032,13.822034 49.7459032,17.5038301 L49.7459032,18.6550922 Z M36.978629,18.6550922 L28.5934355,18.6550922 C28.5934355,20.8791214 29.766,22.2850922 31.8817258,22.2850922 C33.3331935,22.2850922 34.0980484,21.8760631 35.0161935,20.9560146 L36.6725806,22.5152379 C35.3472581,23.8448495 34.0980484,24.5358204 31.8300968,24.5358204 C28.5934355,24.5358204 26.0194355,22.8222767 26.0194355,17.8877621 C26.0194355,13.6944126 28.1857258,11.2658689 31.4995645,11.2658689 C34.9650968,11.2658689 36.978629,13.822034 36.978629,17.5038301 L36.978629,18.6550922 Z M26.3574194,12.4929563 L24.3944516,14.4617427 C23.8089677,13.8738301 23.3501613,13.5918883 22.4580968,13.5918883 C21.056129,13.5918883 19.8840968,14.7175194 19.8840968,16.5074223 L19.8840968,24.382034 L17.2845484,24.382034 L17.2845484,11.4191214 L19.833,11.4191214 L19.833,12.8250922 C20.4956613,11.9045097 21.8199194,11.2658689 23.2735161,11.2658689 C24.5227258,11.2658689 25.4653548,11.5980049 26.3574194,12.4929563 L26.3574194,12.4929563 Z M15.8964194,30.348199 L17.3745,30.348199 L17.3745,26.4106262 L19.9735161,26.4106262 L19.9735161,30.348199 L22.4719355,30.348199 L22.4719355,32.3426165 L19.9735161,32.3426165 L19.9735161,39.3489757 C19.9735161,40.2941214 20.4328548,40.8564029 21.4010323,40.8564029 L22.4719355,40.8564029 L22.4719355,43.080966 L20.9161452,43.080966 C18.4954355,43.080966 17.3745,41.3428592 17.3745,39.4765971 L17.3745,32.3426165 L15.8964194,32.3426165 L15.8964194,30.348199 Z M14.1255968,24.3056748 C14.1255968,27.4759175 12.0359516,29.7768398 8.59543548,29.7768398 C6.63246774,29.7768398 5.38432258,29.3165485 4.03291935,28.0632961 L5.68983871,26.4015485 C6.50525806,27.1688786 7.21901613,27.5522767 8.49324194,27.5522767 C10.6856129,27.5522767 11.5260484,25.9925194 11.5260484,24.2538786 L11.5260484,22.5921311 C10.5828871,23.7172282 9.51251613,24.0749951 8.18825806,24.0749951 C6.88795161,24.0749951 5.81758065,23.640335 5.10382258,22.924267 C3.8546129,21.6715485 3.65075806,19.8565485 3.65075806,17.6576165 C3.65075806,15.4586845 3.8546129,13.6436845 5.10382258,12.390432 C5.81758065,11.6748981 6.9135,11.2658689 8.21327419,11.2658689 C9.58916129,11.2658689 10.6345161,11.6231019 11.6026935,12.7994612 L11.6026935,11.4191214 L14.1255968,11.4191214 L14.1255968,24.3056748 Z M25.1688871,36.5866942 C25.1688871,32.3944126 27.3351774,29.965335 30.6479516,29.965335 C34.1140161,29.965335 36.1275484,32.5215 36.1275484,36.2032961 L36.1275484,37.3534903 L27.7423548,37.3534903 C27.7423548,39.5785874 28.9154516,40.9845583 31.0306452,40.9845583 C32.4826452,40.9845583 33.2475,40.5760631 34.1651129,39.6549466 L35.8220323,41.2147039 C34.4967097,42.5448495 33.2475,43.2347524 30.9795484,43.2347524 C27.7423548,43.2347524 25.1688871,41.5217427 25.1688871,36.5866942 L25.1688871,36.5866942 Z M39.0826452,36.5866942 C39.0826452,31.7290728 41.9366129,29.965335 44.8422097,29.965335 C46.6263387,29.965335 47.8744839,30.4768883 49.0981452,31.780335 L47.3134839,33.5184417 C46.4980645,32.6234903 45.8609516,32.2918883 44.8422097,32.2918883 C43.8484839,32.2918883 43.0075161,32.7003835 42.4459839,33.4420825 C41.8855161,34.1581505 41.6816613,35.078733 41.6816613,36.5866942 C41.6816613,38.0962573 41.8855161,39.0414029 42.4459839,39.7574709 C43.0075161,40.4986359 43.8484839,40.908199 44.8422097,40.908199 C45.8609516,40.908199 46.4980645,40.5760631 47.3134839,39.6805777 L49.0981452,41.3941214 C47.8744839,42.6981019 46.6263387,43.2347524 44.8422097,43.2347524 C41.9366129,43.2347524 39.0826452,41.4448495 39.0826452,36.5866942 L39.0826452,36.5866942 Z M90.1107581,27.214267 C90.1107581,18.1510146 83.1780968,10.8018398 69.3319355,10.7415 L69.3319355,7.6230534 C69.3319355,3.4126165 66.0479032,-5.33980601e-05 61.9963548,-5.33980601e-05 L7.33717742,-5.33980601e-05 C3.28456452,-5.33980601e-05 0,3.4126165 0,7.6230534 L0,46.8781019 C0,51.0880049 3.28456452,54.5006748 7.33717742,54.5006748 L61.9963548,54.5006748 C66.0479032,54.5006748 69.3319355,51.0880049 69.3319355,46.8781019 L69.3319355,43.685966 C83.1780968,43.6250922 90.1107581,36.2759175 90.1107581,27.214267 L90.1107581,27.214267 Z" id="Fill-1" fill="#81A638" mask="url(#mask-2)"></path>
                                </g>
                            </g>
                        </g>
                    </g>
                </g>
            </g>
        </g>
    </g>
</svg>