<?xml version="1.0" encoding="UTF-8"?>
<svg width="100px" height="55px" viewBox="0 0 100 55" version="1.1" xmlns="http://www.w3.org/2000/svg" xmlns:xlink="http://www.w3.org/1999/xlink">
    <!-- Generator: Sketch 45.2 (43514) - http://www.bohemiancoding.com/sketch -->
    <title>Group 8</title>
    <desc>Created with Sketch.</desc>
    <defs></defs>
    <g id="Page-1" stroke="none" stroke-width="1" fill="none" fill-rule="evenodd">
        <g id="2-My-Business-Hower" transform="translate(-100.000000, -2506.000000)" fill="#003874">
            <g id="Tehnology" transform="translate(80.000000, 2174.000000)">
                <g id="Icons" transform="translate(20.000000, 0.000000)">
                    <g id="Normal">
                        <g id="Howers" transform="translate(0.000000, 293.000000)">
                            <g id="Group-8" transform="translate(0.000000, 39.000000)">
                                <g id="Page-1">
                                    <g id="Group-13" transform="translate(0.000000, 0.034255)">
                                        <path d="M91.5718041,54.2814003 L40.9352062,54.2814003 C36.551701,54.2814003 32.9857216,50.5264903 32.9857216,45.9115083 L35.2893299,45.9115083 C35.2893299,49.2279502 37.8223196,51.9262154 40.9352062,51.9262154 L91.5718041,51.9262154 C94.6846907,51.9262154 97.2171649,49.2279502 97.2171649,45.9115083 L97.2171649,8.86411718 C97.2171649,5.54662128 94.6846907,2.84782913 91.5718041,2.84782913 L40.9352062,2.84782913 C37.8223196,2.84782913 35.2893299,5.54662128 35.2893299,8.86411718 L35.2893299,10.7529028 L32.9857216,10.7529028 L32.9857216,8.86411718 C32.9857216,4.24808118 36.551701,0.493171195 40.9352062,0.493171195 L91.5718041,0.493171195 C95.9547938,0.493171195 99.5202577,4.24808118 99.5202577,8.86411718 L99.5202577,45.9115083 C99.5202577,50.5264903 95.9547938,54.2814003 91.5718041,54.2814003" id="Fill-1"></path>
                                        <path d="M27.4696392,12.6288822 C14.5160309,12.6288822 5.15463908e-05,19.6043191 5.15463908e-05,28.2097823 C5.15463908e-05,36.8131375 14.5160309,43.7896285 27.4696392,43.7896285 C40.4237629,43.7896285 46.9046907,36.8131375 46.9046907,28.2097823 C46.9046907,19.6043191 40.4237629,12.6288822 27.4696392,12.6288822 M31.3490206,36.9106334 C26.6479897,36.9106334 22.8371649,33.0150131 22.8371649,28.2097823 C22.8371649,23.4034975 26.6479897,19.5068232 31.3490206,19.5068232 C36.0495361,19.5068232 39.8603608,23.4034975 39.8603608,28.2097823 C39.8603608,33.0150131 36.0495361,36.9106334 31.3490206,36.9106334" id="Fill-3"></path>
                                        <path d="M51.2806186,24.0984062 C52.4223711,25.2388448 53.667732,25.8222393 55.4316495,25.8222393 C56.9368041,25.8222393 58.0270103,25.2388448 58.0270103,24.0984062 C58.0270103,23.1429463 57.3264948,22.8515126 56.4182474,22.7714079 L54.0826804,22.5595519 C51.903299,22.3740462 50.2950515,21.0481018 50.2950515,18.7398203 C50.2950515,16.0078268 52.4223711,14.6012507 55.1986598,14.6012507 C57.5079381,14.6012507 59.0646392,15.3179774 60.3615464,16.4320658 L58.7275258,18.3946321 C57.6893814,17.6526092 56.6259794,17.1482655 55.1986598,17.1482655 C53.5120619,17.1482655 52.9409278,17.8381149 52.9409278,18.7661705 C52.9409278,19.350619 53.3569072,19.9334864 54.6795876,20.0394144 L56.8589691,20.1990969 C59.5831959,20.3846026 60.6728866,22.0820854 60.6728866,24.2312115 C60.6728866,26.8572769 58.2868041,28.369254 55.224433,28.369254 C53.0971134,28.369254 51.1254639,27.5734766 49.4383505,25.9550445 L51.2806186,24.0984062 Z" id="Fill-5"></path>
                                        <path d="M69.7278351,27.0157473 L69.6757732,27.0157473 C69.1309278,27.94433 68.2226804,28.3690959 66.4319588,28.3690959 C63.5005155,28.3690959 61.7881443,26.5920354 61.7881443,24.2574036 C61.7881443,22.1088046 63.2412371,20.2785165 66.0695876,20.2785165 L69.7278351,20.2785165 L69.7278351,18.8724674 C69.7278351,17.5992236 68.9226804,17.1481074 67.0293814,17.1481074 C65.6541237,17.1481074 65.0051546,17.4131908 64.5386598,18.182618 L62.4623711,16.5641859 C63.4747423,15.1317866 64.9278351,14.6016196 66.8994845,14.6016196 C70.1427835,14.6016196 72.3737113,15.715181 72.3737113,19.0316229 L72.3737113,28.2099404 L69.7278351,28.2099404 L69.7278351,27.0157473 Z M69.7278351,22.5061663 L66.5618557,22.5061663 C65.0051546,22.5061663 64.278866,23.1433152 64.278866,24.1245984 C64.278866,25.0268308 64.9793814,25.8226082 66.7695876,25.8226082 C68.9752577,25.8226082 69.7278351,25.583348 69.7278351,23.4879764 L69.7278351,22.5061663 Z" id="Fill-7"></path>
                                        <path d="M75.720567,16.8293748 L74.3973711,16.8293748 L74.3973711,14.7608805 L75.720567,14.7608805 L75.720567,12.983293 C75.720567,10.4636825 77.2509794,9.32218985 79.3009794,9.32218985 L81.0133505,9.32218985 L81.0133505,11.8686776 L79.5087113,11.8686776 C78.6520103,11.8686776 78.3674742,12.1611653 78.3674742,12.983293 L78.3674742,14.7608805 L81.0133505,14.7608805 L81.0133505,16.8293748 L78.3674742,16.8293748 L78.3674742,28.2100458 L75.720567,28.2100458 L75.720567,16.8293748 Z" id="Fill-9"></path>
                                        <path d="M83.996701,22.506219 C83.996701,24.7080455 85.3204124,25.8226609 87.1363918,25.8226609 C88.1482474,25.8226609 89.2379381,25.3451944 90.0168041,24.5230668 L91.9363918,26.1941993 C90.6389691,27.7319997 88.9523711,28.3691486 87.1879381,28.3691486 C84.49,28.3691486 81.3503093,27.0432043 81.3503093,21.5254628 C81.3503093,16.2996822 84.2302062,14.6016723 86.7735052,14.6016723 C89.6791753,14.6016723 92.1961856,16.8040259 92.1961856,20.2785692 L92.1961856,22.506219 L83.996701,22.506219 Z M89.5492784,20.2785692 C89.4714433,18.2358982 88.3296907,17.1481601 86.7735052,17.1481601 C85.2162887,17.1481601 84.0482474,18.2358982 83.996701,20.2785692 L89.5492784,20.2785692 Z" id="Fill-11"></path>
                                    </g>
                                    <polygon id="Fill-14" points="49.5313402 41.0454612 55.5751546 32.8710881 49.8643299 32.8710881 49.8643299 30.6819097 58.5251546 30.6819097 58.5251546 32.652381 52.4818557 40.6802468 58.5251546 40.6802468 58.5251546 43.0159326 49.5313402 43.0159326"></polygon>
                                    <g id="Group-21" transform="translate(59.793814, 30.073535)">
                                        <path d="M1.35860825,2.04367234 C2.02458763,1.28900131 3.14262887,0.462130606 5.02252577,0.462130606 C6.90242268,0.462130606 8.02097938,1.28900131 8.68747423,2.04367234 C9.61530928,3.08925008 9.99572165,4.1111126 9.99572165,6.76300131 C9.99572165,9.43860524 9.61530928,10.4604678 8.68747423,11.5070995 C8.02097938,12.2607165 6.90242268,13.0881142 5.02252577,13.0881142 C3.14262887,13.0881142 2.02458763,12.2607165 1.35860825,11.5070995 C0.430257732,10.4604678 0.0498453608,9.43860524 0.0498453608,6.76300131 C0.0498453608,4.1111126 0.430257732,3.08925008 1.35860825,2.04367234 M6.97407216,3.84392111 C6.61685567,3.33272635 5.85551546,2.94379673 5.02252577,2.94379673 C4.19005155,2.94379673 3.42871134,3.33272635 3.07149485,3.84392111 C2.61943299,4.50056923 2.47716495,4.98699476 2.47716495,6.76300131 C2.47716495,8.56325008 2.61943299,9.05020262 3.07149485,9.70685074 C3.42871134,10.2169915 4.19005155,10.6069751 5.02252577,10.6069751 C5.85551546,10.6069751 6.61685567,10.2169915 6.97407216,9.70685074 C7.42613402,9.05020262 7.56891753,8.56325008 7.56891753,6.78724354 C7.56891753,4.98699476 7.42613402,4.50056923 6.97407216,3.84392111" id="Fill-15"></path>
                                        <path d="M11.6574742,0.608374468 L14.0847938,0.608374468 L14.0847938,1.92219771 L14.1322165,1.92219771 C14.8935567,0.94881964 15.9878866,0.461867103 17.2729381,0.461867103 C19.1528351,0.461867103 21.2945876,1.94643993 21.2945876,4.744309 L21.2945876,12.9423974 L18.867268,12.9423974 L18.867268,5.59542193 C18.867268,3.91691129 17.8440722,2.94406023 16.4884021,2.94406023 C15.1074742,2.94406023 14.0847938,3.91691129 14.0847938,5.59542193 L14.0847938,12.9423974 L11.6574742,12.9423974 L11.6574742,0.608374468 Z" id="Fill-17"></path>
                                        <path d="M25.3830928,7.71166285 C25.3830928,9.73114566 26.5964948,10.7524812 28.2619588,10.7524812 C29.1903093,10.7524812 30.1892784,10.3145401 30.9031959,9.56039607 L32.6635052,11.0929264 C31.4743299,12.5042455 29.9274227,13.0876399 28.3098969,13.0876399 C25.8346392,13.0876399 22.9557732,11.8718396 22.9557732,6.81153846 C22.9557732,2.01895581 25.5970103,0.462183306 27.9284536,0.462183306 C30.5939175,0.462183306 32.9016495,2.48113912 32.9016495,5.66793781 L32.9016495,7.71166285 L25.3830928,7.71166285 Z M30.4748454,5.66793781 C30.4037113,3.79496236 29.3568041,2.79734206 27.9284536,2.79734206 C26.501134,2.79734206 25.4305155,3.79496236 25.3830928,5.66793781 L30.4748454,5.66793781 Z" id="Fill-19"></path>
                                    </g>
                                </g>
                            </g>
                        </g>
                    </g>
                </g>
            </g>
        </g>
    </g>
</svg>