<?xml version="1.0" encoding="UTF-8"?>
<svg width="121px" height="54px" viewBox="0 0 121 54" version="1.1" xmlns="http://www.w3.org/2000/svg" xmlns:xlink="http://www.w3.org/1999/xlink">
    <!-- Generator: Sketch 45.2 (43514) - http://www.bohemiancoding.com/sketch -->
    <title>Group 7</title>
    <desc>Created with Sketch.</desc>
    <defs>
        <polygon id="path-1" points="0 29.0289845 0 0.286304854 41.5742848 0.286304854 41.5742848 29.0289845 1.77557881e-15 29.0289845"></polygon>
    </defs>
    <g id="Page-1" stroke="none" stroke-width="1" fill="none" fill-rule="evenodd">
        <g id="2-My-Business-Hower" transform="translate(-880.000000, -2506.000000)">
            <g id="Tehnology" transform="translate(80.000000, 2174.000000)">
                <g id="Icons" transform="translate(20.000000, 0.000000)">
                    <g id="Normal">
                        <g id="Howers" transform="translate(0.000000, 293.000000)">
                            <g id="Group-7" transform="translate(780.000000, 39.000000)">
                                <g id="Page-1">
                                    <path d="M77.9374152,29.3790932 L77.9374152,32.1026854 L80.49525,32.1026854 L80.49525,34.1069767 L77.9374152,34.1069767 L77.9374152,38.7908214 C77.9374152,39.4445883 78.03895,39.9347825 78.2435978,40.2619282 C78.4477196,40.5885495 78.8038804,40.7515981 79.3147109,40.7515981 C79.5624978,40.7515981 79.7592543,40.7447825 79.9049804,40.7301029 C80.0507065,40.7159476 80.2037978,40.6865883 80.3637283,40.6425495 L80.4079196,42.6693845 C80.2037978,42.741734 79.9344413,42.8067437 79.5987978,42.8654621 C79.2636804,42.923132 78.8848978,42.9524913 78.4619239,42.9524913 C77.9516196,42.9524913 77.500237,42.8759476 77.1067239,42.7233845 C76.7132109,42.5708214 76.3922978,42.3569184 76.145037,42.0811515 C75.576863,41.5002583 75.29225,40.5051903 75.29225,39.0959476 L75.29225,34.1069767 L73.7834326,34.1069767 L73.7834326,32.1026854 L75.29225,32.1026854 L75.29225,30.1198893 L77.9374152,29.3790932 Z" id="Fill-1" fill="#231F20"></path>
                                    <path d="M89.1090822,36.2857456 C89.1090822,36.0388136 89.0790952,35.7667165 89.0217517,35.4684058 C88.9633561,35.1711437 88.8502474,34.8911825 88.6824257,34.6300951 C88.51513,34.3684835 88.2889126,34.1472408 88.0042996,33.9653184 C87.7207387,33.7839204 87.3519517,33.6932214 86.9010952,33.6932214 C86.4928517,33.6932214 86.1356387,33.7771049 85.8294561,33.943299 C85.5232735,34.111066 85.27233,34.321299 85.0750474,34.5750466 C84.878817,34.8298427 84.7288822,35.1092796 84.6268213,35.4144058 C84.5252865,35.7190078 84.4595257,36.0099786 84.4300648,36.2857456 L89.1090822,36.2857456 Z M84.4300648,38.1589689 C84.4447952,38.6386777 84.5426474,39.0523282 84.7257257,39.4009689 C84.9077517,39.7496097 85.1481735,40.0327165 85.4469909,40.2502893 C85.7447561,40.4689107 86.0882909,40.6319592 86.4744387,40.7410078 C86.8611126,40.8500563 87.2730387,40.9045806 87.7096909,40.9045806 C88.3362604,40.9045806 88.8791822,40.861066 89.3384561,40.7740369 C89.79773,40.6870078 90.2380648,40.5706194 90.6605126,40.4253961 L91.0540257,42.2551049 C90.5879126,42.4585223 90.0449909,42.6220951 89.4257865,42.745299 C88.8060561,42.8690272 88.1105691,42.9308913 87.3377474,42.9308913 C86.4775952,42.9308913 85.7089822,42.8034932 85.0319083,42.5492214 C84.3537822,42.2954738 83.777717,41.9358233 83.3047648,41.4707942 C82.8307604,41.0062893 82.4703909,40.4437456 82.2226039,39.7826388 C81.9737648,39.121532 81.8506604,38.3849301 81.8506604,37.5707359 C81.8506604,36.8304641 81.9637691,36.1190272 82.1899865,35.435901 C82.4151517,34.753299 82.7465865,34.1472408 83.1842909,33.6166777 C83.620943,33.0866388 84.1643909,32.6619786 84.8130561,32.3426971 C85.4611952,32.0228913 86.2082387,31.8629883 87.0541865,31.8629883 C87.9143387,31.8629883 88.6382343,32.0228913 89.2295561,32.3426971 C89.8192996,32.6619786 90.2927778,33.0719592 90.650517,33.5731631 C91.0066778,34.074367 91.2628822,34.6300951 91.4149213,35.2398233 C91.5680126,35.8500757 91.6448213,36.4456485 91.6448213,37.0265417 C91.6448213,37.2734738 91.6379822,37.4947165 91.6232517,37.6907942 C91.6079952,37.8868718 91.5864257,38.0436291 91.5574909,38.1589689 L84.4300648,38.1589689 Z" id="Fill-3" fill="#231F20"></path>
                                    <path d="M101.636002,42.386068 C101.344023,42.5166117 100.936306,42.6398155 100.411797,42.7562039 C99.8867626,42.8725922 99.2891278,42.9307864 98.618893,42.9307864 C97.7882017,42.9307864 97.033793,42.8033883 96.356193,42.5496408 C95.678593,42.2953689 95.1025278,41.9320485 94.6290496,41.4596796 C94.1550452,40.9883592 93.7873104,40.4179515 93.524793,39.7500291 C93.2628017,39.0815825 93.13128,38.3339709 93.13128,37.5056214 C93.13128,36.7071553 93.2659583,35.9663592 93.536367,35.283233 C93.8051974,34.6006311 94.1918713,34.0055825 94.6948104,33.4970388 C95.1977496,32.9884951 95.8164278,32.589 96.5529496,32.2990777 C97.2884191,32.0086311 98.122793,31.8634078 99.0560713,31.8634078 C99.5511191,31.8634078 100.032489,31.9105922 100.499128,32.0044369 C100.965241,32.0993301 101.351389,32.2115243 101.657571,32.3425922 L101.176728,34.3683786 C100.957876,34.2519903 100.684837,34.1544757 100.356558,34.0742621 C100.028806,33.9945728 99.6247713,33.9547282 99.1439278,33.9547282 C98.6330974,33.9547282 98.1743496,34.0417573 97.7666322,34.2158155 C97.3578626,34.3903981 97.01538,34.6336602 96.7386583,34.9461262 C96.4614104,35.258068 96.2504496,35.6250583 96.1047235,36.0460485 C95.9589974,36.4675631 95.8858713,36.9173883 95.8858713,37.3965728 C95.8858713,37.9344757 95.9695191,38.4173301 96.1373409,38.8456602 C96.3046365,39.2739903 96.5345365,39.6336408 96.8259887,39.9240874 C97.1174409,40.214534 97.4636061,40.4357767 97.8644843,40.5883398 C98.2653626,40.7409029 98.691493,40.8174466 99.1439278,40.8174466 C99.6095148,40.8174466 100.014076,40.7776019 100.356558,40.6973883 C100.699041,40.617699 101.002067,40.5196602 101.264058,40.4032718 L101.636002,42.386068 Z" id="Fill-5" fill="#231F20"></path>
                                    <path d="M103.625242,27.244101 L106.314072,27.244101 L106.314072,33.5406058 L106.357737,33.5406058 C106.692855,33.0320621 107.137398,32.632567 107.691368,32.3426447 C108.260068,32.0228388 108.878746,31.8634602 109.549507,31.8634602 C110.00089,31.8634602 110.449642,31.9431495 110.893659,32.1030524 C111.338729,32.2624311 111.735924,32.5240427 112.085772,32.8868388 C112.435094,33.2501592 112.719707,33.7220039 112.938033,34.3028971 C113.156885,34.8837903 113.266311,35.6030913 113.266311,36.4597515 L113.266311,42.7127417 L110.576955,42.7127417 L110.576955,36.7428583 C110.576955,35.9732272 110.420181,35.3309942 110.107159,34.8145864 C109.793611,34.2997515 109.26542,34.0418097 108.522059,34.0418097 C107.99755,34.0418097 107.55669,34.1907029 107.199477,34.487965 C106.841737,34.7862757 106.583429,35.1385864 106.422972,35.5448971 C106.379307,35.6612854 106.350372,35.7881592 106.335642,35.926567 C106.321437,36.0644505 106.314072,36.2060039 106.314072,36.3507029 L106.314072,42.7127417 L103.625242,42.7127417 L103.625242,27.244101 Z" id="Fill-7" fill="#231F20"></path>
                                    <polygon id="Fill-9" fill="#231F20" points="75.227857 10.0496621 85.2035178 10.0496621 85.2035178 12.6243612 78.373857 12.6243612 78.373857 17.3653515 84.7174135 17.3653515 84.7174135 19.9143612 78.373857 19.9143612 78.373857 27.2300505 75.227857 27.2300505"></polygon>
                                    <polygon id="Fill-11" fill="#231F20" points="92.4674635 13.490668 92.415907 13.490668 89.3724939 15.0199689 88.8353591 12.6497359 92.9020113 10.6611728 95.5114026 10.6611728 95.5114026 27.2302602 92.4674635 27.2302602"></polygon>
                                    <g id="Group-15" transform="translate(0.000000, 13.430272)">
                                        <mask id="mask-2" fill="white">
                                            <use xlink:href="#path-1"></use>
                                        </mask>
                                        <g id="Clip-14"></g>
                                        <path d="M41.5742848,0.286304854 L20.3503587,0.286304854 L-0.000263043478,29.0289845 L11.1759283,29.0289845 L16.782963,21.0673922 L24.3549326,21.0673922 L29.9614413,13.2520718 L22.3521196,13.2520718 L26.1025935,7.95640194 C29.596863,7.88300388 32.5455804,7.18939223 34.9487457,5.91121748 C36.6964065,4.92453786 38.9164935,3.02562524 41.5742848,0.286304854" id="Fill-13" fill="#231F20" mask="url(#mask-2)"></path>
                                    </g>
                                    <path d="M64.3149196,17.4559456 C63.5841848,17.4559456 62.9918109,16.8656155 62.9918109,16.1374019 C62.9918109,15.4091883 63.5841848,14.8188583 64.3149196,14.8188583 C65.0456543,14.8188583 65.6380283,15.4091883 65.6380283,16.1374019 C65.6380283,16.8656155 65.0456543,17.4559456 64.3149196,17.4559456 L64.3149196,17.4559456 Z M49.7286326,13.6801398 L46.2164761,18.5946641 L66.4676674,18.5946641 L66.961137,18.5946641 L66.961137,13.6801398 L49.7286326,13.6801398 Z" id="Fill-16" fill="#ED342D"></path>
                                    <path d="M64.3149196,23.4222117 C63.5841848,23.4222117 62.9918109,22.8318816 62.9918109,22.103668 C62.9918109,21.3754544 63.5841848,20.7851243 64.3149196,20.7851243 C65.0456543,20.7851243 65.6380283,21.3754544 65.6380283,22.103668 C65.6380283,22.8318816 65.0456543,23.4222117 64.3149196,23.4222117 L64.3149196,23.4222117 Z M54.3524109,19.6464058 L45.4641717,19.6464058 L41.9520152,24.5609301 L59.871063,24.5609301 L66.961137,24.5609301 L66.961137,19.6464058 L54.3524109,19.6464058 Z" id="Fill-18" fill="#ED342D"></path>
                                    <path d="M64.3149196,26.7513379 C65.0456543,26.7513379 65.6380283,27.341668 65.6380283,28.0698816 C65.6380283,28.7980951 65.0456543,29.3884252 64.3149196,29.3884252 C63.5841848,29.3884252 62.9918109,28.7980951 62.9918109,28.0698816 C62.9918109,27.341668 63.5841848,26.7513379 64.3149196,26.7513379 L64.3149196,26.7513379 Z M41.200237,25.6126194 L37.6875543,30.5271437 L52.4122022,30.5271437 L66.961137,30.5271437 L66.961137,25.6126194 L53.3207543,25.6126194 L41.200237,25.6126194 Z" id="Fill-20" fill="#ED342D"></path>
                                    <path d="M64.3149196,38.6837126 C65.0456543,38.6837126 65.6380283,39.2740427 65.6380283,40.0022563 C65.6380283,40.7304699 65.0456543,41.3208 64.3149196,41.3208 C63.5841848,41.3208 62.9918109,40.7304699 62.9918109,40.0022563 C62.9918109,39.2740427 63.5841848,38.6837126 64.3149196,38.6837126 L64.3149196,38.6837126 Z M40.7935717,37.5449942 L37.2587935,42.4595184 L37.2056587,42.5329165 L38.4146065,42.4595184 L66.961137,42.4595184 L66.961137,37.5449942 L54.9290022,37.5449942 L40.7935717,37.5449942 Z" id="Fill-22" fill="#ED342D"></path>
                                    <path d="M64.3149196,32.7175515 C65.0456543,32.7175515 65.6380283,33.3078816 65.6380283,34.0360951 C65.6380283,34.7643087 65.0456543,35.3546388 64.3149196,35.3546388 C63.5841848,35.3546388 62.9918109,34.7643087 62.9918109,34.0360951 C62.9918109,33.3078816 63.5841848,32.7175515 64.3149196,32.7175515 L64.3149196,32.7175515 Z M37.2056587,31.578833 L35.4553674,34.1325612 L43.415063,33.8767165 L41.5506109,36.4933573 L48.1608935,36.4933573 L66.961137,36.4933573 L66.961137,31.578833 L52.320663,31.578833 L37.2056587,31.578833 Z" id="Fill-24" fill="#ED342D"></path>
                                    <path d="M112.697664,53.7992039 L61.0138291,53.7992039 C56.5399857,53.7992039 52.89999,50.0459417 52.89999,45.4318252 L55.2510726,45.4318252 C55.2510726,48.7536117 57.8362639,51.456233 61.0138291,51.456233 L112.697664,51.456233 C115.874703,51.456233 118.459894,48.7536117 118.459894,45.4318252 L118.459894,8.36790291 C118.459894,5.04559223 115.874703,2.34297087 112.697664,2.34297087 L61.0138291,2.34297087 C57.8362639,2.34297087 55.2510726,5.04559223 55.2510726,8.36790291 L55.2510726,10.2579029 L52.89999,10.2579029 L52.89999,8.36790291 C52.89999,3.75378641 56.5399857,0 61.0138291,0 L112.697664,0 C117.171507,0 120.810977,3.75378641 120.810977,8.36790291 L120.810977,45.4318252 C120.810977,50.0459417 117.171507,53.7992039 112.697664,53.7992039" id="Fill-26" fill="#ED362E"></path>
                                </g>
                            </g>
                        </g>
                    </g>
                </g>
            </g>
        </g>
    </g>
</svg>