<svg width="89" height="54" viewBox="0 0 89 54" xmlns="http://www.w3.org/2000/svg" xmlns:xlink="http://www.w3.org/1999/xlink"><title>Group 11</title><defs><path id="a" d="M0 53.8h88.78V0H0z"/></defs><g fill="none" fill-rule="evenodd"><path d="M14.104 20.048l-2.031-5.416-1.973 5.416h4.004zm9.942-2.636h2.184c1.415 0 2.296-.061 2.65-.18.35-.12.63-.328.827-.62.2-.294.299-.661.299-1.1 0-.495-.133-.89-.394-1.196-.263-.304-.633-.494-1.11-.573-.241-.034-.959-.05-2.153-.05h-2.303v3.719zm-2.96 8.441V11.22h6.216c1.56 0 2.697.133 3.405.395.71.263 1.275.73 1.7 1.4.425.674.64 1.441.64 2.307 0 1.1-.32 2.006-.962 2.721-.644.716-1.603 1.165-2.882 1.353.637.37 1.16.78 1.572 1.226.415.446.973 1.24 1.673 2.377l1.783 2.855h-3.528l-2.115-3.195c-.76-1.134-1.28-1.85-1.562-2.146-.28-.293-.575-.498-.888-.607-.316-.108-.813-.163-1.493-.163h-.6v6.111h-2.958zm18.026 0v-12.16h-4.327v-2.474h11.593v2.473h-4.306v12.161h-2.96zm-19.6 0h-3.188l-1.261-3.332H9.202l-1.215 3.332H4.858l5.674-14.634h3.126l2.631 6.579 3.223 8.055zm-.408 9.171c-.02-.814-.229-1.435-.626-1.857a1.91 1.91 0 0 0-1.453-.637 1.94 1.94 0 0 0-1.51.67c-.398.448-.592 1.057-.585 1.824h4.174zm-.164 2.84l2.797.47c-.358 1.026-.926 1.806-1.698 2.344-.775.535-1.745.804-2.905.804-1.84 0-3.204-.602-4.085-1.809-.698-.967-1.048-2.187-1.048-3.661 0-1.758.46-3.138 1.375-4.133.915-.997 2.074-1.495 3.475-1.495 1.572 0 2.814.522 3.725 1.564.909 1.042 1.344 2.64 1.303 4.793h-7c.02.83.244 1.478.677 1.942a2.1 2.1 0 0 0 1.605.694c.44 0 .807-.12 1.102-.358.3-.238.524-.623.677-1.155zm19.335-11.282v5.423c.908-1.079 1.997-1.621 3.26-1.621.648 0 1.234.119 1.754.357.52.242.912.545 1.177.92.266.372.446.783.541 1.237.099.453.146 1.155.146 2.105v6.214h-2.796v-5.594c0-1.11-.054-1.816-.16-2.116a1.389 1.389 0 0 0-.571-.711c-.272-.178-.612-.266-1.024-.266-.47 0-.888.112-1.259.34-.37.225-.64.567-.81 1.022-.173.454-.258 1.128-.258 2.017v5.308H35.48V26.582h2.796zm-27.417 4.026v2.228H8.94v4.296c0 .873.017 1.38.054 1.523.038.143.12.262.252.357a.79.79 0 0 0 .472.14c.263 0 .636-.089 1.13-.27l.235 2.181c-.65.28-1.385.419-2.208.419-.503 0-.955-.085-1.36-.255-.405-.171-.702-.392-.889-.662-.19-.272-.319-.637-.394-1.1-.058-.326-.088-.987-.088-1.986v-4.643H4.858v-2.228h1.286v-2.104l2.796-1.656v3.76h1.918zm13.917 1.427l.121-.139.002-.002.002-.002.04-.044c.922-.977 2.171-1.464 3.746-1.464 1.286 0 2.31.28 3.072.835.759.555 1.302 1.4 1.636 2.537l-2.755.49c-.093-.547-.303-.96-.633-1.24-.33-.275-.755-.414-1.279-.414-.697 0-1.256.241-1.67.725-.416.484-.623 1.291-.623 2.425 0 1.26.211 2.15.633 2.671.422.521.986.78 1.694.78.53 0 .966-.153 1.303-.456.34-.303.578-.825.718-1.567l2.754.47c-.285 1.266-.833 2.224-1.642 2.871-.81.647-1.895.97-3.259.97h-.148l-.067-.002-.054-.002h-.017l-.008-.001-.053-.002-.01-.001h-.017l-.05-.003h-.002l-.013-.001-.013-.001-.039-.003h-.004l-.01-.002h-.012l-.038-.003h-.013l-.065-.007-.064-.006-.004-.001-.008-.001-.05-.005-.01-.001h-.004l-.012-.002-.051-.006c-1.16-.15-2.116-.623-2.861-1.417-.922-.982-1.382-2.337-1.382-4.07 0-.974.143-1.827.427-2.56l.047-.117.012-.028.037-.086.012-.028.04-.085.013-.027.013-.028.014-.027.027-.053.002-.005c.027-.053.056-.107.085-.159l.016-.026.012-.02.002-.006.016-.027.013-.022.002-.003.016-.027.003-.004.01-.016.003-.005.015-.026h.001l.013-.02.003-.006.016-.025.004-.006.012-.019.017-.026.001-.002.016-.022.016-.025.004-.005.018-.026.027-.04.002-.002v-.001l.018-.025.017-.024.012-.016.006-.008.018-.023.002-.004.006-.008.028-.036.005-.007.002-.003.035-.044.004-.005.036-.045.002-.002.037-.044.004-.005z" fill="#A767AA"/><path fill="#E44C43" d="M10.531 11.219h3.127v7.5h-.053l-1.532-4.087-1.489 4.086h-2.96z"/><path d="M16.658 18.718h-3V11.22l2.631 6.579.369.92zm4.429 0h.06V11.22h-.06v7.5z" fill="#F36740"/><path d="M21.147 11.219h6.155c.486 0 .93.013 1.333.038v2.512a2.996 2.996 0 0 0-.133-.026c-.241-.034-.959-.051-2.153-.051h-2.303v3.72h2.184c1.159 0 1.959-.041 2.405-.121v1.427h-7.488V11.22z" fill="#FFD832"/><path d="M31.255 18.718h-2.62V17.29a1.586 1.586 0 0 0 1.072-.678c.2-.294.299-.661.299-1.1 0-.495-.133-.89-.395-1.197-.237-.274-.563-.456-.976-.546v-2.512c.893.058 1.584.177 2.072.357.71.263 1.275.73 1.7 1.4.426.674.64 1.44.64 2.306 0 1.1-.32 2.007-.962 2.722-.235.26-.511.486-.83.676zm3.53-5.026h1.34V11.22h-1.34v2.473z" fill="#058C5A"/><path fill="#0585BB" d="M36.124 11.219h7.49v2.473H42.07v5.026h-2.96v-5.026h-2.987z"/><mask id="b" fill="#fff"><use xlink:href="#a"/></mask><path fill="#3B5D8B" mask="url(#b)" d="M43.613 13.692h2.765v-2.473h-2.765z"/><path d="M21.087 25.853h.06v-7.135h-.06v7.135zm-7.43-7.135h3l2.855 7.135h-3.187l-1.263-3.331h-1.404v-2.474h.445l-.445-1.188v-.142z" fill="#E44C43" mask="url(#b)"/><path d="M21.147 18.718h7.488v4.012l-.047-.072c-.759-1.134-1.28-1.85-1.562-2.146-.28-.293-.575-.498-.888-.607-.316-.108-.813-.163-1.493-.163h-.599v6.111h-2.9v-7.135z" fill="#F36740" mask="url(#b)"/><path d="M28.635 18.718h2.62c-.556.332-1.239.557-2.052.677.637.37 1.16.78 1.572 1.226.415.446.973 1.24 1.673 2.377l1.783 2.855h-3.528l-2.068-3.123v-4.012z" fill="#FFD832" mask="url(#b)"/><path fill="#058C5A" mask="url(#b)" d="M39.112 25.853h2.96v-7.135h-2.96z"/><path fill="#3B5D8B" mask="url(#b)" d="M6.169 22.471v3.382H4.858z"/><path d="M13.605 18.718h.053v.142l-.053-.142zm-5.981 0h2.96l-.484 1.33h3.558v2.473H9.202l-1.214 3.332h-1.82v-3.382l1.456-3.753z" fill="#3C3B69" mask="url(#b)"/><path d="M21.523 33.717h-.376v-.928a5.5 5.5 0 0 1 .376.928m7.112-3.333v2.209c-.654.02-1.182.262-1.578.724a1.97 1.97 0 0 0-.261.4h-2.93a5.413 5.413 0 0 1 .164-.45l.012-.028.037-.086.012-.028.04-.085.013-.027.013-.028.015-.028.026-.052.002-.005c.028-.053.056-.107.085-.159l.016-.026.012-.02.002-.006.016-.027.013-.022.002-.003.016-.027.003-.004.01-.016.003-.005.015-.026h.001l.013-.02.003-.006.016-.025.004-.005.012-.02.016-.025.002-.003.015-.022.017-.026.004-.004.018-.026.027-.04.002-.002v-.001l.018-.025.017-.023.012-.017.006-.008.018-.023.003-.005.005-.007.029-.037.004-.006.002-.003.035-.044.004-.005.036-.045.002-.002.037-.044.004-.005c.04-.047.08-.094.121-.139l.002-.002.002-.001.04-.044c.913-.967 2.144-1.455 3.695-1.465" fill="#E44C43" mask="url(#b)"/><path d="M33.382 33.717h-2.885a1.733 1.733 0 0 0-.491-.71c-.33-.276-.756-.415-1.28-.415h-.09v-2.208h.05c1.286 0 2.31.28 3.072.834.75.55 1.29 1.38 1.624 2.5zm2.097 0h.645v-7.135h-.645v7.135z" fill="#F36740" mask="url(#b)"/><path d="M43.613 30.91v2.807H42.25a1.42 1.42 0 0 0-.054-.21 1.387 1.387 0 0 0-.571-.711c-.272-.177-.612-.266-1.024-.266-.469 0-.888.112-1.258.34a1.881 1.881 0 0 0-.738.847h-2.482v-7.134h2.152v5.422c.907-1.08 1.996-1.62 3.258-1.62.65 0 1.235.118 1.755.357.115.053.222.11.324.167" fill="#FFD832" mask="url(#b)"/><path d="M45.114 33.717h-1.501V30.91c.362.21.646.459.853.75.266.373.446.784.541 1.238.047.216.082.49.107.82" fill="#058C5A" mask="url(#b)"/><path fill="#0585BB" mask="url(#b)" d="M6.169 28.489v5.228h-.025v-.88H4.858v-2.229h1.286v-2.104z"/><path d="M8.94 33.717H6.168V28.49l2.77-1.64v3.76h1.92v2.227h-1.92v.881zm4.718-2.123v2.123h-1.331a4.86 4.86 0 0 1 1.33-2.123z" fill="#3B5D8B" mask="url(#b)"/><path d="M21.147 32.79v.927h-2.305a1.979 1.979 0 0 0-.364-.55 1.908 1.908 0 0 0-1.453-.637c-.608 0-1.112.225-1.51.671a2.062 2.062 0 0 0-.337.516h-1.52v-2.122c.868-.808 1.933-1.21 3.194-1.21 1.571 0 2.813.52 3.725 1.563.216.248.406.529.57.841" fill="#3C3B69" mask="url(#b)"/><path d="M30.547 41.217h-1.912V39.19c.042.002.084.004.126.004.53 0 .966-.154 1.303-.457.34-.304.578-.825.717-1.567l2.756.47c-.286 1.267-.833 2.224-1.643 2.871a4.1 4.1 0 0 1-1.347.706zm4.932 0h.645v-7.5h-.645v7.5zm-4.982-7.5h2.885l.012.04-2.755.49a2.711 2.711 0 0 0-.142-.53z" fill="#E44C43" mask="url(#b)"/><path d="M42.251 33.717h1.362v7.5h-1.256v-5.594c0-.903-.035-1.54-.106-1.906zm-6.127 0h2.483a2.4 2.4 0 0 0-.073.175c-.174.454-.259 1.127-.259 2.018v5.307h-2.15v-7.5z" fill="#F36740" mask="url(#b)"/><path d="M43.613 33.717h1.5c.028.36.04.79.04 1.286v6.214h-1.54v-7.5z" fill="#FFD832" mask="url(#b)"/><path d="M6.144 33.717h.025v5.068c-.017-.34-.025-.775-.025-1.306v-3.762z" fill="#058C5A" mask="url(#b)"/><path d="M12.326 33.717h1.332v6.627a4.188 4.188 0 0 1-.61-.67c-.696-.968-1.047-2.188-1.047-3.662 0-.855.109-1.62.325-2.295zm-6.157 0h2.77v3.415c0 .873.017 1.38.055 1.523a.622.622 0 0 0 .252.357.79.79 0 0 0 .472.14c.263 0 .636-.089 1.13-.269l.235 2.18a4.682 4.682 0 0 1-.408.154H7.491c-.393-.17-.681-.388-.865-.651-.19-.273-.32-.637-.394-1.1a6.056 6.056 0 0 1-.063-.681v-5.068z" fill="#0585BB" mask="url(#b)"/><path d="M13.658 33.717h1.52c-.17.367-.252.803-.248 1.307h4.174c-.013-.513-.1-.948-.263-1.307h2.306v3.024h-6.268c.02.83.245 1.478.677 1.942a2.1 2.1 0 0 0 1.605.694c.439 0 .806-.12 1.102-.358.3-.238.524-.623.678-1.155l2.206.372v1.305a4.224 4.224 0 0 1-1.108 1.137c-.33.228-.696.408-1.096.539H15.23a4.265 4.265 0 0 1-1.571-.873v-6.627z" fill="#3B5D8B" mask="url(#b)"/><path d="M21.147 39.541v-1.305l.59.098c-.157.45-.354.852-.59 1.207zm2.72-5.824h2.93c-.242.486-.363 1.161-.363 2.026 0 1.26.211 2.15.633 2.67.397.49.919.747 1.568.777v2.027h-1.8a4.448 4.448 0 0 1-1.897-1.204c-.922-.98-1.382-2.336-1.382-4.07 0-.829.104-1.57.31-2.226zm-2.72 0h.376c.26.843.379 1.852.357 3.024h-.733v-3.024z" fill="#3C3B69" mask="url(#b)"/><path d="M7.49 41.217h3.185a5.796 5.796 0 0 1-1.8.265c-.503 0-.956-.085-1.36-.255l-.025-.01z" fill="#058C5A" mask="url(#b)"/><path d="M15.229 41.217h3.714a5.782 5.782 0 0 1-1.809.265c-.705 0-1.34-.088-1.905-.265" fill="#0585BB" mask="url(#b)"/><path d="M26.834 41.217h1.8v.265h-.07l-.063-.001h-.013l-.067-.002-.053-.002h-.017l-.01-.001-.052-.002-.01-.001h-.016l-.051-.004h-.015l-.013-.001-.04-.002-.003-.001-.009-.001h-.013l-.039-.004h-.012l-.065-.007-.064-.006-.004-.001h-.009l-.05-.006-.009-.001h-.004l-.012-.002-.05-.006a5.404 5.404 0 0 1-.966-.214" fill="#3B5D8B" mask="url(#b)"/><path d="M28.635 41.217h1.912c-.561.177-1.198.265-1.912.265v-.265z" fill="#3C3B69" mask="url(#b)"/><path d="M63.355 29.897c-.924 1.99-.352 3.202 1.68 3.655-2.13.518-2.72 1.723-1.807 3.595-1.733-1.345-3.04-1.055-3.934.827-.03-2.195-1.07-3.04-3.098-2.564 1.696-1.393 1.706-2.734.071-4.024 2.145.458 3.197-.37 3.186-2.454.979 1.965 2.282 2.272 3.902.965m2.556-3.881c1.401-4.391 5.147-11.848 9.35-16.003 5.228-5.167 12.872-2.736 13.489 3.624.34 3.501-2.224 8.498-9.133 6.71-1.874-.484-4.093-1.07-6.066-.321-4.968 1.886-7.706 6.197-7.64 5.99" fill="#00B4C4" mask="url(#b)"/><path d="M65.305 26.68c.228-2.31 2.574-7.531 2.184-11.132-.44-4.047-4.979-4.795-6.543-2.381-1.357 2.092-.24 3.94 1.046 5.65 1.497 1.99 2.056 2.63 2.699 5.063.394 1.496.607 2.864.614 2.8" fill="#F14943" mask="url(#b)"/><path d="M65.458 27.157c1.102 2.866 1.144 14.652 6.162 13.726 1.945-.36 2.7-3.823-3.288-10.183-1.01-1.074-1.882-1.905-2.874-3.543" fill="#D25694" mask="url(#b)"/><path d="M65.51 26.97c2.634 4.606 12.852 9.026 17.868 6.658 4.407-2.08 3.502-8.157-.209-8.453-1.51-.122-3.106.885-4.416 1.71-1.528.962-3.57 2.077-5.933 2.104-4.934.054-7.347-2.084-7.31-2.02" fill="#F78644" mask="url(#b)"/><path d="M73.58 35.53c.994 1.03 2.451 4.182 4.454 5.232 2.437 1.278 4.933-1.508 3.563-3.478-1.02-1.47-2.451-1.343-3.984-1.325-.748.01-1.578.014-2.289-.029-1.017-.062-1.794-.453-1.744-.4m7.2-13.94a1.48 1.48 0 1 1-1.478 1.48c0-.817.661-1.48 1.477-1.48" fill="#F55599" mask="url(#b)"/><path d="M64.692 26.562c-1.488-1.232-4.374-4.266-7.042-5.667-1.739-.913-4.188-.25-5.08 1.114-1.174 1.796.762 4.463 3.753 4.068 4.244-.561 8.43.536 8.37.485" fill="#00A45D" mask="url(#b)"/><path d="M58.39 26.963c-2.12 1.446-7.005 2.885-9.456 2.455-1.816-.32-3.064-2.072-2.914-3.49.107-1.012.908-1.859 2.082-2.043 1.255-.197 2.223.218 2.997 1.191.49.615.99 1.362 2.022 1.905.604.318 1.802.327 2.903.252 1.261-.089 2.396-.29 2.367-.27" fill="#D25694" mask="url(#b)"/><path d="M75.93 21.788c-.667 1.44-.253 2.316 1.215 2.643-1.54.374-1.967 1.245-1.306 2.598-1.253-.972-2.198-.764-2.843.597-.022-1.587-.775-2.196-2.24-1.853 1.226-1.006 1.234-1.975.052-2.909 1.55.332 2.31-.266 2.302-1.773.708 1.42 1.65 1.643 2.82.697" fill="#F9EB2E" mask="url(#b)"/><path d="M65.241 10.258v-1.89a6.158 6.158 0 0 0-1.693-4.279c-1.035-1.079-2.464-1.746-4.042-1.746H8.073c-1.577 0-3.006.667-4.04 1.746A6.162 6.162 0 0 0 2.34 8.368v37.064c0 1.676.647 3.188 1.693 4.279 1.034 1.078 2.464 1.746 4.04 1.746h51.433c1.577 0 3.006-.668 4.042-1.746a6.162 6.162 0 0 0 1.693-4.279V43.16h2.34v2.272a8.495 8.495 0 0 1-2.352 5.897c-1.464 1.526-3.488 2.47-5.723 2.47H8.073c-2.236 0-4.259-.944-5.722-2.469a8.499 8.499 0 0 1-2.35-5.898V8.368c0-2.299.897-4.385 2.35-5.899C3.814.944 5.837 0 8.073 0h51.433c2.236 0 4.26.945 5.724 2.47a8.502 8.502 0 0 1 2.35 5.899v1.89h-2.339z" fill="#F14943" mask="url(#b)"/></g></svg>