<svg width="81" height="55" viewBox="0 0 81 55" xmlns="http://www.w3.org/2000/svg" xmlns:xlink="http://www.w3.org/1999/xlink"><title>Group 12</title><defs><path id="a" d="M67.897.203H0v54.302h67.897V.203z"/><path id="c" d="M0 54.832h80.898V.529H0z"/></defs><g fill="none" fill-rule="evenodd"><g transform="translate(0 .327)"><mask id="b" fill="#fff"><use xlink:href="#a"/></mask><path d="M65.546 10.556V8.65c0-1.692-.65-3.219-1.701-4.319-1.04-1.089-2.476-1.763-4.061-1.763H8.112c-1.585 0-3.021.674-4.06 1.763C3 5.43 2.35 6.957 2.35 8.649V46.06a6.24 6.24 0 0 0 1.7 4.319c1.04 1.088 2.476 1.762 4.06 1.762h51.673c1.585 0 3.02-.674 4.06-1.762a6.235 6.235 0 0 0 1.702-4.319v-2.293h2.35v2.293c0 2.32-.903 4.425-2.362 5.952-1.47 1.54-3.504 2.493-5.75 2.493H8.112c-2.247 0-4.28-.952-5.75-2.492A8.6 8.6 0 0 1 0 46.06V8.649c0-2.32.903-4.426 2.362-5.954C3.832 1.155 5.865.203 8.112.203h51.672c2.246 0 4.28.952 5.75 2.492a8.598 8.598 0 0 1 2.363 5.954v1.907h-2.351z" fill="#E6D03A" mask="url(#b)"/></g><path d="M15.368 11.318h-4.183v5.837h4.183c.796 0 1.521-.329 2.047-.858a2.917 2.917 0 0 0 0-4.12 2.884 2.884 0 0 0-2.047-.859zm-.937-2.25h.937c1.414 0 2.698.582 3.628 1.518a5.17 5.17 0 0 1 0 7.302 5.106 5.106 0 0 1-3.628 1.517h-4.183v6.682H8.948V9.068h5.483zm14.134 2.25h-4.228v5.296h4.228c.828 0 1.574-.308 2.107-.805.511-.476.828-1.128.828-1.843 0-.715-.317-1.367-.828-1.843a3.084 3.084 0 0 0-2.107-.805zm-.945-2.25h.945a5.31 5.31 0 0 1 3.619 1.411c.958.893 1.553 2.127 1.553 3.487 0 1.36-.595 2.595-1.553 3.486a5.267 5.267 0 0 1-1.833 1.107l3.966 7.528h-2.865l-3.58-7.223h-3.535v7.223h-2.236V9.068h5.519zM44.591 12.4a3.638 3.638 0 0 0-2.583-1.082 3.64 3.64 0 0 0-2.583 1.082A3.68 3.68 0 0 0 38.35 15v5.14a3.68 3.68 0 0 0 1.076 2.598 3.635 3.635 0 0 0 2.583 1.082c1.005 0 1.92-.414 2.583-1.082a3.68 3.68 0 0 0 1.076-2.599V15a3.68 3.68 0 0 0-1.078-2.6m-2.583-3.332c1.622 0 3.097.667 4.165 1.741a5.932 5.932 0 0 1 1.73 4.19v5.14a5.933 5.933 0 0 1-1.73 4.19 5.861 5.861 0 0 1-4.165 1.74 5.86 5.86 0 0 1-4.164-1.74 5.933 5.933 0 0 1-1.731-4.19v-5.14c0-1.632.663-3.115 1.731-4.19a5.86 5.86 0 0 1 4.164-1.741M10.905 29.967l.01 12.865a.79.79 0 0 0 .254.414.756.756 0 0 0 .496.18h1.264v2.1h-1.264a2.835 2.835 0 0 1-1.85-.688 2.89 2.89 0 0 1-.967-1.729l-.012-.073v-.094l-.01-12.975h2.079zm11.838 6.267a2.61 2.61 0 0 0-1.856-.778c-.723 0-1.38.298-1.858.778a2.644 2.644 0 0 0-.773 1.868v.313h5.26v-.313c0-.727-.296-1.388-.773-1.868m-1.856-2.878c1.298 0 2.477.533 3.332 1.393a4.747 4.747 0 0 1 1.385 3.353v2.413h-7.348v.514c0 .075-.002.05-.001.077.026.664.39 1.29.923 1.761.552.487 1.274.793 1.986.793.087 0 .074.003.097.002.588-.024 1.137-.144 1.607-.372.41-.197.767-.485 1.045-.868l1.687 1.23a4.83 4.83 0 0 1-1.835 1.525c-.735.356-1.56.543-2.423.577l-.178.006c-1.221 0-2.438-.508-3.356-1.317-.94-.828-1.583-1.983-1.633-3.255l-.006-.159v-2.927c0-1.306.53-2.493 1.385-3.353a4.687 4.687 0 0 1 3.333-1.393" fill="#070808"/><mask id="d" fill="#fff"><use xlink:href="#c"/></mask><path fill="#070808" mask="url(#d)" d="M7.524 35.332h5.4v-1.95h-5.4zm29.025 8.32a4.837 4.837 0 0 1-1.836 1.525c-.735.356-1.56.543-2.423.577l-.178.006c-1.221 0-2.437-.508-3.356-1.318-.94-.828-1.582-1.983-1.633-3.254l-.006-.16v-2.926l.006-.16c.05-1.272.694-2.426 1.633-3.254.919-.81 2.135-1.32 3.356-1.32l.178.008c.863.034 1.688.221 2.423.577a4.83 4.83 0 0 1 1.836 1.525l-1.688 1.23a2.753 2.753 0 0 0-1.045-.869c-.47-.227-1.02-.347-1.607-.37-.023-.002-.01 0-.097 0-.713 0-1.433.306-1.986.794-1.128.995-.922 1.983-.922 3.302 0 1.32-.206 2.307.922 3.303.553.486 1.273.792 1.986.792.088 0 .074.003.097.002.588-.023 1.136-.145 1.607-.372.41-.197.767-.485 1.045-.868l1.688 1.23z"/><path fill="#E6D03A" mask="url(#d)" d="M62.727 31.674h7.989v-7.987h-7.989z"/><path fill="#070808" mask="url(#d)" d="M62.727 21.48h7.989v-7.988h-7.989zm0 20.39h7.989v-7.988h-7.989zM72.91 31.674h7.988v-7.987h-7.989zm0-10.194h7.988v-7.988h-7.989zm0 20.39h7.988v-7.988h-7.989zM52.544 31.674h7.989v-7.987h-7.989zm0-10.194h7.989v-7.988h-7.989zm0 20.39h7.989v-7.988h-7.989zM40.697 28.61v6.22l.01-.008c.806-.685 1.772-1.42 2.85-1.434h.037l.008-.005c2.179 0 4.077 1.131 4.117 4.17v.04l.004.008v7.926h-2.087v-7.243l.003-.353c-.203-2.267-3.068-3.106-4.943-.751v8.347H38.46V28.61h2.236z"/></g></svg>