<svg width="82" height="55" viewBox="0 0 82 55" xmlns="http://www.w3.org/2000/svg"><title>Group 14</title><g fill="none" fill-rule="evenodd"><path d="M65.864 10.86V8.958a6.194 6.194 0 0 0-1.709-4.31c-1.045-1.087-2.488-1.759-4.08-1.759H8.15c-1.592 0-3.035.672-4.08 1.759a6.198 6.198 0 0 0-1.709 4.31v37.336c0 1.687.653 3.21 1.71 4.31 1.044 1.085 2.487 1.758 4.079 1.758h51.924c1.592 0 3.035-.673 4.08-1.759a6.2 6.2 0 0 0 1.71-4.31v-4.024h2.362v4.025a8.547 8.547 0 0 1-2.374 5.94c-1.479 1.537-3.522 2.488-5.778 2.488H8.15c-2.257 0-4.3-.95-5.777-2.487A8.553 8.553 0 0 1 0 46.293V8.957c0-2.315.907-4.416 2.374-5.942C3.85 1.48 5.894.528 8.15.528h51.924c2.257 0 4.3.95 5.778 2.487a8.552 8.552 0 0 1 2.374 5.942v1.904h-2.363z" fill="#2D76BB"/><path d="M24.996 20.194c-.698 0-1.334.286-1.795.747a2.532 2.532 0 0 0-.748 1.794v2.279c0 .697.286 1.332.748 1.794a2.537 2.537 0 0 0 1.795.747c.7 0 1.334-.286 1.796-.747a2.53 2.53 0 0 0 .748-1.794v-2.279a2.53 2.53 0 0 0-.748-1.794 2.536 2.536 0 0 0-1.796-.747m0-2.095a4.63 4.63 0 0 1 3.279 1.36c.84.84 1.363 2 1.363 3.276v2.279a4.622 4.622 0 0 1-1.363 3.275 4.63 4.63 0 0 1-6.557 0c-.84-.84-1.363-2-1.363-3.275v-2.279c0-1.276.522-2.435 1.362-3.276a4.631 4.631 0 0 1 3.28-1.36m-8.845-4.498h2.427V29.58h-2.427L9.065 18.12v11.46H6.638V13.6h2.427l7.087 11.46zm31.327 11.412v-2.277c0-3.505-4.681-3.185-4.681 0v2.277c0 3.185 4.68 3.505 4.68 0zm0-11.412h2.217v15.98h-2.217v-1.21c-1.423 1.559-4.375 1.462-5.665.104-.841-.84-1.114-2.186-1.114-3.462v-2.277c0-1.277.273-2.622 1.114-3.462 1.29-1.358 4.242-1.455 5.665.105v-5.778zm-15.962 4.497h2.097v1.507c1.928-1.502 3.923-1.988 5.484-.68l-1.56 1.931c-1.245-.947-2.292-.618-3.251.283-.793.745-.673.713-.673 1.744v6.767h-2.097V18.098z" fill="#2D76BB"/><path d="M15.667 34.86c-.848 0-1.537.69-1.537 1.536v1.399a1.539 1.539 0 0 0 3.075 0v-1.4c0-.846-.69-1.535-1.538-1.535m0 5.743c-1.55 0-2.81-1.26-2.81-2.808v-1.4a2.813 2.813 0 0 1 2.81-2.808c1.55 0 2.81 1.26 2.81 2.809v1.399a2.813 2.813 0 0 1-2.81 2.808m-6.8-7.016c1.18 0 2.058.258 2.739 1.28l-1.071.702c-.511-.714-.92-.709-1.668-.709-.422 0-.807.173-1.086.452a1.53 1.53 0 0 0-.451 1.084v1.399a1.537 1.537 0 0 0 1.537 1.535c.748 0 1.157.007 1.668-.707l1.07.701c-.68 1.022-1.558 1.28-2.738 1.28a2.803 2.803 0 0 1-1.986-.825 2.8 2.8 0 0 1-.825-1.984v-1.4a2.8 2.8 0 0 1 .825-1.983 2.806 2.806 0 0 1 1.986-.825" fill="#FFCC43"/><path d="M81.89 26.564a.83.83 0 0 0-.827-.827h-2.415l2.175-2.174a.828.828 0 0 0 0-1.17.83.83 0 0 0-1.17 0l-3.346 3.344h-6.183l4.237-4.233h4.733a.83.83 0 0 0 .827-.827.83.83 0 0 0-.827-.827h-3.078l1.708-1.706a.828.828 0 0 0-1.17-1.17l-1.709 1.707v-3.075a.829.829 0 0 0-.827-.827.83.83 0 0 0-.828.827v4.729l-4.335 4.331v-6.23l3.347-3.344a.829.829 0 0 0 0-1.169.83.83 0 0 0-1.17 0l-2.177 2.174v-2.413a.83.83 0 0 0-.827-.827.83.83 0 0 0-.828.827v25.761a.83.83 0 0 0 .827.827.83.83 0 0 0 .828-.827V37.03l2.176 2.176a.831.831 0 0 0 1.17 0 .83.83 0 0 0 0-1.17l-3.346-3.344v-6.23l4.335 4.33v4.73a.83.83 0 0 0 .828.828.829.829 0 0 0 .827-.828v-3.075l1.708 1.708c.322.32.849.32 1.17 0a.828.828 0 0 0 0-1.17l-1.707-1.707h3.078a.83.83 0 0 0 .827-.827.83.83 0 0 0-.827-.828H74.36l-4.238-4.233h6.184l3.346 3.344a.828.828 0 0 0 1.17-1.17l-2.176-2.174h2.416a.83.83 0 0 0 .828-.827" fill="#2D76BB"/><path d="M60.276 13.84v-.001a.831.831 0 0 1 1.1.4l.675 1.447 1.143 2.446.348.747a.829.829 0 0 1-.4 1.099.831.831 0 0 1-1.1-.4l-.676-1.446-1.142-2.446-.349-.748a.83.83 0 0 1 .401-1.099m0 25.451a.831.831 0 0 0 1.1-.4l.675-1.446 1.143-2.448.348-.747a.828.828 0 0 0-.4-1.098.83.83 0 0 0-1.1.4l-.676 1.445-1.142 2.448-.349.747a.83.83 0 0 0 .401 1.1m-7.288-18.068a.83.83 0 0 1 1.088-.431l1.466.633 2.48 1.071.757.327a.83.83 0 0 1 .432 1.087v.001a.83.83 0 0 1-1.088.43l-1.466-.632-2.48-1.072-.758-.327a.83.83 0 0 1-.431-1.087m0 10.683a.83.83 0 0 0 1.088.43l1.466-.632 2.48-1.07.757-.328a.83.83 0 0 0 .432-1.087v-.001a.83.83 0 0 0-1.088-.43l-1.466.632-2.48 1.072-.758.327a.83.83 0 0 0-.431 1.087m12.785-11.63c.167 0 .332.006.496.02v12.538a6.292 6.292 0 0 1-6.79-6.27 6.292 6.292 0 0 1 6.294-6.288M39.158 35.324a1.533 1.533 0 0 0-2.17 0 1.53 1.53 0 0 0-.452 1.084v1.399c0 .422.173.806.452 1.085a1.532 1.532 0 0 0 2.17 0c.28-.28.452-.663.452-1.085v-1.399c0-.42-.173-.805-.452-1.084m-1.085-1.723c.774 0 1.477.315 1.986.824.509.508.825 1.21.825 1.983v1.399a2.8 2.8 0 0 1-.825 1.985 2.804 2.804 0 0 1-3.971 0 2.8 2.8 0 0 1-.825-1.985v-1.399c0-.772.316-1.475.825-1.983a2.804 2.804 0 0 1 1.985-.824m4.197 7.015h1.273V33.6H42.27z" fill="#FFCC43"/><path d="M43.544 35.892l-.29-1.137c1.257-1.096 2.593-1.512 3.62-.653l-.948 1.173c-.935-.712-1.688-.236-2.382.617M32.898 32.9v7.703h-1.274v-8.202c0-.438.178-.835.465-1.122a1.582 1.582 0 0 1 1.124-.465h1.093v1.273h-1.093a.314.314 0 0 0-.315.314v.498z" fill="#FFCC43"/><path fill="#FFCC43" d="M30.968 34.644h3.345v-.982h-3.345zm-11.236-1.075h1.273v.947c1.095-.854 2.54-1.28 3.69-.232h.001l.397.337c1.023-.841 2.019-1.281 3.275-.688.67.316 1.075.924 1.075 1.683v4.987H28.17V36.24c0-1.63-2.945-1.684-2.945.087v4.276H23.95v-4.289c0-1.731-2.945-1.839-2.946.1v4.19h-1.273v-7.035zm29.616 4.949v-7.024h-1.273v7.522c0 .438.178.835.465 1.122.288.288.685.465 1.123.465h1.093V39.33h-1.093a.315.315 0 0 1-.315-.314v-.498z"/><path fill="#FFCC43" d="M47.418 34.644h3.345v-.982h-3.345z"/></g></svg>