<svg width="91" height="55" viewBox="0 0 91 55" xmlns="http://www.w3.org/2000/svg" xmlns:xlink="http://www.w3.org/1999/xlink"><title>Group 5</title><defs><path id="a" d="M90.11 27.25V0H0v54.5h90.11z"/></defs><g fill="none" fill-rule="evenodd"><mask id="b" fill="#fff"><use xlink:href="#a"/></mask><path d="M28.074 33.774c-.255.589-.306.972-.332 1.765h5.811c-.024-.793-.101-1.176-.356-1.765-.409-.972-1.325-1.636-2.549-1.636-1.223 0-2.166.664-2.574 1.636zM11.526 17.658c0-2.046-.28-4.066-2.625-4.066-2.345 0-2.65 2.02-2.65 4.066 0 2.045.305 4.065 2.65 4.065 2.345 0 2.625-2.02 2.625-4.065zm17.067-.818h5.811c-.025-.793-.102-1.177-.356-1.765-.408-.972-1.326-1.636-2.548-1.636-1.224 0-2.167.664-2.575 1.636-.255.588-.306.972-.332 1.765zm12.767 0h5.811c-.025-.793-.102-1.177-.356-1.765-.408-.972-1.326-1.636-2.55-1.636-1.222 0-2.164.664-2.574 1.636-.254.588-.305.972-.33 1.765zm41.97 5.825s-.285 10.131-3.144 14.045c-2.583 3.54-6.573 5.172-8.995 4.257.003-.008.008-.01.012-.013 4.211-4.871 7.732-13.346 7.732-13.346s-2.88 3.976-5.847 8.608c-.88 1.374-2.497 3.76-2.912 4.114-1.98-1.83-2.04-6.402 1.033-9.853 3.49-3.913 12.122-7.812 12.122-7.812zm-10.837 4.073c-.187-.322-.618-1.244-.787-1.603-.833-1.76-2.234-7.487-2.234-7.487s.365 5.245 2.213 9.264c.002.002.005.003.005.009-1.772.034-3.977-1.932-4.839-4.809-.954-3.182 1.167-9.786 1.167-9.786s4.687 4.494 6.046 7.82c1.2 2.93.122 5.86-1.571 6.592zm-9.787 16.343h-2.6v-7.952c0-1.968-1.146-2.837-2.6-2.837-1.452 0-2.624.895-2.624 2.837v7.952h-2.6V24.877h2.6v6.545c.892-.971 2.064-1.457 3.338-1.457 2.881 0 4.486 1.943 4.486 4.755v8.361zm-.015-18.699h-2.6v-7.9c0-2.02-1.147-2.89-2.6-2.89-1.452 0-2.675.895-2.675 2.89v7.9h-2.6V11.419h2.549v1.304c.892-.972 2.14-1.457 3.44-1.457 1.326 0 2.421.434 3.186 1.176.993.971 1.3 2.199 1.3 3.656v8.284zm-12.945-5.727H41.36c0 2.224 1.173 3.63 3.289 3.63 1.452 0 2.217-.409 3.134-1.329l1.656 1.56c-1.324 1.329-2.573 2.02-4.842 2.02-3.237 0-5.81-1.714-5.81-6.648 0-4.194 2.167-6.622 5.479-6.622 3.466 0 5.48 2.556 5.48 6.238v1.151zm-12.767 0h-8.386c0 2.224 1.173 3.63 3.289 3.63 1.451 0 2.216-.409 3.134-1.329l1.657 1.56c-1.326 1.329-2.575 2.02-4.843 2.02-3.237 0-5.81-1.714-5.81-6.648 0-4.194 2.166-6.622 5.48-6.622 3.465 0 5.479 2.556 5.479 6.238v1.151zm-10.622-6.162l-1.963 1.969c-.585-.588-1.044-.87-1.936-.87-1.402 0-2.574 1.126-2.574 2.915v7.875h-2.6V11.419h2.549v1.406c.663-.92 1.987-1.56 3.44-1.56 1.25 0 2.192.333 3.084 1.228zm-10.46 17.855h1.478v-3.937h2.599v3.937h2.498v1.995h-2.498v7.006c0 .945.459 1.507 1.427 1.507h1.07v2.225h-1.555c-2.42 0-3.541-1.738-3.541-3.604v-7.134h-1.479v-1.995zm-1.771-6.042c0 3.17-2.09 5.47-5.53 5.47-1.964 0-3.212-.46-4.563-1.713l1.657-1.661c.815.767 1.529 1.15 2.803 1.15 2.193 0 3.033-1.56 3.033-3.298v-1.662c-.943 1.125-2.013 1.483-3.338 1.483-1.3 0-2.37-.435-3.084-1.15-1.25-1.253-1.453-3.068-1.453-5.267 0-2.2.204-4.014 1.453-5.268.714-.715 1.81-1.124 3.11-1.124 1.375 0 2.42.357 3.389 1.533v-1.38h2.523v12.887zm11.043 12.28c0-4.192 2.166-6.62 5.479-6.62 3.466 0 5.48 2.556 5.48 6.237v1.15h-8.386c0 2.226 1.173 3.632 3.289 3.632 1.452 0 2.217-.409 3.134-1.33l1.657 1.56c-1.325 1.33-2.575 2.02-4.842 2.02-3.238 0-5.811-1.713-5.811-6.648zm13.914 0c0-4.857 2.854-6.62 5.76-6.62 1.783 0 3.031.51 4.255 1.814l-1.785 1.738c-.815-.895-1.452-1.226-2.47-1.226-.995 0-1.835.408-2.397 1.15-.56.716-.764 1.637-.764 3.145 0 1.51.204 2.454.764 3.17.562.742 1.402 1.151 2.396 1.151 1.019 0 1.656-.332 2.471-1.227l1.785 1.713c-1.224 1.304-2.472 1.84-4.256 1.84-2.905 0-5.76-1.79-5.76-6.647zm51.028-9.372c0-9.063-6.933-16.412-20.78-16.472V7.623c0-4.21-3.283-7.623-7.335-7.623H7.337C3.285 0 0 3.413 0 7.623v39.255c0 4.21 3.285 7.623 7.337 7.623h54.66c4.05 0 7.335-3.413 7.335-7.623v-3.192c13.846-.06 20.779-7.41 20.779-16.472z" fill="#81A638" mask="url(#b)"/></g></svg>