<svg width="100" height="55" viewBox="0 0 100 55" xmlns="http://www.w3.org/2000/svg"><title>Group 8</title><g fill="#003874" fill-rule="evenodd"><path d="M91.572 54.316H40.935c-4.383 0-7.95-3.755-7.95-8.37h2.304c0 3.316 2.533 6.014 5.646 6.014h50.637c3.113 0 5.645-2.698 5.645-6.014V8.898c0-3.317-2.532-6.016-5.645-6.016H40.935c-3.113 0-5.646 2.699-5.646 6.016v1.89h-2.303v-1.89c0-4.616 3.566-8.37 7.95-8.37h50.636c4.383 0 7.948 3.754 7.948 8.37v37.048c0 4.615-3.565 8.37-7.948 8.37"/><path d="M27.47 12.663C14.516 12.663 0 19.64 0 28.244c0 8.603 14.516 15.58 27.47 15.58 12.954 0 19.435-6.977 19.435-15.58 0-8.605-6.481-15.58-19.435-15.58m3.879 24.28c-4.701 0-8.512-3.895-8.512-8.7 0-4.806 3.811-8.703 8.512-8.703 4.7 0 8.511 3.897 8.511 8.703 0 4.805-3.81 8.7-8.511 8.7M51.28 24.133c1.142 1.14 2.388 1.723 4.152 1.723 1.505 0 2.595-.583 2.595-1.723 0-.956-.7-1.247-1.609-1.327l-2.335-.212c-2.18-.186-3.788-1.512-3.788-3.82 0-2.732 2.127-4.138 4.904-4.138 2.309 0 3.866.716 5.163 1.83l-1.634 1.963c-1.039-.742-2.102-1.246-3.53-1.246-1.686 0-2.257.69-2.257 1.617 0 .585.416 1.168 1.739 1.274l2.179.16c2.724.185 3.814 1.882 3.814 4.031 0 2.627-2.386 4.139-5.449 4.139-2.127 0-4.099-.796-5.786-2.415l1.843-1.856zm18.448 2.917h-.052c-.545.929-1.453 1.353-3.244 1.353-2.931 0-4.644-1.777-4.644-4.111 0-2.149 1.453-3.98 4.282-3.98h3.658v-1.405c0-1.274-.805-1.725-2.699-1.725-1.375 0-2.024.265-2.49 1.035l-2.077-1.619c1.013-1.432 2.466-1.962 4.437-1.962 3.244 0 5.475 1.113 5.475 4.43v9.178h-2.646V27.05zm0-4.51h-3.166c-1.557 0-2.283.638-2.283 1.619 0 .902.7 1.698 2.49 1.698 2.206 0 2.959-.24 2.959-2.335v-.982zm5.992-5.676h-1.323v-2.069h1.324v-1.777c0-2.52 1.53-3.662 3.58-3.662h1.712v2.547H79.51c-.857 0-1.142.292-1.142 1.115v1.777h2.646v2.069h-2.646v11.38h-2.646v-11.38zm8.277 5.676c0 2.202 1.323 3.317 3.14 3.317 1.011 0 2.1-.478 2.88-1.3l1.92 1.671c-1.298 1.538-2.985 2.175-4.75 2.175-2.697 0-5.837-1.326-5.837-6.843 0-5.226 2.88-6.924 5.424-6.924 2.905 0 5.422 2.202 5.422 5.677v2.227h-8.2zm5.552-2.227c-.078-2.043-1.22-3.13-2.775-3.13-1.558 0-2.726 1.087-2.777 3.13h5.552zM49.531 41.045l6.044-8.174h-5.71v-2.19h8.66v1.971l-6.043 8.028h6.043v2.336h-8.994zm11.621-8.928c.666-.754 1.784-1.581 3.664-1.581 1.88 0 2.999.827 3.665 1.581.928 1.046 1.309 2.068 1.309 4.72 0 2.675-.38 3.697-1.309 4.744-.666.753-1.785 1.58-3.665 1.58-1.88 0-2.998-.827-3.664-1.58-.928-1.047-1.308-2.069-1.308-4.744 0-2.652.38-3.674 1.308-4.72m5.616 1.8c-.357-.51-1.119-.9-1.952-.9-.832 0-1.593.39-1.95.9-.453.657-.595 1.144-.595 2.92 0 1.8.142 2.287.594 2.943.358.51 1.119.9 1.951.9.833 0 1.595-.39 1.952-.9.452-.656.595-1.143.595-2.92 0-1.8-.143-2.286-.595-2.943m4.683-3.235h2.428v1.314h.047c.761-.974 1.856-1.46 3.14-1.46 1.88 0 4.022 1.484 4.022 4.282v8.198h-2.427v-7.347c0-1.679-1.023-2.651-2.379-2.651-1.38 0-2.403.972-2.403 2.651v7.347H71.45V30.682zm13.726 7.103c0 2.02 1.213 3.041 2.879 3.041.928 0 1.927-.438 2.641-1.192l1.76 1.532c-1.189 1.412-2.736 1.995-4.353 1.995-2.476 0-5.354-1.216-5.354-6.276 0-4.793 2.64-6.35 4.972-6.35 2.666 0 4.973 2.02 4.973 5.206v2.044h-7.518zm5.092-2.044c-.071-1.873-1.118-2.87-2.547-2.87-1.427 0-2.498.997-2.545 2.87h5.092z"/></g></svg>