<svg width="121" height="54" viewBox="0 0 121 54" xmlns="http://www.w3.org/2000/svg" xmlns:xlink="http://www.w3.org/1999/xlink"><title>Group 7</title><defs><path id="a" d="M0 29.029V.286h41.574V29.03H0z"/></defs><g fill="none" fill-rule="evenodd"><path d="M77.937 29.38v2.723h2.558v2.004h-2.558v4.684c0 .654.102 1.144.307 1.47.204.328.56.49 1.07.49.248 0 .445-.006.591-.02a2.82 2.82 0 0 0 .459-.088l.044 2.026a5.167 5.167 0 0 1-.81.196 6.741 6.741 0 0 1-1.136.087 3.73 3.73 0 0 1-1.355-.229 2.459 2.459 0 0 1-.962-.642c-.568-.58-.853-1.576-.853-2.985v-4.989h-1.509v-2.004h1.51V30.12l2.644-.74zm11.173 6.906c0-.247-.03-.52-.088-.818a2.392 2.392 0 0 0-.34-.838 2.187 2.187 0 0 0-.678-.665c-.283-.181-.652-.272-1.103-.272-.408 0-.765.084-1.072.25a2.4 2.4 0 0 0-.754.632 2.847 2.847 0 0 0-.448.84 4.165 4.165 0 0 0-.197.87h4.68zm-4.68 1.873c.015.48.113.893.296 1.242.182.349.422.632.721.85a3.18 3.18 0 0 0 1.027.49c.387.11.799.164 1.236.164a8.86 8.86 0 0 0 1.628-.131c.46-.087.9-.203 1.323-.349l.393 1.83a7.969 7.969 0 0 1-1.628.49c-.62.124-1.315.186-2.088.186-.86 0-1.629-.128-2.306-.382a4.852 4.852 0 0 1-1.727-1.078 4.574 4.574 0 0 1-1.082-1.688c-.25-.661-.372-1.398-.372-2.212 0-.74.113-1.452.339-2.135a5.57 5.57 0 0 1 .994-1.82 4.86 4.86 0 0 1 1.63-1.273c.647-.32 1.394-.48 2.24-.48.86 0 1.584.16 2.176.48.59.319 1.063.729 1.42 1.23a4.9 4.9 0 0 1 .765 1.667c.153.61.23 1.206.23 1.787 0 .246-.007.468-.022.664a2.966 2.966 0 0 1-.066.468H84.43zm17.206 4.227c-.292.13-.7.254-1.224.37a8.325 8.325 0 0 1-1.793.175c-.83 0-1.585-.128-2.263-.381a4.792 4.792 0 0 1-1.727-1.09 4.908 4.908 0 0 1-1.104-1.71c-.262-.668-.394-1.416-.394-2.244 0-.799.135-1.54.405-2.223a5.244 5.244 0 0 1 1.159-1.786 5.305 5.305 0 0 1 1.858-1.198c.735-.29 1.57-.436 2.503-.436.495 0 .976.048 1.443.141a6.07 6.07 0 0 1 1.159.339l-.481 2.025a3.556 3.556 0 0 0-.82-.294 5.224 5.224 0 0 0-1.213-.12c-.51 0-.97.088-1.377.262a2.84 2.84 0 0 0-1.028.73 3.22 3.22 0 0 0-.634 1.1 4.103 4.103 0 0 0-.22 1.35c0 .538.085 1.021.252 1.45.168.428.398.788.689 1.078.291.29.638.512 1.038.664.401.153.827.23 1.28.23.466 0 .87-.04 1.213-.12.342-.08.645-.178.907-.295l.372 1.983zm1.989-15.142h2.69v6.297h.043c.335-.509.78-.908 1.333-1.198a3.725 3.725 0 0 1 1.859-.48c.45 0 .9.08 1.344.24a3.1 3.1 0 0 1 1.192.784c.35.363.634.835.852 1.416.219.58.328 1.3.328 2.157v6.253h-2.689v-5.97c0-.77-.157-1.412-.47-1.928-.313-.515-.842-.773-1.585-.773-.524 0-.965.149-1.323.446-.357.298-.616.65-.776 1.057a1.548 1.548 0 0 0-.087.382 3.905 3.905 0 0 0-.022.424v6.362h-2.689V27.244zM75.228 10.05h9.976v2.574h-6.83v4.741h6.343v2.55h-6.343v7.315h-3.146zm17.239 3.44h-.051l-3.044 1.53-.537-2.37 4.067-1.989h2.61v16.57h-3.045z" fill="#231F20"/><g transform="translate(0 13.43)"><mask id="b" fill="#fff"><use xlink:href="#a"/></mask><path d="M41.574.286H20.35L0 29.03h11.176l5.607-7.962h7.572l5.606-7.815h-7.609l3.75-5.296c3.495-.073 6.444-.767 8.847-2.045 1.747-.986 3.967-2.885 6.625-5.625" fill="#231F20" mask="url(#b)"/></g><path d="M64.315 17.456a1.32 1.32 0 0 1-1.323-1.319 1.32 1.32 0 0 1 1.323-1.318c.73 0 1.323.59 1.323 1.318a1.32 1.32 0 0 1-1.323 1.319zM49.729 13.68l-3.513 4.915h20.745V13.68H49.73zm14.586 9.742a1.32 1.32 0 0 1-1.323-1.318 1.32 1.32 0 0 1 1.323-1.319c.73 0 1.323.59 1.323 1.319a1.32 1.32 0 0 1-1.323 1.318zm-9.963-3.776h-8.888l-3.512 4.915h25.01v-4.915h-12.61zm9.963 7.105c.73 0 1.323.59 1.323 1.319a1.32 1.32 0 0 1-1.323 1.318 1.32 1.32 0 0 1-1.323-1.318 1.32 1.32 0 0 1 1.323-1.319zM41.2 25.613l-3.512 4.914h29.274v-4.914H41.2zm23.115 13.071c.73 0 1.323.59 1.323 1.318a1.32 1.32 0 0 1-1.323 1.319 1.32 1.32 0 0 1-1.323-1.319 1.32 1.32 0 0 1 1.323-1.318zm-23.521-1.139l-3.535 4.915-.053.073 1.209-.073H66.96v-4.915H40.794zm23.521-4.827c.73 0 1.323.59 1.323 1.318a1.32 1.32 0 0 1-1.323 1.319 1.32 1.32 0 0 1-1.323-1.319 1.32 1.32 0 0 1 1.323-1.318zm-27.11-1.14l-1.75 2.555 7.96-.256-1.864 2.616h25.41V31.58H37.206z" fill="#ED342D"/><path d="M112.698 53.8H61.014c-4.474 0-8.114-3.754-8.114-8.368h2.351c0 3.322 2.585 6.024 5.763 6.024h51.684c3.177 0 5.762-2.702 5.762-6.024V8.368c0-3.322-2.585-6.025-5.762-6.025H61.014c-3.178 0-5.763 2.703-5.763 6.025v1.89H52.9v-1.89C52.9 3.754 56.54 0 61.014 0h51.684c4.474 0 8.113 3.754 8.113 8.368v37.064c0 4.614-3.64 8.367-8.113 8.367" fill="#ED362E"/></g></svg>