<?xml version="1.0" encoding="UTF-8"?>
<svg width="20px" height="20px" viewBox="0 0 20 20" version="1.1" xmlns="http://www.w3.org/2000/svg" xmlns:xlink="http://www.w3.org/1999/xlink">
    <g id="Page-1" stroke="none" stroke-width="1" fill="none" fill-rule="evenodd">
        <g id="10-Information-In" transform="translate(-1123.000000, -575.000000)" fill="#F52341">
            <g id="Page-1" transform="translate(1123.000000, 575.000000)">
                <path d="M9.99515193,9.24339099 C11.8511002,9.24235105 13.3009591,7.81441738 13.3034549,5.98517309 C13.3059507,4.06545453 11.8864576,2.63804082 9.97664133,2.6400167 C8.12828447,2.64199257 6.69870408,4.07450196 6.69995199,5.92360899 C6.70119989,7.81909708 8.11601339,9.24453492 9.99515193,9.24339099 M11.5505101,12.8484781 C12.3185818,12.489968 13.0376531,12.1981298 13.7083743,11.8206481 C13.9942465,11.6597685 14.3125328,11.3467904 14.3721573,11.053326 C14.4311314,10.7631139 14.2549681,10.3515917 14.0505104,10.1001902 C13.8021473,9.79469234 13.4009288,9.75230425 13.0154294,9.95383741 C12.0838782,10.4409211 11.1263091,10.7947695 10.0429865,10.8029002 C8.94004204,10.8111393 7.95938196,10.4712757 7.01265364,9.96814746 C6.63246628,9.76607225 6.22582733,9.77149272 5.97421203,10.079484 C5.75967231,10.3422685 5.58849585,10.7559589 5.62741438,11.0748995 C5.66026204,11.3433213 5.97833154,11.6518546 6.24826782,11.8017848 C6.94489855,12.1886982 7.68478413,12.4974483 8.4417982,12.8535733 C7.68706071,13.8047578 6.96191863,14.7003282 6.25834977,15.6125937 C5.87350086,16.1116024 5.93583555,16.6213436 6.38323596,17.0015356 C6.81274902,17.3665502 7.35890925,17.3251378 7.78040012,16.8810927 C8.01607942,16.6327266 8.23202845,16.3658226 8.45827624,16.108567 C8.96367501,15.5335632 9.46994104,14.9593184 9.99279352,14.3656683 C10.1239674,14.5106117 10.2104771,14.6010252 10.2912411,14.6962087 C10.8982183,15.4109522 11.5033526,16.1272134 12.1104382,16.8418485 C12.3922994,17.1736898 12.7873387,17.3650324 13.1654663,17.1895176 C13.4696595,17.0483685 13.8231785,16.7223812 13.8819357,16.4245805 C13.9418854,16.1207088 13.7337418,15.7047418 13.5293924,15.4192997 C12.9118996,14.5572278 12.2393355,13.7347253 11.5505101,12.8484781 M3.00050847,0.000735853862 L16.9988823,0.000801053732 L16.9988823,0.000815026789 C18.6557311,0.000822743851 19.9988683,1.34396623 19.9988683,3.00081503 L19.9988823,16.9990566 L19.9989242,16.9990566 C19.9989242,18.6559109 18.6557784,19.9990566 16.9989242,19.9990566 C16.9989102,19.9990566 16.9988962,19.9990566 16.9988823,19.9990566 L3.00134677,19.9988191 L3.00134677,19.9986514 C1.34455801,19.9986283 0.00145814707,18.6555659 0.00138869576,16.9987772 L0.000634224788,3.00072188 L0.000494497317,3.00072188 C0.000425043257,1.34386764 1.34351449,0.000665583055 3.00036874,0.000596128995 C3.00041531,0.000596127042 3.00046189,0.000596126174 3.00050847,0.000596126391 Z" id="Fill-1"></path>
                <path d="M8.50000908,5.99067765 C8.50275945,5.1790379 9.18278865,4.50167281 9.99640729,4.50000297 C10.8265281,4.49833314 11.5141209,5.20005822 11.4997796,6.03419168 C11.4858313,6.84082192 10.792345,7.50856088 9.9775476,7.49991701 C9.16491124,7.49127314 8.49716048,6.80929144 8.50000908,5.99067765" id="Fill-4"></path>
            </g>
        </g>
    </g>
</svg>