<?xml version="1.0" encoding="UTF-8"?>
<svg width="20px" height="20px" viewBox="0 0 20 20" version="1.1" xmlns="http://www.w3.org/2000/svg" xmlns:xlink="http://www.w3.org/1999/xlink">
    <g id="Page-1" stroke="none" stroke-width="1" fill="none" fill-rule="evenodd">
        <g id="10-Information-In" transform="translate(-1162.000000, -575.000000)" fill="#F52341">
            <g id="Vk" transform="translate(1162.000000, 575.000000)">
                <path d="M3.00050847,0.000735853863 L16.9988823,0.000801053733 L16.9988823,0.000815026789 C18.6557311,0.000822743852 19.9988683,1.34396623 19.9988683,3.00081503 L19.9988823,16.9990566 L19.9989242,16.9990566 C19.9989242,18.6559109 18.6557784,19.9990566 16.9989242,19.9990566 C16.9989102,19.9990566 16.9988962,19.9990566 16.9988823,19.9990566 L3.00134677,19.9988191 L3.00134677,19.9986514 C1.34455801,19.9986283 0.00145814707,18.6555659 0.00138869576,16.9987772 L0.000634224788,3.00072188 L0.000494497317,3.00072188 C0.000425043257,1.34386764 1.34351449,0.000665583056 3.00036874,0.000596128995 C3.00041531,0.000596127043 3.00046189,0.000596126175 3.00050847,0.000596126392 L3.00050847,0.000735853863 Z M17.420448,13.4374916 C17.4022847,13.3983476 17.3853524,13.365878 17.3696236,13.339864 C17.1093745,12.8711475 16.6120454,12.2958312 15.8779372,11.6137509 L15.8624273,11.5981316 L15.8546586,11.5904724 L15.8468079,11.5826217 L15.8389299,11.5826217 C15.5057541,11.2650105 15.2947701,11.0514553 15.2064157,10.94212 C15.0447516,10.7338441 15.0085344,10.5230243 15.0968889,10.3094143 C15.1593115,10.1480237 15.3937928,9.80718874 15.7997858,9.28644431 C16.0133411,9.01046645 16.1824729,8.78927932 16.3073728,8.62263673 C17.2081783,7.42506406 17.5987162,6.65979925 17.4789042,6.32654142 L17.4323745,6.24866364 C17.4011085,6.20177831 17.3204132,6.15888672 17.190398,6.11977002 C17.060082,6.08073539 16.8935215,6.07427977 16.6904155,6.10029374 L14.4412329,6.115831 C14.4047969,6.10291975 14.352769,6.10412334 14.284985,6.11977002 C14.217283,6.1354167 14.1834183,6.14326739 14.1834183,6.14326739 L14.1442743,6.16282574 L14.1131998,6.18632311 C14.0871584,6.20186037 14.0585185,6.22918735 14.0272524,6.26824934 C13.9961506,6.30717455 13.9701366,6.35285629 13.9493473,6.40491158 C13.7044713,7.03490921 13.4260589,7.62064753 13.1135904,8.16209919 C12.9209338,8.48496237 12.744006,8.76476984 12.582424,9.00168571 C12.4210608,9.23851952 12.2856842,9.41301281 12.176431,9.52486467 C12.0670136,9.63682596 11.9682645,9.72652081 11.8795817,9.79427749 C11.7910358,9.86206153 11.7234432,9.89070152 11.67664,9.88022481 C11.6297273,9.8697481 11.58555,9.85935345 11.5437253,9.8489588 C11.4708807,9.80207348 11.4122877,9.73831053 11.3681104,9.65761525 C11.3237417,9.57691997 11.2938708,9.47535333 11.2782515,9.3529974 C11.2627142,9.23055941 11.2535231,9.12524523 11.2508971,9.03669926 C11.2484626,8.9482627 11.2495841,8.82317134 11.2548635,8.66178078 C11.2602797,8.50030815 11.2627142,8.39105495 11.2627142,8.33377498 C11.2627142,8.13589374 11.2665712,7.92113487 11.2743124,7.68944368 C11.2821905,7.45775248 11.288564,7.27417756 11.2938981,7.13893774 C11.2992049,7.00356115 11.3016668,6.86033386 11.3016668,6.70933795 C11.3016668,6.55834203 11.2924757,6.43992513 11.2743124,6.35397782 C11.256368,6.26813992 11.2288222,6.18481862 11.192523,6.10404128 C11.1560049,6.023346 11.1025546,5.96092341 11.0324181,5.91660939 C10.9621448,5.87235009 10.8747751,5.83722712 10.7708012,5.81113109 C10.4948234,5.74868115 10.1434023,5.71489855 9.71637379,5.70964652 C8.74800307,5.69925187 8.12577407,5.76178387 7.84982356,5.89716046 C7.74048829,5.95435837 7.64154767,6.0325097 7.55308376,6.13136826 C7.45934047,6.24595556 7.44626509,6.30848756 7.51393971,6.31877279 C7.8263809,6.36557605 8.04756803,6.47753734 8.1777473,6.65454722 L8.22465998,6.74834523 C8.26115066,6.81601984 8.29758663,6.93583182 8.33404995,7.10761703 C8.37045857,7.27940224 8.39395594,7.46943278 8.40429588,7.67759925 C8.43028249,8.05774241 8.43028249,8.38314955 8.40429588,8.65384802 C8.3782272,8.92465591 8.3536083,9.13547575 8.33011093,9.28647167 C8.30661356,9.43746758 8.27149059,9.55982351 8.22465998,9.6535121 C8.1777473,9.74722804 8.146536,9.80450801 8.13088933,9.82529731 C8.11527,9.8460866 8.10224934,9.85918932 8.0919094,9.86433194 C8.02423478,9.89026385 7.95385209,9.90347599 7.8810075,9.90347599 C7.8080535,9.90347599 7.71958958,9.86698531 7.61547899,9.79405866 C7.51139576,9.72113201 7.4033735,9.62096044 7.29141222,9.49337984 C7.17945094,9.36577188 7.05318334,9.18744898 6.91255472,8.9583838 C6.77203551,8.72931862 6.62623692,8.4585928 6.475241,8.14620632 L6.35031377,7.91965774 C6.27221715,7.77391386 6.16553525,7.56169895 6.03015866,7.28320449 C5.89470001,7.00460061 5.77497009,6.73510573 5.67088686,6.47477455 C5.62928092,6.36543928 5.56677627,6.28220005 5.48348233,6.22492008 L5.44439299,6.2014227 C5.41840637,6.18063341 5.37669101,6.15855847 5.31946575,6.13503374 C5.26215842,6.11153637 5.20236185,6.0946861 5.13982985,6.08431881 L2.99992778,6.09985607 C2.78125725,6.09985607 2.63288735,6.14939476 2.55476337,6.24833538 L2.52349737,6.29513865 C2.50787805,6.32120733 2.5,6.36284062 2.5,6.42014795 C2.5,6.47742792 2.51561932,6.54772855 2.54688533,6.63096779 C2.8592718,7.36515807 3.19898526,8.07322496 3.56602569,8.75527789 C3.93306612,9.43733081 4.25201764,9.98674258 4.52268876,10.4030208 C4.79341458,10.8195999 5.06936509,11.2127638 5.35054027,11.5823208 C5.63171545,11.9520146 5.81783433,12.1889305 5.9088969,12.2930137 C6.00006889,12.3972884 6.07168254,12.4752483 6.12373783,12.5273036 L6.31902041,12.7147081 C6.443975,12.83969 6.62746786,12.9893729 6.86958106,13.1637568 C7.11174896,13.3382501 7.37984878,13.5100353 7.67401727,13.679386 C7.96824047,13.8484631 8.31052523,13.9864384 8.70106303,14.0931476 C9.09154613,14.1999663 9.47160722,14.2428305 9.84130102,14.2221506 L10.7394532,14.2221506 C10.9216057,14.2064219 11.0596083,14.1491419 11.1534063,14.0502834 L11.1844808,14.0111393 C11.2053795,13.9800648 11.2249379,13.9317844 11.2429917,13.8668179 C11.2612644,13.8017419 11.2703461,13.7300462 11.2703461,13.652059 C11.265012,13.4282185 11.2820537,13.2264803 11.3210063,13.0468717 C11.3599315,12.8673179 11.4043002,12.7319413 11.453921,12.6407693 C11.5035144,12.5496794 11.5594814,12.4728137 11.6217672,12.4105006 C11.6841898,12.3480506 11.7286679,12.3102196 11.7547639,12.2971989 C11.7806958,12.2840962 11.8014031,12.275206 11.8170224,12.2698719 C11.941977,12.2282386 12.0890339,12.2685589 12.2584119,12.3910243 C12.4276532,12.5133802 12.5863903,12.6644582 12.7348697,12.844012 C12.8832669,13.02373 13.0615625,13.2253588 13.2697836,13.4491993 C13.4781416,13.6731218 13.6603214,13.8395729 13.81646,13.9490723 L13.9725985,14.0427883 C14.0768732,14.1053203 14.2122498,14.1626003 14.3788924,14.2146555 C14.5452341,14.2666835 14.690978,14.2797042 14.816124,14.2536902 L16.8153701,14.2225062 C17.0131146,14.2225062 17.1669827,14.1897631 17.2761265,14.1247966 C17.3854891,14.0597206 17.4504557,13.9880249 17.4714091,13.9100377 C17.4923078,13.8319684 17.4934293,13.7433951 17.4753755,13.6443724 C17.4568566,13.5455959 17.4386112,13.4765262 17.420448,13.4374916 Z" id="Combined-Shape"></path>
            </g>
        </g>
    </g>
</svg>